<!-- Generator: Adobe Illustrator 22.0.1, SVG Export Plug-In . SVG Version: 6.00 Build 0)  -->
<svg version="1.1" id="Capa_1" xmlns="http://www.w3.org/2000/svg" xmlns:xlink="http://www.w3.org/1999/xlink" x="0px" y="0px" viewBox="0 0 100 100" style="enable-background: new 0 0 100 100;" xml:space="preserve" class="mx-5">
    <style>
        #interior, #exterior{
            fill: silver;
        }
        @keyframes blip {
            from {
                opacity: 1;
            }
            to {
                opacity: 0;
            }
        }
        #interior {
            animation: blip 1s linear 1s infinite alternate;
        }
        #exterior {
            animation: blip 1s linear 2s infinite alternate;
        }
    </style>
    <path
        id="antena"
        d="M61.5,94h4.9L53,43.2c2.6-1.3,4.3-4,4.3-7c0-0.1,0-0.2,0-0.2c-0.1-4.1-3.5-7.5-7.6-7.4c0,0-0.1,0-0.1,0
    c-4.2,0-7.6,3.4-7.6,7.6c0,2.9,1.7,5.6,4.3,6.9L32.8,94h4.9l2.3-8.8h14.5L53.3,80H41.4l2.8-10.8h6.6L49.6,64h-4.1l4.1-15.1L61.5,94z
    "
    />
    <g id="interior">
        <path
            d="M28.5,35.8c0-4.4,1.7-8.7,4.8-11.9c0,0,0,0,0.1-0.1c0.4-0.4,0.3-1-0.1-1.4L30.8,20c-0.1-0.1-0.1-0.1-0.2-0.2
        c-0.4-0.3-1-0.2-1.3,0.2c-0.1,0.1-0.2,0.2-0.3,0.3c-8.6,8.8-8.5,22.9,0.3,31.5c0.1,0.1,0.1,0.1,0.2,0.2c0.4,0.3,1,0.2,1.3-0.2
        l2.5-2.5c0.1-0.1,0.1-0.1,0.2-0.2c0.3-0.4,0.2-1-0.2-1.3C30.1,44.6,28.3,40.3,28.5,35.8z"
        />
        <path
            d="M70.5,20c-0.1-0.1-0.1-0.1-0.2-0.2c-0.4-0.3-1-0.2-1.3,0.2l-2.5,2.5c0,0,0,0-0.1,0.1c-0.4,0.4-0.3,1,0.1,1.4
        c3.1,3.2,4.8,7.5,4.8,11.9c0.2,4.5-1.6,8.8-4.8,11.9c-0.1,0.1-0.1,0.1-0.2,0.2c-0.3,0.4-0.2,1,0.2,1.3l2.5,2.5
        c0.1,0.1,0.1,0.1,0.2,0.2c0.4,0.3,1,0.2,1.3-0.2c0.1-0.1,0.1-0.1,0.2-0.2C79.4,42.8,79.3,28.6,70.5,20z"
        />
    </g>
    <g id="exterior">
        <path
            d="M21.6,9.2L19,6.8c-0.1-0.3-0.4-0.4-0.7-0.4c-0.3,0-0.6,0.2-0.7,0.4c-15.9,16.1-15.9,42,0,58.1c0.2,0.2,0.5,0.4,0.7,0.4
        c0.3,0,0.6-0.1,0.7-0.4l2.6-2.5c0.4-0.4,0.4-1.1,0-1.5C7.8,47,7.8,24.6,21.6,10.7C22,10.3,22,9.7,21.6,9.2z"
        />
        <path
            d="M82.2,6.8c-0.2-0.2-0.5-0.3-0.7-0.4c-0.3,0-0.6,0.1-0.7,0.4l-2.6,2.5c-0.4,0.4-0.4,1.1,0,1.5C92,24.6,92,47,78.2,60.9
        c-0.4,0.4-0.4,1.1,0,1.5l2.6,2.5c0.2,0.3,0.4,0.4,0.7,0.4c0.3,0,0.6-0.2,0.7-0.4c7.6-7.7,11.9-18.1,11.9-29
        C94.1,24.9,89.9,14.5,82.2,6.8z"
        />
    </g>
</svg>