<?xml version="1.0" encoding="utf-8"?>
<!-- Primero descargo el SVG desde https://www.svgrepo.com/svg/414756/japan-japanese-katana -->
<!-- Luego lo abro en Illustrator para crear un grupo de identidad "shomengiri" -->
<!-- Después creo una animación dentro del style, la que aplico a #shomengiri-->
<svg version="1.1" xmlns="http://www.w3.org/2000/svg" x="0px" y="0px" viewBox="0 0 340 500" style="enable-background:new 0 0 340 500;" xml:space="preserve">
<style type="text/css">
.st0{fill:#383A3D;}
.st1{fill:#E9EBFC;}
.st2{fill:#FFC4B6;}
.st3{fill:#535F70;}
.st4{fill:#363B42;}
.st5{fill:#ACB9D4;}
.st6{fill:#EA8B7F;}
.st7{fill:#D14253;}
.st8{fill:#FFC271;}
.st9{fill:#EF9354;}
.st10{fill:#FFE1DC;}

g#shomengiri {animation: corte .5s linear 0s infinite alternate;}

@keyframes corte {
	from{transform: rotate(-25deg); transform-origin: 275px 330px;}
	to{transform: rotate(60deg); transform-origin: 275px 330px;}
}	
</style>
<path class="st0" d="M249.1,193.5c0,0-3.8-18.8,13.8-19.3c0,0,17.8-2,30.4,9.7c0,0,12.3-1.6,16.3,4.9c4.3,6.9,2,15.3-5.9,19 L249.1,193.5z"/>
<path class="st1" d="M283.6,201.7c-2.2,0-4-1.8-4-4c0-1.4,0.7-2.6,1.8-3.4c6.2-4,8-11.3,8-11.4c0.5-2.1,2.7-3.5,4.8-2. c2.1,0.5,3.4,2.6,3,4.7c-0.1,0.4-2.5,10.6-11.5,16.4C285.1,201.5,284.4,201.7,283.6,201.7z"/>
<path class="st2" d="M275.3,189.7c-0.4-0.1-0.8-0.2-1.2-0.3c-18.3-3.6-36.6,7.1-41.6,25.1c-0.4,1.5-0.8,3-1.1,4.6l-1.1,12.2 c-0.5,2.3-1.4,4.5-2.8,6.4c-2,3-2.1,6.9-0.1,9.9l7.6,11.9l3.6,10.3c1.4,4.2,6,6.4,10.2,4.9c0.2-0.1,0.3-0.1,0.5-0.2l15.1-6.4l3,30.7 l25.6-21.9l-0.6-26c0,0,9.7-15.7,6.8-35C297.4,203.1,287.9,192.7,275.3,189.7z"/>
<path class="st3" d="M291.2,273c-0.9,0.4-1.8,0.9-2.8,1.5c-22.3,12.7-36.6,35.8-38.1,61.5l-3.5,59.7h60.5l9.3-13 c2.7-3.7,4-8.3,3.7-12.8l-3.4-53.3c-0.3-4.6-2.2-8.9-5.5-12.2l-11.7-11.9v-14.2c0-3.2-2.6-5.9-5.9-5.9 C293,272.4,292.1,272.6,291.2,273z"/>
<path class="st4" d="M247.3,387.8l-0.5,7.8h41.6c3.4-6.1,5.9-11.1,7.4-14.4c1.3-2.8,2.4-5.8,3.1-8.9c3.6-15.3,6-28.9,7.5-39.2 c0.5-3.2-1.7-6.3-5-6.8c-2.1-0.3-4.2,0.5-5.5,2.1L247.3,387.8z"/>
<polygon class="st1" points="307.3,395.7 307.3,413.2 244.2,413.2 246.9,395.7 "/>
<path class="st5" d="M246.9,395.7l-2.7,17.5h33.7c4.2-6.5,7.7-12.4,10.6-17.5L246.9,395.7z"/>
<path class="st3" d="M307.3,413.2h-63.1c0,0-9.6,17.8-10.8,46.8l-1.5,26h88.4C320.3,486,321.1,423.6,307.3,413.2z"/>
<path class="st4" d="M277.9,413.2h-33.7c0,0-9.6,17.8-10.8,46.8l-0.4,7.4C250,451.1,265.1,432.9,277.9,413.2z"/>
<path class="st6" d="M244,236.9c-1.8,0-3.3-1.5-3.3-3.3c0-1.4,0.9-2.7,2.2-3.1l2.6-0.9c1.7-0.6,3.6,0.3,4.2,2.1 c0.6,1.7-0.3,3.5-2,4.2l-2.6,0.9C244.8,236.8,244.4,236.9,244,236.9z"/>
<path class="st6" d="M264.4,268.1l1.4,13.9l10-16.1c0.4-0.6,0.2-1.4-0.4-1.8c-0.4-0.2-0.8-0.3-1.2-0.1L264.4,268.1z"/>
<path class="st0" d="M310.3,217.1c-1.4-5.2-3.3-10.8-8.6-15.4c-3.1-2.6-7.8-2.2-10.4,0.9c-0.2,0.3-0.5,0.6-0.6,0.9 c-3,4.9-8.7,11.9-19.1,19c-3.9,2.7-5.5,7.6-3.9,12.1c0.3,1,0.7,2,1.2,3.1c0.2,0.6,0.9,0.9,1.5,0.7c0.2-0.1,0.4-0.3,0.6-0.5 c0.8-1.3,1.8-2.5,2.9-3.4c3.1-2.6,7.8-2.2,10.4,0.9c0.7,0.8,1.2,1.8,1.5,2.8c0.4,1.5,0.5,3,0.4,4.6c-0.1,1.3-0.4,2.5-1,3.7 c-0.7,1.4-1.6,2.6-2.8,3.6c-1.3,1.2-2.2,2.7-2.5,4.4l-0.1,0.4c-0.3,1.7,0.1,3.4,1,4.7c0.4,0.5,0.7,1,1.1,1.5 c1.1,1.5,3.1,1.9,4.8,1.1c4.8-2.4,9.3-5.5,13.4-9.1C310,243.9,314,230.1,310.3,217.1z"/>
<g id="shomengiri">
	<path class="st4" d="M260.4,307.3c0,0-42.7,55.9-93.3,85.3l20.9,23.2l69.7-62.4L260.4,307.3z"/>
	<path class="st4" d="M250.3,336.6l-1.4,23l10.1-8.1l12.5-31.8c0.6-1.6-0.2-3.4-1.7-4c-1.1-0.5-2.5-0.2-3.3,0.7 C260.6,322.7,255.2,329.5,250.3,336.6z"/>
	<path class="st7" d="M150.3,396.5l16.7-13.9l44.9,55.6c3,3.7,2.5,9.1-1.1,12.2l-3.6,3.2c-3.6,3.2-9.1,2.8-12.3-0.8 C179,434.7,164.1,415.9,150.3,396.5z"/>
	<path class="st2" d="M189.2,404.4l-20.8,17.9c-3.3,3-3.7,8.1-0.8,11.6l7.3,8.9c3,3.6,8.3,4.1,11.9,1.2c0.1-0.1,0.1-0.1,0.2-0.2 l20.3-16.8L189.2,404.4z"/>
	<path class="st6" d="M189.2,404.4l-4.7,4c0.9,5.2,2.1,10.3,3.7,15.4c1.4,4.4,0,9.2-3.4,12.3l-8.8,7.9c3.2,2.6,7.8,2.6,10.9-0.2 l20.3-16.8L189.2,404.4z"/>
	<path class="st2" d="M170.2,420.8l-3.6,3.1c-2.4,2-6,1.8-8-0.6c0-0.1-0.1-0.1-0.1-0.2l-12.6-15.8c-1.9-2.4-1.6-5.9,0.8-7.9l3.6-3.1 c4-3.4,10.1-2.9,13.5,1.1c0.1,0.1,0.2,0.2,0.3,0.4l7.5,9.8C174.7,411.8,174.1,417.5,170.2,420.8z"/>
	<path class="st8" d="M172.2,378.1l-31.6,26.4c-2.6,2.2-6.6,1.9-8.8-0.7l-1.1-1.3c-2.3-2.6-2-6.6,0.6-8.9c0,0,0.1,0,0.1-0.1 l31.5-26.5c2.6-2.2,6.5-1.9,8.7,0.6l1.2,1.3c2.4,2.6,2.2,6.6-0.4,8.9C172.3,378,172.3,378,172.2,378.1z"/>
	<path class="st1" d="M154.8,373.9c0,0-74.2-91.5-126.4-207.9c-2,2-3.7,4.4-5,6.9c-5,9.7-5.1,21.2-0.2,30.9 c12.3,25,56.2,110.1,115.8,183.3L154.8,373.9z"/>
	<path class="st5" d="M31.1,193.8c0.6,4.1,1.9,8,3.8,11.7c10.8,20.7,63.4,118.1,112.2,174.9l7.8-6.5c0,0-69.3-85.5-121.1-196.3 C31.9,180.9,30.1,186.2,31.1,193.8z"/>
	<path class="st9" d="M160.2,388.1l12-10c2.7-2.2,3-6.2,0.8-8.9c-0.1-0.1-0.1-0.1-0.2-0.2l-1.2-1.3c-2.3-2.5-6.1-2.8-8.7-0.6 l-13.1,11l5.3-1.2c1.7-0.4,3.4,0.2,4.6,1.5l1.5,1.7c1.4,1.5,1.6,3.7,0.6,5.5L160.2,388.1z"/>
	<path class="st5" d="M148.7,366l-24,2.7c4.7,6.2,9.5,12.3,14.5,18.4l15.7-13.2C154.8,373.9,152.6,371.1,148.7,366z"/>
	<path class="st3" d="M292.4,294c5.4-3.2,12.4-1.4,15.6,4.1c1,1.8,1.6,3.7,1.6,5.8c0,6.9-1.2,16.8-5.2,30.2l-11,33 c-2.8,8.4-7.2,16.1-12.9,22.9c-11.1,13.2-29.7,38.3-55.6,60.7c-0.6,0.5-1.5,0.5-2-0.1c-4.5-4.5-23.5-23.9-33.6-46.2 c0,0,30.7-24.4,52-43.9c3.5-3.2,6.4-7,8.5-11.2C256.4,336.1,273.6,304.9,292.4,294z"/>
	<path class="st4" d="M209.1,388.2c-2.2,1.8-4.3,3.6-6.3,5.2c5.6,10,17.8,29.8,34.4,45.8c1.9-1.9,3.8-3.8,5.6-5.7 C226.4,417.6,214.2,397.3,209.1,388.2z"/>
	<path class="st6" d="M171.6,407.7l-3.3-4.3c0.2,2.9-0.7,5.8-2.6,8c-3,3.1-6.2,6-9.6,8.7l2.4,3c2,2.5,5.5,2.9,8,0.9 c0.1,0,0.1-0.1,0.2-0.1l3.6-3.1C174.1,417.5,174.7,411.8,171.6,407.7z"/>
</g>
<path class="st10" d="M260.8,200.7c-1.7,0-3-1.3-3-3c0-1.5,1.2-2.8,2.7-3l0.4,0c1.7-0.1,3.1,1.1,3.2,2.8c0.1,1.7-1.1,3.1-2.8,3.2 l-0.3,0C261,200.7,260.9,200.7,260.8,200.7z"/>
<path class="st10" d="M246.1,209.1c-1.7,0-3-1.3-3-3c0-0.6,0.2-1.2,0.6-1.7c1.7-2.2,3.8-3.9,6.2-5.2c1.5-0.8,3.3-0.2,4.1,1.2 s0.2,3.3-1.2,4.1c-1.6,0.8-3,2-4.2,3.4C248,208.6,247.1,209.1,246.1,209.1z"/>
<path class="st6" d="M272.9,247.6c0.1-2.6,0.7-6.9,3.3-10c1.1-1.3,2.9-1.6,4.4-0.8l0.1,0c0.3,0.2,0.6,0.4,0.8,0.6 c0.2,0.2,0.2,0.5,0,0.6c-0.1,0.1-0.3,0.2-0.4,0.1c-1.4-0.3-3.6-0.1-4.5,2.9c-0.1,0.5,0.1,1,0.6,1.1c0.1,0,0.1,0,0.2,0 c1.2,0,2.3,0.8,2.6,2c0.3,1.1,0.1,2.2-0.5,3.1c-0.6,0.9-1.3,1.8-2.2,2.4c-1.2,0.9-2.9,0.5-3.8-0.7 C273,248.7,272.8,248.2,272.9,247.6z"/>
</svg>