<?xml version="1.0" encoding="utf-8"?>
<!-- Primero descargo el SVG desde https://www.svgrepo.com/svg/400295/grineyes -->
<!-- Luego lo abro en Illustrator para crear un grupo de identidad "cejas" -->
<!-- Después creo una animación dentro del style, la que aplico a #cejas-->
<svg version="1.1" xmlns="http://www.w3.org/2000/svg" x="0px" y="0px" viewBox="0 0 512 512" style="enable-background:new 0 0 512 512;" xml:space="preserve">
<style type="text/css">
.st0{fill:#FFD469;}
.st1{fill:#FFB636;}
.st2{fill:#F2A74E;}
.st3{fill:#2B3B47;}
.st4{fill:#FFFFFF;}

g#cejas {
	animation: trecetrece .25s linear 0s infinite alternate;
}

@keyframes trecetrece {
	from {transform: translate(0,10px)}
	to {transform: translate(0,-10px)}
}
</style>
<path class="st0" d="M255.9,35.3C134,35.3,35.2,134.1,35.2,256c0,3.3,0.1,6.6,0.2,9.9c-12.8,1.7-22.8,12.6-22.8,25.9 c0,14.5,11.7,26.2,26.2,26.2H44c26.8,91.7,111.4,158.7,211.7,158.7c121.8,0,220.6-98.8,220.6-220.6 C476.5,134.1,377.7,35.3,255.9,35.3z"/>
<path class="st1" d="M476.2,265.8c0.1-3.3,0.2-6.6,0.2-9.9c0-58.9-23.1-112.5-60.8-152c21.3,34.5,33.6,75.2,33.6,118.8 c0,125.2-101.5,226.7-226.7,226.7c-43.6,0-84.2-12.3-118.8-33.6c39.6,37.7,93.1,60.8,152,60.8c100.3,0,185-67,211.7-158.7h5.2 c14.5,0,26.2-11.7,26.2-26.2C499,278.4,489.1,267.5,476.2,265.8L476.2,265.8z"/>
<g id="cejas">
	<path class="st2" d="M173.6,150.6c-19-12.8-44.8-9.6-60,7.5c-2.8,3.1-2.5,7.9,0.6,10.7c1.4,1.3,3.3,1.9,5,1.9 c2.1,0,4.2-0.9,5.7-2.6c10-11.2,27.6-13.5,40.1-5c3.5,2.4,8.2,1.4,10.6-2.1S177.1,153,173.6,150.6L173.6,150.6z"/>
	<path class="st2" d="M400.7,158.2c-15.2-17.1-41-20.3-60-7.5c-3.5,2.4-4.4,7.1-2.1,10.6c2.3,3.5,7.1,4.4,10.6,2.1 c12.5-8.4,30.1-6.2,40.1,5c1.5,1.7,3.6,2.6,5.7,2.6c1.8,0,3.6-0.6,5.1-1.9C403.2,166.1,403.5,161.3,400.7,158.2L400.7,158.2z"/>
</g>
<path class="st3" d="M180.2,221.2c-6.1-13.7-18.5-22.1-32.3-22.1c-13.9,0-26.3,8.5-32.3,22.1c-0.4,0.8-0.6,1.6-0.7,2.5 c-1.9,4-1,8.9,2.4,12c1.9,1.7,4.4,2.6,6.8,2.6c2.8,0,5.6-1.2,7.7-3.4c4.1-4.6,10-7.2,16.2-7.2s12.1,2.6,16.2,7.2 c3.7,4.2,10.2,4.6,14.4,0.9c3.5-3.1,4.3-8,2.4-12C180.8,222.8,180.6,222,180.2,221.2L180.2,221.2z"/>
<path class="st3" d="M399.4,223.6c-0.1-0.8-0.3-1.7-0.7-2.5c-6.1-13.7-18.5-22.1-32.3-22.1s-26.3,8.5-32.3,22.1 c-0.4,0.8-0.6,1.6-0.7,2.5c-1.9,4-1.1,8.9,2.4,12c1.9,1.7,4.4,2.6,6.8,2.6c2.8,0,5.6-1.2,7.7-3.4c4.1-4.6,10-7.2,16.2-7.2 s12.1,2.6,16.2,7.2c3.7,4.2,10.2,4.6,14.4,0.9C400.5,232.5,401.3,227.6,399.4,223.6z"/>
<path class="st3" d="M394,313.2c-0.3,0-0.6,0-0.8-0.1c0,0.1-8.6,0.2-22.8,0.2c-25.9,0.1-70.4,11.5-114.9,11.4 c-43,0-85.9-11.5-112.1-11.6h-25.5c-0.6,0-1.1,0.2-1.7,0.6c-1.6,1.1-1.9,3.4-0.9,5.1l2.5,3.8c5.8,8.7,11.5,16.2,17.3,22.5 c5.8,6.5,11.5,12,17.3,17.2c11.2,9.9,22.5,17.3,33.8,23.5c6.3-3.8,68.3,11.4,68.6,11.8c0.3-0.5,64.5-15.9,71.1-11.7 c11.2-6.2,22.4-13.6,33.7-23.5c5.8-5.2,11.5-10.7,17.2-17.3c5.8-6.3,11.5-13.8,17.3-22.6l2.5-3.9c0.3-0.5,0.5-1.1,0.6-1.8 C397.2,315.1,395.8,313.3,394,313.2L394,313.2z"/>
<path class="st4" d="M325.8,386c-6.7-4.2-133.5-4-139.7-0.2c0.2,0.1,0.5,0.3,0.7,0.4c3.1,1.6,6.3,2.9,9.4,4.3c0.1,0,0.1,0,0.2,0.1 c-0.1,0-0.1,0-0.2,0.1c19.6,8.7,39.1,12.8,58.7,13c0.3,0,0.6,0.1,0.9,0.1h0.2c0.3,0,0.6,0,0.9-0.1c19.5-0.1,39.1-4.2,58.7-13 c3.1-1.4,6.2-2.6,9.3-4.2C325.2,386.4,325.5,386.2,325.8,386L325.8,386z M315.4,390.6c0.1,0,0.1,0,0.2,0.1 C315.5,390.7,315.5,390.7,315.4,390.6z"/>
<path class="st4" d="M379,313.2c-45.6,0.2-188.6-0.1-241.4-0.1v0.8c-0.1,2.7,1.3,4.5,1.3,4.5c0.9,1.2,2,2.3,3.2,3.2 c4.9,3.7,60.4,14.6,115.6,14.6s114.7-10.7,120-17.8c0,0,1.3-1.8,1.3-4.5V313.2z"/>
</svg>