<?xml version="1.0" encoding="utf-8"?>
<!-- Primero descargo el SVG desde https://www.svgrepo.com/svg/404444/airplane-christmas-holiday-plane-snow-travel -->
<!-- Luego lo abro en Illustrator para crear un grupo de identidad "avion" -->
<!-- Después creo una animación dentro del style, la que aplico a #avion-->
<svg version="1.1" xmlns="http://www.w3.org/2000/svg" x="0px" y="0px" viewBox="0 0 60 60" style="enable-background:new 0 0 60 60;" xml:space="preserve">
<style type="text/css">
.st0{fill:#3D3D63;}

g#avion {
	animation: cualquiernombre 2s linear 0s infinite alternate;
}

@keyframes cualquiernombre {
	to  {transform: rotate(-2deg) scale(0.95); transform-origin:30px 30px}
	from  {transform: rotate(2deg) scale(1.05);transform-origin:30px 30px}
}
</style>
<g id="avion">
	<path class="st0" d="M54.3,25.8H41.9c-1.1-4-4.2-7.1-8.2-8.1l-0.2-2l3.2-0.6c0.8-0.2,1.5-0.7,1.9-1.4c0.6-1.2,0.1-2.6-1.1-3.1 c-0.3-0.2-0.7-0.2-1-0.2h-3.6v-0.1c-0.2-1.6-1.6-2.7-3.2-2.5c-1.3,0.2-2.4,1.2-2.5,2.5v0.1h-3.7c-1.3,0-2.3,1.1-2.3,2.3 c0,0.4,0.1,0.7,0.2,1c0.4,0.7,1.1,1.3,1.9,1.4l3.2,0.6l-0.2,2c-4,1.1-7.1,4.2-8.2,8.1H5.7c-1.3,0-2.4,1.1-2.3,2.4 c0,1.2,1,2.2,2.2,2.3l2.1,0.1c-0.3,0.5-0.4,1-0.4,1.5c0,1.8,1.5,3.3,3.3,3.3c1.8,0,3.3-1.5,3.3-3.3c0-0.4-0.1-0.8-0.2-1.1l4.1,0.2 C19,37.2,24.1,41.8,30,41.8s11-4.6,12.1-10.5l4.1-0.2c-0.1,0.4-0.2,0.8-0.2,1.2c0,1.8,1.5,3.3,3.3,3.3s3.3-1.5,3.3-3.3 c0-0.5-0.1-1.1-0.4-1.5l2.1-0.1c1.3-0.1,2.3-1.3,2.2-2.6C56.5,26.7,55.5,25.8,54.3,25.8L54.3,25.8z M10.6,33.5 c-0.7,0-1.3-0.6-1.3-1.3c0-0.7,0.6-1.3,1.3-1.3c0.7,0,1.3,0.6,1.3,1.3C12,32.9,11.4,33.5,10.6,33.5C10.7,33.5,10.7,33.5,10.6,33.5z M49.3,33.5c-0.7,0-1.3-0.6-1.3-1.3c0-0.7,0.6-1.3,1.3-1.3s1.3,0.6,1.3,1.3C50.7,32.9,50.1,33.5,49.3,33.5L49.3,33.5z M36.5,12.2 c0.1,0,0.2,0.1,0.3,0.2c0.1,0.1,0.1,0.2,0,0.3c-0.1,0.2-0.3,0.3-0.5,0.3l-3,0.6l-0.2-1.4H36.5z M23.7,13.1c-0.2,0-0.4-0.2-0.5-0.3 c-0.1-0.1-0.1-0.2,0-0.3c0.1-0.1,0.2-0.2,0.3-0.2h3.4l-0.2,1.4L23.7,13.1z M29.1,10.3c0.1-0.5,0.5-0.8,1-0.7 c0.4,0.1,0.7,0.4,0.7,0.7l0.9,6.9c-1.1-0.1-2.3-0.1-3.4,0L29.1,10.3z M5.7,28.5c-0.2,0-0.4-0.2-0.3-0.4c0-0.2,0.2-0.4,0.4-0.4h12 c0,0.3,0,0.7,0,1c0,0.2,0,0.3,0,0.5L5.7,28.5z M30,39.8c-5.5,0-10.3-5.1-10.3-11c0-5.5,4.4-9.7,10.3-9.7s10.3,4.1,10.3,9.7 C40.3,34.6,35.5,39.8,30,39.8z M54.3,28.5l-12,0.7c0-0.1,0-0.3,0-0.5c0-0.3,0-0.7,0-1h12c0.2,0,0.4,0.2,0.4,0.4l0,0 C54.7,28.3,54.5,28.5,54.3,28.5C54.3,28.5,54.3,28.5,54.3,28.5z"/>
	<path class="st0" d="M34.4,23.4h-8.8c-0.7,0-1.4,0.3-1.9,0.9c-0.7,0.9-1.2,1.9-1.5,3c-0.2,0.7,0,1.5,0.4,2.1 c0.5,0.6,1.2,0.9,1.9,0.9h11c0.7,0,1.5-0.3,1.9-0.9c0.5-0.6,0.6-1.4,0.4-2.1c-0.3-1.1-0.8-2.1-1.5-3C35.9,23.8,35.1,23.4,34.4,23.4 z M31.4,25.4v3h-2.8v-3H31.4z M24.2,28.3c-0.1-0.1-0.1-0.3-0.1-0.4c0.2-0.8,0.6-1.6,1.1-2.3c0.1-0.1,0.2-0.2,0.3-0.2h1v3h-2.1 C24.4,28.4,24.3,28.4,24.2,28.3L24.2,28.3z M35.8,28.3c-0.1,0.1-0.2,0.2-0.3,0.2h-2.1v-3h1c0.1,0,0.3,0.1,0.3,0.2 c0.5,0.7,0.9,1.4,1.2,2.3C35.9,28,35.9,28.2,35.8,28.3L35.8,28.3z"/>
</g>
<path id="nubeder" class="st0" d="M51.3,40.4c-3.8,0-7.3,2-9.3,5.2c-0.8-0.4-1.7-0.6-2.6-0.6c-3.1,0-5.8,2.3-6.2,5.3h-0.3 c-0.6,0-1,0.4-1,1s0.4,1,1,1H34c0.6,0,1-0.4,1-1c0-2.4,2-4.3,4.4-4.3c0.9,0,1.7,0.3,2.4,0.8l0,0c0.5,0.4,1,0.8,1.3,1.4 c0.2,0.3,0.5,0.5,0.9,0.5c0.2,0,0.3-0.1,0.5-0.1c0.5-0.3,0.6-0.9,0.4-1.4c-0.3-0.5-0.7-1-1.2-1.5c1.6-2.7,4.5-4.4,7.7-4.4 c0.6,0,1-0.4,1-1S51.9,40.4,51.3,40.4z"/>
<path id="nubeizq" class="st0" d="M28.7,50.4h-1.8c-0.5-3.1-3.1-5.3-6.2-5.3c-0.9,0-1.8,0.2-2.6,0.6c-2-3.3-5.5-5.3-9.4-5.2 c-0.6,0-1,0.4-1,1s0.4,1,1,1c3.2,0,6.1,1.7,7.7,4.4c-0.5,0.4-0.9,0.9-1.2,1.5c-0.3,0.5-0.1,1.1,0.4,1.4c0.2,0.1,0.3,0.1,0.5,0.1 c0.4,0,0.7-0.2,0.9-0.5c0.3-0.6,0.8-1,1.3-1.4l0,0c2-1.4,4.7-0.8,6,1.1c0.3,0.4,0.5,0.9,0.6,1.4h-0.2c-0.6,0-1,0.4-1,1s0.4,1,1,1h4 c0.6,0,1-0.4,1-1S29.2,50.4,28.7,50.4z"/>
</svg>