<?xml version="1.0" encoding="utf-8"?>
<!-- Generator: Adobe Illustrator 22.0.1, SVG Export Plug-In . SVG Version: 6.00 Build 0)  -->
<svg version="1.1" id="Capa_1" xmlns="http://www.w3.org/2000/svg" xmlns:xlink="http://www.w3.org/1999/xlink" x="0px" y="0px"
	 viewBox="0 0 80 56.2" style="enable-background:new 0 0 80 56.2;" xml:space="preserve">
<path d="M4,2.1c-0.6,0-1,0.4-1,1s0.4,1,1,1s1-0.4,1-1S4.6,2.1,4,2.1z M8,2.1c-0.6,0-1,0.4-1,1s0.4,1,1,1s1-0.4,1-1S8.6,2.1,8,2.1z
	 M12,2.1c-0.6,0-1,0.4-1,1s0.4,1,1,1h3c1.1,0,2,0.9,2,2v3c0,1.1-0.9,2-2,2c-0.6,0-1,0.5-1,1c0,0.5,0.4,1,1,1c1.1,0,2,0.9,2,2v14.1
	c-1.7,0.4-3,2-3,3.9v3h-2c-0.6,0-1,0.4-1,1c0,0.6,0.4,1,1,1c0,0,0,0,0,0h3c0.6,0,1-0.4,1-1v-4c0-1.1,0.9-2,2-2s2,0.9,2,2v8
	c0,1.1-0.9,2-2,2h-2h-4c-0.6,0-1,0.4-1,1c0,0.5,0.4,1,0.9,1c0,0,0,0,0.1,0h3.3l1.5,5.1l0.3-0.4c-0.2,0.3-0.3,0.6-0.1,0.9
	c0,0.1,0.1,0.2,0.1,0.3c0,0.6-0.4,1-1,1h-4c-0.6,0-1,0.4-1,1c0,0.6,0.4,1,1,1c0,0,0,0,0,0h4c1.6,0,3-1.4,3-3c0-0.2-0.1-0.4-0.1-0.6
	c0-0.1,0-0.2,0-0.3l-1.5-5H18c2.2,0,4-1.8,4-4v-8c0-1.9-1.3-3.4-3-3.9V15.1c0-1.2-0.6-2.3-1.4-3c0.9-0.7,1.4-1.8,1.4-3v-3
	c0-2.2-1.8-4-4-4H12z M31,2.1c-2.2,0-4,1.8-4,4v3c0,1.2,0.6,2.3,1.4,3c-0.9,0.7-1.4,1.8-1.4,3v14.1c-1.7,0.4-3,2-3,3.9v8
	c0,2.2,1.8,4,4,4h0.7l-1.5,5c0,0.1,0,0.2,0,0.3c0,0.2-0.1,0.4-0.1,0.6c0,1.6,1.4,3,3,3h20c1.6,0,3-1.4,3-3c0-0.2,0-0.4-0.1-0.6
	c0-0.1,0-0.2,0-0.3l-1.5-5.1H52c2.2,0,4-1.8,4-4v-8c0-1.9-1.3-3.4-3-3.9V15.1c0-1.2-0.6-2.3-1.4-3c0.9-0.7,1.4-1.8,1.4-3v-3
	c0-2.2-1.8-4-4-4H31z M72,3.1c-0.8,0-1.5,0.3-2.2,0.6c-0.2,0-0.4,0.1-0.6,0.2l-3,2c0,0,0,0,0,0l0,0c0,0,0,0-0.1,0.1c0,0,0,0,0,0
	L66.2,6l0,0c-0.1,0.1-0.2,0.2-0.3,0.4l0,0C64.7,7.3,64,8.6,64,10.1v12c0,1.5,0.7,2.7,1.7,3.7l0,0c0.1,0.1,0.2,0.3,0.3,0.4l0.1,0.1
	c0,0,0.1,0.1,0.1,0.1l2.9,1.9c0,0,0.1,0,0.1,0.1l0,0c0.2,0.1,0.4,0.2,0.6,0.2c0.7,0.3,1.3,0.6,2.1,0.6c2.7,0,5-2.3,5-5v-16
	C77,5.4,74.7,3.1,72,3.1z M31,4.1h18c1.1,0,2,0.9,2,2v3c0,1.1-0.9,2-2,2c-0.6,0-1,0.5-1,1c0,0.5,0.4,1,1,1c1.1,0,2,0.9,2,2v14.1
	c-1.7,0.4-3,2-3,3.9v3H32v-3c0-1.9-1.3-3.4-3-3.9V15.1c0-1.1,0.9-2,2-2c0.6,0,1-0.5,1-1c0-0.5-0.4-1-1-1c-1.1,0-2-0.9-2-2v-3
	C29,5,29.9,4.1,31,4.1z M72,5.1c1.7,0,3,1.3,3,3v16c0,1.7-1.3,3-3,3c-0.6,0-1.1-0.2-1.6-0.5c0,0,0,0,0,0c0,0,0,0,0,0c0,0,0,0,0,0
	c-0.3-0.2-0.7-0.2-1,0l0.5-0.3l-2.5-1.7l0.1,0.2c-0.1-0.1-0.1-0.2-0.2-0.3c0,0,0,0,0,0c0,0,0,0,0,0l0,0c0,0-0.1,0-0.1-0.1
	C66.5,24,66,23.1,66,22.1v-12c0-1,0.5-1.9,1.3-2.4c0,0,0,0,0.1,0l0.1-0.1l-0.1,0.1c0,0,0,0,0,0c0.1-0.1,0.1-0.1,0.2-0.2l-0.1,0.2
	l2.4-1.6l-0.5-0.3c0.3,0.2,0.7,0.2,1,0C70.8,5.3,71.4,5.1,72,5.1z M4,11.1c-0.6,0-1,0.4-1,1s0.4,1,1,1s1-0.4,1-1S4.6,11.1,4,11.1z
	 M8,11.1c-0.6,0-1,0.4-1,1s0.4,1,1,1s1-0.4,1-1S8.6,11.1,8,11.1z M12,11.1c-0.6,0-1,0.4-1,1s0.4,1,1,1s1-0.4,1-1S12.6,11.1,12,11.1z
	 M34,11.1c-0.6,0-1,0.4-1,1s0.4,1,1,1s1-0.4,1-1S34.6,11.1,34,11.1z M38,11.1c-0.6,0-1,0.4-1,1s0.4,1,1,1s1-0.4,1-1
	S38.6,11.1,38,11.1z M42,11.1c-0.6,0-1,0.4-1,1s0.4,1,1,1s1-0.4,1-1S42.6,11.1,42,11.1z M46,11.1c-0.6,0-1,0.4-1,1s0.4,1,1,1
	s1-0.4,1-1S46.6,11.1,46,11.1z M28,31.1c1.1,0,2,0.9,2,2v4c0,0.6,0.4,1,1,1h18c0.6,0,1-0.4,1-1v-4c0-1.1,0.9-2,2-2s2,0.9,2,2v8
	c0,1.1-0.9,2-2,2h-2H30h-2c-1.1,0-2-0.9-2-2v-8C26,32,26.9,31.1,28,31.1z M4,36.1c-0.6,0-1,0.4-1,1s0.4,1,1,1s1-0.4,1-1
	S4.6,36.1,4,36.1z M8,36.1c-0.6,0-1,0.4-1,1s0.4,1,1,1s1-0.4,1-1S8.6,36.1,8,36.1z M4,43.1c-0.6,0-1,0.4-1,1s0.4,1,1,1s1-0.4,1-1
	S4.6,43.1,4,43.1z M8,43.1c-0.6,0-1,0.4-1,1s0.4,1,1,1s1-0.4,1-1S8.6,43.1,8,43.1z M60,44.1c-0.6,0-1,0.4-1,1s0.4,1,1,1s1-0.4,1-1
	S60.6,44.1,60,44.1z M30.7,45.1h18.5l1.6,5.2l0.3-0.4c-0.2,0.3-0.3,0.6-0.2,0.9C51,51,51,51,51,51.1c0,0.6-0.4,1-1,1H30
	c-0.6,0-1-0.4-1-1c0-0.1,0-0.2,0.1-0.3c0.1-0.3,0.1-0.7-0.1-0.9l0.3,0.4L30.7,45.1z M64,46.1c-0.6,0-1,0.4-1,1s0.4,1,1,1s1-0.4,1-1
	S64.6,46.1,64,46.1z M68,48.1c-0.6,0-1,0.4-1,1s0.4,1,1,1s1-0.4,1-1S68.6,48.1,68,48.1z M72,50.1c-0.6,0-1,0.4-1,1s0.4,1,1,1
	s1-0.4,1-1S72.6,50.1,72,50.1z M4,52.1c-0.6,0-1,0.4-1,1s0.4,1,1,1s1-0.4,1-1S4.6,52.1,4,52.1z M8,52.1c-0.6,0-1,0.4-1,1s0.4,1,1,1
	s1-0.4,1-1S8.6,52.1,8,52.1z M76,52.1c-0.6,0-1,0.4-1,1s0.4,1,1,1s1-0.4,1-1S76.6,52.1,76,52.1z" fill="silver"/>
</svg>
