<svg xmlns="http://www.w3.org/2000/svg" viewBox="0 0 800 600"><rect width="800" height="600" x="0" y="0" fill="#FFFFFF" id="backgorund"/><g id="viz"><g transform="translate(0,0)"><g id="pie" transform="translate(66.66666666666667,71.5)"><path fill="#2ca02c" stroke="#FFFFFF" d="M5.675253297927448e-16,-9.268391999846454A9.268391999846454,9.268391999846454,0,0,1,5.817699424077437,-7.215085839676948L0,0Z"/><path fill="#4a90e2" stroke="#FFFFFF" d="M5.817699424077437,-7.215085839676948A9.268391999846454,9.268391999846454,0,0,1,5.952644511810761,7.1041617083810085L0,0Z"/><path fill="#f5a623" stroke="#FFFFFF" d="M5.952644511810761,7.1041617083810085A9.268391999846454,9.268391999846454,0,1,1,-1.7025759893782343e-15,-9.268391999846454L0,0Z"/></g><text y="58.23160800015354" x="66.66666666666667" style="font-family: Arial, sans-serif; font-size: 12px; fill: black; font-weight: bold; dominant-baseline: auto; text-anchor: middle;">Argentina</text></g><g transform="translate(133.33333333333331,0)"><g id="pie" transform="translate(66.66666666666667,71.5)"><path fill="#2ca02c" stroke="#FFFFFF" d="M6.605726221704472e-16,-10.787969602833464A10.787969602833464,10.787969602833464,0,0,1,2.417050443634161,-10.51371272693841L0,0Z"/><path fill="#4a90e2" stroke="#FFFFFF" d="M2.417050443634161,-10.51371272693841A10.787969602833464,10.787969602833464,0,0,1,10.470426596742902,2.5981637811881018L0,0Z"/><path fill="#f5a623" stroke="#FFFFFF" d="M10.470426596742902,2.5981637811881018A10.787969602833464,10.787969602833464,0,1,1,-1.9817178665113417e-15,-10.787969602833464L0,0Z"/></g><text y="56.71203039716654" x="66.66666666666667" style="font-family: Arial, sans-serif; font-size: 12px; fill: black; font-weight: bold; dominant-baseline: auto; text-anchor: middle;">Australia</text></g><g transform="translate(266.66666666666663,0)"><g id="pie" transform="translate(66.66666666666667,71.5)"><path fill="#2ca02c" stroke="#FFFFFF" d="M1.0651340025551038e-15,-17.394958338954407A17.394958338954407,17.394958338954407,0,0,1,7.008540663735775,-15.920582067836639L0,0Z"/><path fill="#4a90e2" stroke="#FFFFFF" d="M7.008540663735775,-15.920582067836639A17.394958338954407,17.394958338954407,0,0,1,17.21363535631732,2.5050615628566466L0,0Z"/><path fill="#f5a623" stroke="#FFFFFF" d="M17.21363535631732,2.5050615628566466A17.394958338954407,17.394958338954407,0,1,1,-3.1954020076653108e-15,-17.394958338954407L0,0Z"/></g><text y="50.10504166104559" x="66.66666666666667" style="font-family: Arial, sans-serif; font-size: 12px; fill: black; font-weight: bold; dominant-baseline: auto; text-anchor: middle;">Brazil</text></g><g transform="translate(400,0)"><g id="pie" transform="translate(66.66666666666667,71.5)"><path fill="#2ca02c" stroke="#FFFFFF" d="M7.871781785514246e-16,-12.855595247535677A12.855595247535677,12.855595247535677,0,0,1,1.290209584475809,-12.79068756543559L0,0Z"/><path fill="#4a90e2" stroke="#FFFFFF" d="M1.290209584475809,-12.79068756543559A12.855595247535677,12.855595247535677,0,0,1,12.275352103485261,3.8186463444422096L0,0Z"/><path fill="#f5a623" stroke="#FFFFFF" d="M12.275352103485261,3.8186463444422096A12.855595247535677,12.855595247535677,0,1,1,-2.3615345356542737e-15,-12.855595247535677L0,0Z"/></g><text y="54.644404752464325" x="66.66666666666667" style="font-family: Arial, sans-serif; font-size: 12px; fill: black; font-weight: bold; dominant-baseline: auto; text-anchor: middle;">Canada</text></g><g transform="translate(533.3333333333333,0)"><g id="pie" transform="translate(66.66666666666667,71.5)"><path fill="#2ca02c" stroke="#FFFFFF" d="M2.847303808017596e-15,-46.5A46.5,46.5,0,0,1,22.145076470559168,-40.88820842386087L0,0Z"/><path fill="#4a90e2" stroke="#FFFFFF" d="M22.145076470559168,-40.88820842386087A46.5,46.5,0,0,1,4.666819740581493,46.26522228963046L0,0Z"/><path fill="#f5a623" stroke="#FFFFFF" d="M4.666819740581493,46.26522228963046A46.5,46.5,0,1,1,-8.541911424052788e-15,-46.5L0,0Z"/></g><text y="21" x="66.66666666666667" style="font-family: Arial, sans-serif; font-size: 12px; fill: black; font-weight: bold; dominant-baseline: auto; text-anchor: middle;">China</text></g><g transform="translate(666.6666666666667,0)"><g id="pie" transform="translate(66.66666666666667,71.5)"><path fill="#2ca02c" stroke="#FFFFFF" d="M6.484992560158403e-16,-10.590796570363809A10.590796570363809,10.590796570363809,0,0,1,7.1030945037775695,-7.855636222817011L0,0Z"/><path fill="#4a90e2" stroke="#FFFFFF" d="M7.1030945037775695,-7.855636222817011A10.590796570363809,10.590796570363809,0,0,1,2.633824004069706,10.258067220993242L0,0Z"/><path fill="#f5a623" stroke="#FFFFFF" d="M2.633824004069706,10.258067220993242A10.590796570363809,10.590796570363809,0,1,1,-1.9454977680475205e-15,-10.590796570363809L0,0Z"/></g><text y="56.90920342963619" x="66.66666666666667" style="font-family: Arial, sans-serif; font-size: 12px; fill: black; font-weight: bold; dominant-baseline: auto; text-anchor: middle;">Egypt</text></g><g transform="translate(0,120)"><g id="pie" transform="translate(66.66666666666667,71.5)"><path fill="#2ca02c" stroke="#FFFFFF" d="M2.666086140313525e-15,-43.54049089369699A43.54049089369699,43.54049089369699,0,0,1,4.476876689540084,-43.30972087615854L0,0Z"/><path fill="#4a90e2" stroke="#FFFFFF" d="M4.476876689540084,-43.30972087615854A43.54049089369699,43.54049089369699,0,0,1,43.06407580773371,6.4233731084123535L0,0Z"/><path fill="#f5a623" stroke="#FFFFFF" d="M43.06407580773371,6.4233731084123535A43.54049089369699,43.54049089369699,0,1,1,-4.666998281587206e-14,-43.54049089369699L0,0Z"/></g><text y="23.95950910630301" x="66.66666666666667" style="font-family: Arial, sans-serif; font-size: 12px; fill: black; font-weight: bold; dominant-baseline: auto; text-anchor: middle;">European Union</text></g><g transform="translate(133.33333333333331,120)"><g id="pie" transform="translate(66.66666666666667,71.5)"><path fill="#2ca02c" stroke="#FFFFFF" d="M9.98792655757801e-16,-16.311521925394317A16.311521925394317,16.311521925394317,0,0,1,1.7389901804524994,-16.218559142997545L0,0Z"/><path fill="#4a90e2" stroke="#FFFFFF" d="M1.7389901804524994,-16.218559142997545A16.311521925394317,16.311521925394317,0,0,1,15.848792314846579,-3.857658575286251L0,0Z"/><path fill="#f5a623" stroke="#FFFFFF" d="M15.848792314846579,-3.857658575286251A16.311521925394317,16.311521925394317,0,1,1,-2.9963779672734032e-15,-16.311521925394317L0,0Z"/></g><text y="51.18847807460568" x="66.66666666666667" style="font-family: Arial, sans-serif; font-size: 12px; fill: black; font-weight: bold; dominant-baseline: auto; text-anchor: middle;">France</text></g><g transform="translate(266.66666666666663,120)"><g id="pie" transform="translate(66.66666666666667,71.5)"><path fill="#2ca02c" stroke="#FFFFFF" d="M1.2110698045022193e-15,-19.778270850753266A19.778270850753266,19.778270850753266,0,0,1,0.869613352888698,-19.759143970886846L0,0Z"/><path fill="#4a90e2" stroke="#FFFFFF" d="M0.869613352888698,-19.759143970886846A19.778270850753266,19.778270850753266,0,0,1,18.20059472269122,7.7406943865586575L0,0Z"/><path fill="#f5a623" stroke="#FFFFFF" d="M18.20059472269122,7.7406943865586575A19.778270850753266,19.778270850753266,0,1,1,-3.633209413506658e-15,-19.778270850753266L0,0Z"/></g><text y="47.721729149246734" x="66.66666666666667" style="font-family: Arial, sans-serif; font-size: 12px; fill: black; font-weight: bold; dominant-baseline: auto; text-anchor: middle;">Germany</text></g><g transform="translate(400,120)"><g id="pie" transform="translate(66.66666666666667,71.5)"><path fill="#2ca02c" stroke="#FFFFFF" d="M1.818216828373918e-15,-29.6937342201822A29.6937342201822,29.6937342201822,0,0,1,24.47006167206089,-16.820640109828044L0,0Z"/><path fill="#4a90e2" stroke="#FFFFFF" d="M24.47006167206089,-16.820640109828044A29.6937342201822,29.6937342201822,0,0,1,19.722826532584783,22.1974765571312L0,0Z"/><path fill="#f5a623" stroke="#FFFFFF" d="M19.722826532584783,22.1974765571312A29.6937342201822,29.6937342201822,0,1,1,-5.454650485121754e-15,-29.6937342201822L0,0Z"/></g><text y="37.8062657798178" x="66.66666666666667" style="font-family: Arial, sans-serif; font-size: 12px; fill: black; font-weight: bold; dominant-baseline: auto; text-anchor: middle;">India</text></g><g transform="translate(533.3333333333333,120)"><g id="pie" transform="translate(66.66666666666667,71.5)"><path fill="#2ca02c" stroke="#FFFFFF" d="M1.0659944852611275e-15,-17.409011087985768A17.409011087985768,17.409011087985768,0,0,1,13.192567741540163,-11.359129519751294L0,0Z"/><path fill="#4a90e2" stroke="#FFFFFF" d="M13.192567741540163,-11.359129519751294A17.409011087985768,17.409011087985768,0,0,1,-5.00943626845997,16.672708698164474L0,0Z"/><path fill="#f5a623" stroke="#FFFFFF" d="M-5.00943626845997,16.672708698164474A17.409011087985768,17.409011087985768,0,0,1,-3.1979834557833824e-15,-17.409011087985768L0,0Z"/></g><text y="50.09098891201423" x="66.66666666666667" style="font-family: Arial, sans-serif; font-size: 12px; fill: black; font-weight: bold; dominant-baseline: auto; text-anchor: middle;">Indonesia</text></g><g transform="translate(666.6666666666667,120)"><g id="pie" transform="translate(66.66666666666667,71.5)"><path fill="#2ca02c" stroke="#FFFFFF" d="M7.564860204607133e-16,-12.354354267490159A12.354354267490159,12.354354267490159,0,0,1,7.014383368680338,-10.169980104397105L0,0Z"/><path fill="#4a90e2" stroke="#FFFFFF" d="M7.014383368680338,-10.169980104397105A12.354354267490159,12.354354267490159,0,0,1,3.858327155960008,11.73641260880998L0,0Z"/><path fill="#f5a623" stroke="#FFFFFF" d="M3.858327155960008,11.73641260880998A12.354354267490159,12.354354267490159,0,1,1,-2.26945806138214e-15,-12.354354267490159L0,0Z"/></g><text y="55.14564573250984" x="66.66666666666667" style="font-family: Arial, sans-serif; font-size: 12px; fill: black; font-weight: bold; dominant-baseline: auto; text-anchor: middle;">Iran</text></g><g transform="translate(0,240)"><g id="pie" transform="translate(66.66666666666667,71.5)"><path fill="#2ca02c" stroke="#FFFFFF" d="M8.991703956697923e-16,-14.684566950990762A14.684566950990762,14.684566950990762,0,0,1,1.9338882860367808,-14.55666797846471L0,0Z"/><path fill="#4a90e2" stroke="#FFFFFF" d="M1.9338882860367808,-14.55666797846471A14.684566950990762,14.684566950990762,0,0,1,14.654062920746712,0.9460160954901558L0,0Z"/><path fill="#f5a623" stroke="#FFFFFF" d="M14.654062920746712,0.9460160954901558A14.684566950990762,14.684566950990762,0,1,1,-2.6975111870093764e-15,-14.684566950990762L0,0Z"/></g><text y="52.815433049009236" x="66.66666666666667" style="font-family: Arial, sans-serif; font-size: 12px; fill: black; font-weight: bold; dominant-baseline: auto; text-anchor: middle;">Italy</text></g><g transform="translate(133.33333333333331,240)"><g id="pie" transform="translate(66.66666666666667,71.5)"><path fill="#2ca02c" stroke="#FFFFFF" d="M1.3781552694672532e-15,-22.506983571537173A22.506983571537173,22.506983571537173,0,0,1,1.5558862710108787,-22.453140702385582L0,0Z"/><path fill="#4a90e2" stroke="#FFFFFF" d="M1.5558862710108787,-22.453140702385582A22.506983571537173,22.506983571537173,0,0,1,20.803884166422485,8.588522170869679L0,0Z"/><path fill="#f5a623" stroke="#FFFFFF" d="M20.803884166422485,8.588522170869679A22.506983571537173,22.506983571537173,0,1,1,-2.4124682909186325e-14,-22.506983571537173L0,0Z"/></g><text y="44.99301642846282" x="66.66666666666667" style="font-family: Arial, sans-serif; font-size: 12px; fill: black; font-weight: bold; dominant-baseline: auto; text-anchor: middle;">Japan</text></g><g transform="translate(266.66666666666663,240)"><g id="pie" transform="translate(66.66666666666667,71.5)"><path fill="#2ca02c" stroke="#FFFFFF" d="M8.42255229461685e-16,-13.755071748819267A13.755071748819267,13.755071748819267,0,0,1,1.8990892665304235,-13.62334242294874L0,0Z"/><path fill="#4a90e2" stroke="#FFFFFF" d="M1.8990892665304235,-13.62334242294874A13.755071748819267,13.755071748819267,0,0,1,6.939938279575697,11.875994926356523L0,0Z"/><path fill="#f5a623" stroke="#FFFFFF" d="M6.939938279575697,11.875994926356523A13.755071748819267,13.755071748819267,0,1,1,-2.5267656883850552e-15,-13.755071748819267L0,0Z"/></g><text y="53.74492825118073" x="66.66666666666667" style="font-family: Arial, sans-serif; font-size: 12px; fill: black; font-weight: bold; dominant-baseline: auto; text-anchor: middle;">Korea, South</text></g><g transform="translate(400,240)"><g id="pie" transform="translate(66.66666666666667,71.5)"><path fill="#2ca02c" stroke="#FFFFFF" d="M5.709615616953578e-16,-9.324509925521113A9.324509925521113,9.324509925521113,0,0,1,4.896974681320273,-7.935119679100622L0,0Z"/><path fill="#4a90e2" stroke="#FFFFFF" d="M4.896974681320273,-7.935119679100622A9.324509925521113,9.324509925521113,0,0,1,2.091227171600415,9.086982682271485L0,0Z"/><path fill="#f5a623" stroke="#FFFFFF" d="M2.091227171600415,9.086982682271485A9.324509925521113,9.324509925521113,0,1,1,-1.7128846850860733e-15,-9.324509925521113L0,0Z"/></g><text y="58.17549007447889" x="66.66666666666667" style="font-family: Arial, sans-serif; font-size: 12px; fill: black; font-weight: bold; dominant-baseline: auto; text-anchor: middle;">Malaysia</text></g><g transform="translate(533.3333333333333,240)"><g id="pie" transform="translate(66.66666666666667,71.5)"><path fill="#2ca02c" stroke="#FFFFFF" d="M9.275310236887681e-16,-15.147731155375595A15.147731155375595,15.147731155375595,0,0,1,3.3971931928727335,-14.761871072659984L0,0Z"/><path fill="#4a90e2" stroke="#FFFFFF" d="M3.3971931928727335,-14.761871072659984A15.147731155375595,15.147731155375595,0,0,1,11.969055698539432,9.284151271968657L0,0Z"/><path fill="#f5a623" stroke="#FFFFFF" d="M11.969055698539432,9.284151271968657A15.147731155375595,15.147731155375595,0,1,1,-2.782593071066304e-15,-15.147731155375595L0,0Z"/></g><text y="52.352268844624405" x="66.66666666666667" style="font-family: Arial, sans-serif; font-size: 12px; fill: black; font-weight: bold; dominant-baseline: auto; text-anchor: middle;">Mexico</text></g><g transform="translate(666.6666666666667,240)"><g id="pie" transform="translate(66.66666666666667,71.5)"><path fill="#2ca02c" stroke="#FFFFFF" d="M5.381737131395292e-16,-8.789043722879555A8.789043722879555,8.789043722879555,0,0,1,0.9829415093326968,-8.733906087880683L0,0Z"/><path fill="#4a90e2" stroke="#FFFFFF" d="M0.9829415093326968,-8.733906087880683A8.789043722879555,8.789043722879555,0,0,1,8.605212265884344,-1.788186629455144L0,0Z"/><path fill="#f5a623" stroke="#FFFFFF" d="M8.605212265884344,-1.788186629455144A8.789043722879555,8.789043722879555,0,1,1,-1.6145211394185875e-15,-8.789043722879555L0,0Z"/></g><text y="58.710956277120445" x="66.66666666666667" style="font-family: Arial, sans-serif; font-size: 12px; fill: black; font-weight: bold; dominant-baseline: auto; text-anchor: middle;">Netherlands</text></g><g transform="translate(0,360)"><g id="pie" transform="translate(66.66666666666667,71.5)"><path fill="#2ca02c" stroke="#FFFFFF" d="M6.257473873785377e-16,-10.219230357915563A10.219230357915563,10.219230357915563,0,0,1,9.913947165872992,-2.4791774241513904L0,0Z"/><path fill="#4a90e2" stroke="#FFFFFF" d="M9.913947165872992,-2.4791774241513904A10.219230357915563,10.219230357915563,0,0,1,3.9995376574314694,9.404061230922023L0,0Z"/><path fill="#f5a623" stroke="#FFFFFF" d="M3.9995376574314694,9.404061230922023A10.219230357915563,10.219230357915563,0,1,1,-1.877242162135613e-15,-10.219230357915563L0,0Z"/></g><text y="57.28076964208444" x="66.66666666666667" style="font-family: Arial, sans-serif; font-size: 12px; fill: black; font-weight: bold; dominant-baseline: auto; text-anchor: middle;">Nigeria</text></g><g transform="translate(133.33333333333331,360)"><g id="pie" transform="translate(66.66666666666667,71.5)"><path fill="#2ca02c" stroke="#FFFFFF" d="M6.087709647937076e-16,-9.94198433732171A9.94198433732171,9.94198433732171,0,0,1,9.934920285443209,-0.37471520577528433L0,0Z"/><path fill="#4a90e2" stroke="#FFFFFF" d="M9.934920285443209,-0.37471520577528433A9.94198433732171,9.94198433732171,0,0,1,3.948438108291348,9.124302114054688L0,0Z"/><path fill="#f5a623" stroke="#FFFFFF" d="M3.948438108291348,9.124302114054688A9.94198433732171,9.94198433732171,0,1,1,-1.8263128943811226e-15,-9.94198433732171L0,0Z"/></g><text y="57.55801566267829" x="66.66666666666667" style="font-family: Arial, sans-serif; font-size: 12px; fill: black; font-weight: bold; dominant-baseline: auto; text-anchor: middle;">Pakistan</text></g><g transform="translate(266.66666666666663,360)"><g id="pie" transform="translate(66.66666666666667,71.5)"><path fill="#2ca02c" stroke="#FFFFFF" d="M5.5353559103158485e-16,-9.039922227649276A9.039922227649276,9.039922227649276,0,0,1,5.128056517362376,-7.444677980724533L0,0Z"/><path fill="#4a90e2" stroke="#FFFFFF" d="M5.128056517362376,-7.444677980724533A9.039922227649276,9.039922227649276,0,0,1,5.221233463215829,7.379628378485105L0,0Z"/><path fill="#f5a623" stroke="#FFFFFF" d="M5.221233463215829,7.379628378485105A9.039922227649276,9.039922227649276,0,1,1,-1.6606067730947544e-15,-9.039922227649276L0,0Z"/></g><text y="58.46007777235072" x="66.66666666666667" style="font-family: Arial, sans-serif; font-size: 12px; fill: black; font-weight: bold; dominant-baseline: auto; text-anchor: middle;">Philippines</text></g><g transform="translate(400,360)"><g id="pie" transform="translate(66.66666666666667,71.5)"><path fill="#2ca02c" stroke="#FFFFFF" d="M6.271413463066623e-16,-10.24199543481929A10.24199543481929,10.24199543481929,0,0,1,1.5386097979678321,-10.125766656231841L0,0Z"/><path fill="#4a90e2" stroke="#FFFFFF" d="M1.5386097979678321,-10.125766656231841A10.24199543481929,10.24199543481929,0,0,1,4.592338852243701,9.154719785609615L0,0Z"/><path fill="#f5a623" stroke="#FFFFFF" d="M4.592338852243701,9.154719785609615A10.24199543481929,10.24199543481929,0,1,1,-1.881424038919987e-15,-10.24199543481929L0,0Z"/></g><text y="57.25800456518071" x="66.66666666666667" style="font-family: Arial, sans-serif; font-size: 12px; fill: black; font-weight: bold; dominant-baseline: auto; text-anchor: middle;">Poland</text></g><g transform="translate(533.3333333333333,360)"><g id="pie" transform="translate(66.66666666666667,71.5)"><path fill="#2ca02c" stroke="#FFFFFF" d="M1.1808270220431155e-15,-19.284368731707023A19.284368731707023,19.284368731707023,0,0,1,5.645327200248917,-18.439554175265986L0,0Z"/><path fill="#4a90e2" stroke="#FFFFFF" d="M5.645327200248917,-18.439554175265986A19.284368731707023,19.284368731707023,0,0,1,13.786112419623166,13.484434794753225L0,0Z"/><path fill="#f5a623" stroke="#FFFFFF" d="M13.786112419623166,13.484434794753225A19.284368731707023,19.284368731707023,0,1,1,-3.542481066129346e-15,-19.284368731707023L0,0Z"/></g><text y="48.21563126829298" x="66.66666666666667" style="font-family: Arial, sans-serif; font-size: 12px; fill: black; font-weight: bold; dominant-baseline: auto; text-anchor: middle;">Russia</text></g><g transform="translate(666.6666666666667,360)"><g id="pie" transform="translate(66.66666666666667,71.5)"><path fill="#2ca02c" stroke="#FFFFFF" d="M7.874000126205181e-16,-12.859218072814736A12.859218072814736,12.859218072814736,0,0,1,2.0913867739854046,-12.688009725950089L0,0Z"/><path fill="#4a90e2" stroke="#FFFFFF" d="M2.0913867739854046,-12.688009725950089A12.859218072814736,12.859218072814736,0,0,1,2.568114190752341,12.600169798358337L0,0Z"/><path fill="#f5a623" stroke="#FFFFFF" d="M2.568114190752341,12.600169798358337A12.859218072814736,12.859218072814736,0,1,1,-2.3622000378615543e-15,-12.859218072814736L0,0Z"/></g><text y="54.640781927185266" x="66.66666666666667" style="font-family: Arial, sans-serif; font-size: 12px; fill: black; font-weight: bold; dominant-baseline: auto; text-anchor: middle;">Saudi Arabia</text></g><g transform="translate(0,480)"><g id="pie" transform="translate(66.66666666666667,71.5)"><path fill="#2ca02c" stroke="#FFFFFF" d="M7.880651401607307e-16,-12.87008042987435A12.87008042987435,12.87008042987435,0,0,1,2.0931533969449148,-12.698727460981777L0,0Z"/><path fill="#4a90e2" stroke="#FFFFFF" d="M2.0931533969449148,-12.698727460981777A12.87008042987435,12.87008042987435,0,0,1,12.853824959807373,0.6466484161178319L0,0Z"/><path fill="#f5a623" stroke="#FFFFFF" d="M12.853824959807373,0.6466484161178319A12.87008042987435,12.87008042987435,0,1,1,-2.3641954204821917e-15,-12.87008042987435L0,0Z"/></g><text y="54.62991957012565" x="66.66666666666667" style="font-family: Arial, sans-serif; font-size: 12px; fill: black; font-weight: bold; dominant-baseline: auto; text-anchor: middle;">Spain</text></g><g transform="translate(133.33333333333331,480)"><g id="pie" transform="translate(66.66666666666667,71.5)"><path fill="#2ca02c" stroke="#FFFFFF" d="M6.441246361423797e-16,-10.51935360613108A10.51935360613108,10.51935360613108,0,0,1,1.1883595050479767,-10.452014254562853L0,0Z"/><path fill="#4a90e2" stroke="#FFFFFF" d="M1.1883595050479767,-10.452014254562853A10.51935360613108,10.51935360613108,0,0,1,7.278749636601211,7.594511440408835L0,0Z"/><path fill="#f5a623" stroke="#FFFFFF" d="M7.278749636601211,7.594511440408835A10.51935360613108,10.51935360613108,0,1,1,-1.932373908427139e-15,-10.51935360613108L0,0Z"/></g><text y="56.98064639386892" x="66.66666666666667" style="font-family: Arial, sans-serif; font-size: 12px; fill: black; font-weight: bold; dominant-baseline: auto; text-anchor: middle;">Taiwan</text></g><g transform="translate(266.66666666666663,480)"><g id="pie" transform="translate(66.66666666666667,71.5)"><path fill="#2ca02c" stroke="#FFFFFF" d="M6.570606728797633e-16,-10.73061511837102A10.73061511837102,10.73061511837102,0,0,1,5.287267460452859,-9.337606953617671L0,0Z"/><path fill="#4a90e2" stroke="#FFFFFF" d="M5.287267460452859,-9.337606953617671A10.73061511837102,10.73061511837102,0,0,1,3.6982305618560583,10.073191725067408L0,0Z"/><path fill="#f5a623" stroke="#FFFFFF" d="M3.6982305618560583,10.073191725067408A10.73061511837102,10.73061511837102,0,1,1,-1.9711820186392897e-15,-10.73061511837102L0,0Z"/></g><text y="56.76938488162898" x="66.66666666666667" style="font-family: Arial, sans-serif; font-size: 12px; fill: black; font-weight: bold; dominant-baseline: auto; text-anchor: middle;">Thailand</text></g><g transform="translate(400,480)"><g id="pie" transform="translate(66.66666666666667,71.5)"><path fill="#2ca02c" stroke="#FFFFFF" d="M8.729444098076745e-16,-14.256264098603A14.256264098603,14.256264098603,0,0,1,5.918554832318442,-12.969648212112649L0,0Z"/><path fill="#4a90e2" stroke="#FFFFFF" d="M5.918554832318442,-12.969648212112649A14.256264098603,14.256264098603,0,0,1,8.963617526173222,11.085784902008383L0,0Z"/><path fill="#f5a623" stroke="#FFFFFF" d="M8.963617526173222,11.085784902008383A14.256264098603,14.256264098603,0,1,1,-2.6188332294230234e-15,-14.256264098603L0,0Z"/></g><text y="53.243735901397" x="66.66666666666667" style="font-family: Arial, sans-serif; font-size: 12px; fill: black; font-weight: bold; dominant-baseline: auto; text-anchor: middle;">Turkey</text></g><g transform="translate(533.3333333333333,480)"><g id="pie" transform="translate(66.66666666666667,71.5)"><path fill="#2ca02c" stroke="#FFFFFF" d="M1.0112911639811862e-15,-16.5156380547483A16.5156380547483,16.5156380547483,0,0,1,0.7254365591252864,-16.499698244335704L0,0Z"/><path fill="#4a90e2" stroke="#FFFFFF" d="M0.7254365591252864,-16.499698244335704A16.5156380547483,16.5156380547483,0,0,1,15.965112855973373,-4.22864893925755L0,0Z"/><path fill="#f5a623" stroke="#FFFFFF" d="M15.965112855973373,-4.22864893925755A16.5156380547483,16.5156380547483,0,1,1,1.1634959815862036e-14,-16.5156380547483L0,0Z"/></g><text y="50.9843619452517" x="66.66666666666667" style="font-family: Arial, sans-serif; font-size: 12px; fill: black; font-weight: bold; dominant-baseline: auto; text-anchor: middle;">United Kingdom</text></g><g transform="translate(666.6666666666667,480)"><g id="pie" transform="translate(66.66666666666667,71.5)"><path fill="#2ca02c" stroke="#FFFFFF" d="M2.6091686895578147e-15,-42.610958382031775A42.610958382031775,42.610958382031775,0,0,1,2.408308920626979,-42.54284690024954L0,0Z"/><path fill="#4a90e2" stroke="#FFFFFF" d="M2.408308920626979,-42.54284690024954A42.610958382031775,42.610958382031775,0,0,1,40.52542963481291,-13.167510286651432L0,0Z"/><path fill="#f5a623" stroke="#FFFFFF" d="M40.52542963481291,-13.167510286651432A42.610958382031775,42.610958382031775,0,1,1,-7.827506068673443e-15,-42.610958382031775L0,0Z"/></g><text y="24.889041617968225" x="66.66666666666667" style="font-family: Arial, sans-serif; font-size: 12px; fill: black; font-weight: bold; dominant-baseline: auto; text-anchor: middle;">United States</text></g></g></svg>