<?xml version="1.0" encoding="utf-8"?>
<!-- Generator: Adobe Illustrator 23.0.1, SVG Export Plug-In . SVG Version: 6.00 Build 0)  -->
<svg version="1.1" id="Layer_1" xmlns="http://www.w3.org/2000/svg" xmlns:xlink="http://www.w3.org/1999/xlink" x="0px" y="0px"
	 viewBox="0 0 425 926.96" style="enable-background:new 0 0 425 926.96;" xml:space="preserve">
<style type="text/css">
    @import url('https://fonts.googleapis.com/css?family=Roboto:300,700');
	.st0{fill:#FFFFFF;}
	.st1{font-family:'Roboto';font-weight: 700;}
	.st2{font-size:18px;}
	.st3{opacity:0.15;fill:url(#SVGID_1_);enable-background:new    ;}
	.st4{fill:none;}
	.st5{opacity:0.2;}
	.st6{opacity:0.15;fill:url(#SVGID_2_);enable-background:new    ;}
	.st7{opacity:0.15;fill:url(#SVGID_3_);enable-background:new    ;}
	.st8{font-size:16px;}
	.st9{opacity:0.5;}
	.st10{font-family:'Roboto';font-weight: 300;}
	.st11{font-size:12px;}
	.st12{fill:url(#SVGID_4_);}
	.st13{fill:url(#SVGID_5_);}
	.st14{font-family:'Roboto';font-weight: 300;}
	.st15{fill:none;stroke:url(#SVGID_6_);stroke-miterlimit:10;}
	.st16{fill:#CEB98E;}
	.st17{opacity:0.1;fill:url(#SVGID_7_);enable-background:new    ;}
	
		.st18{opacity:0.3;fill:none;stroke:url(#SVGID_8_);stroke-width:0.5;stroke-linecap:round;stroke-linejoin:round;stroke-miterlimit:10;enable-background:new    ;}
	.st19{fill:#548C95;}
	.st20{opacity:0.1;fill:url(#SVGID_9_);enable-background:new    ;}
	
		.st21{opacity:0.3;fill:none;stroke:url(#SVGID_10_);stroke-width:0.5;stroke-linecap:round;stroke-linejoin:round;stroke-miterlimit:10;enable-background:new    ;}
	.st22{font-size:14px;}
	
		.st23{opacity:0.5;fill:none;stroke:#FFFFFF;stroke-linecap:round;stroke-miterlimit:10;stroke-dasharray:0,2;enable-background:new    ;}
	.st24{fill:#BBA67C;}
	.st25{opacity:0.05;fill:url(#SVGID_11_);enable-background:new    ;}
	.st26{opacity:0.1;fill:url(#SVGID_12_);enable-background:new    ;}
	.st27{opacity:0.1;enable-background:new    ;}
	.st28{fill:url(#SVGID_13_);}
	.st29{opacity:0.05;fill:url(#SVGID_14_);enable-background:new    ;}
	.st30{opacity:0.05;fill:url(#SVGID_15_);enable-background:new    ;}
	
		.st31{opacity:0.3;fill:none;stroke:url(#SVGID_16_);stroke-width:0.5;stroke-linecap:round;stroke-linejoin:round;stroke-miterlimit:10;enable-background:new    ;}
	.st32{opacity:0.3;enable-background:new    ;}
	.st33{fill:none;stroke:url(#SVGID_17_);stroke-width:0.5;stroke-linecap:round;stroke-linejoin:round;stroke-miterlimit:10;}
	.st34{opacity:0.05;fill:url(#SVGID_18_);enable-background:new    ;}
	.st35{opacity:0.8;fill:#110C0F;enable-background:new    ;}
	.st36{fill:url(#SVGID_19_);}
	.st37{fill:none;stroke:#FFFFFF;stroke-width:0.5;stroke-linecap:round;stroke-miterlimit:10;}
	.st38{opacity:0.50;fill:url(#SVGID_20_);enable-background:new    ;}
	.st39{fill:url(#SVGID_21_);}
	.st40{fill:url(#SVGID_22_);}
	.st41{fill:url(#SVGID_23_);}
	.st42{fill:url(#SVGID_24_);}
	.st43{fill:url(#SVGID_25_);}
	.st44{fill:url(#SVGID_26_);}
	.st45{fill:url(#SVGID_27_);}
     #light {opacity:1;}
@keyframes lighting {
  0%   { opacity:1; }
  50%  { opacity:0.1; }
  100% { opacity:1; }
}
@-o-keyframes lighting{
  0%   { opacity:1; }
  50%  { opacity:0.1; }
  100% { opacity:1; }
}
@-moz-keyframes lighting{
  0%   { opacity:1; }
  50%  { opacity:0.1; }
  100% { opacity:1; }
}
@-webkit-keyframes lighting{
  0%   { opacity:1; }
  50%  { opacity:0.1; }
  100% { opacity:1; }
}
.animate-light {
   -webkit-animation: lighting 2s infinite alternate;
   -moz-animation: lighting 2s infinite alternate;
   -o-animation: lighting 2s infinite alternate;
    animation: lighting 2s infinite alternate;
}
</style>
<image style="overflow:visible;" width="850" height="1275" xlink:href="../img/woman-mobile-m.png" transform="matrix(0.4707 0 0 0.4707 10.2621 209.8631)">
</image>
<g>
	<text transform="matrix(1 0 0 1 128.3554 79.7145)" class="st0 st1 st2">COMMON PROBLEMS</text>
</g>
<linearGradient id="SVGID_1_" gradientUnits="userSpaceOnUse" x1="96.35" y1="-1295.6" x2="96.35" y2="-1530.425" gradientTransform="matrix(1 0 0 1 0 1890)">
	<stop  offset="0" style="stop-color:#FFFFFF"/>
	<stop  offset="0.1413" style="stop-color:#FFFFFF;stop-opacity:0.9435"/>
	<stop  offset="1" style="stop-color:#FFFFFF;stop-opacity:0.6"/>
</linearGradient>
<path class="st3" d="M162.3,370.1c0,0-0.9,21.5-24.6,53.1s-39,59.6-29.8,81.3c0,0-13.8,13.6-18.3,20.8c0,0-33.6,5.6-45.7,34.4
	c-12.2,28.8-13.5,34.7-13.5,34.7s9-61.4,23.7-87.4c22.9-40.6,19.9-32.4,54.5-68.6s47.9-44.6,41.4-68.8c0,0,3.7-9.3,6.2-10
	c1.4-0.4,1.8,4.1,4.3,5.6C161.3,365.9,161.1,369.1,162.3,370.1z"/>
<g>
	<path class="st4" d="M-444.8,564.7"/>
</g>
<g class="st5">
	<path class="st0" d="M162.3,370.1c-0.3,3.1-0.9,6.2-1.7,9.2s-1.8,6-2.9,8.9c-2.2,5.8-4.9,11.5-8,16.8c-3.1,5.4-6.4,10.7-10.2,15.7
		c-1.8,2.6-3.7,5-5.5,7.5s-3.7,5-5.4,7.6c-3.5,5.1-6.9,10.4-10,15.7c-1.6,2.7-3.1,5.4-4.5,8.2c-1.4,2.8-2.7,5.6-3.9,8.5
		c-2.4,5.8-4.1,11.8-4.7,18c-0.7,6.2,0,12.5,2.4,18.2l0.1,0.1l-0.1,0.1c-3.3,3.3-6.5,6.6-9.6,10c-1.6,1.7-3.1,3.5-4.5,5.2
		c-1.4,1.8-2.9,3.6-4.1,5.6v0.1h-0.1c-3.9,0.8-7.8,2-11.5,3.4s-7.4,3.2-10.9,5.2c-6.9,4.1-13.1,9.4-17.8,16
		c-2.4,3.3-4.3,6.8-5.8,10.6c-1.6,3.7-3.1,7.4-4.7,11.1s-3,7.5-4.5,11.2c-0.7,1.9-1.4,3.7-2.2,5.6c-0.7,1.9-1.4,3.8-1.9,5.7
		c0.5-2,1.2-3.9,1.9-5.8c0.7-1.9,1.4-3.8,2.1-5.6c1.4-3.7,2.9-7.5,4.5-11.2c1.5-3.7,3.1-7.5,4.6-11.1c1.6-3.7,3.5-7.3,5.8-10.6
		c4.7-6.6,10.9-12,17.9-16.1c3.5-2,7.1-3.8,10.9-5.3c3.7-1.4,7.6-2.7,11.6-3.4l-0.1,0.1c1.2-2,2.7-3.8,4.1-5.6s3-3.5,4.5-5.2
		c3.1-3.4,6.3-6.8,9.6-10l-0.1,0.2c-2.5-5.8-3.1-12.2-2.5-18.4c0.7-6.2,2.4-12.3,4.8-18c1.2-2.9,2.5-5.7,3.9-8.5s2.9-5.5,4.5-8.2
		c3.1-5.4,6.6-10.6,10.1-15.7c1.8-2.6,3.6-5.1,5.4-7.6s3.7-5,5.5-7.5c3.7-5,7.1-10.3,10.2-15.7c3.1-5.4,5.8-11,8.1-16.8
		c1.1-2.9,2.2-5.8,2.9-8.8C161.3,376.3,162,373.2,162.3,370.1z"/>
</g>
<g class="st5">
	<path class="st0" d="M30.4,621.1c-0.5-14.9,0.6-29.9,2.7-44.6c1-7.4,2.4-14.7,4.1-22s3.6-14.5,5.9-21.6s5-14.1,8.1-20.9
		c0.8-1.7,1.5-3.4,2.4-5.1l2.5-5c0.9-1.7,1.8-3.3,2.7-4.9l1.4-2.4l1.4-2.4c3.7-6.5,8.1-12.6,12.7-18.4l3.6-4.3
		c1.2-1.4,2.5-2.8,3.8-4.1l1.9-2c0.7-0.7,1.3-1.3,2-2l4-3.9c-10.8,10.3-20.1,22.2-27.7,35l-1.4,2.4l-1.3,2.4
		c-0.9,1.6-1.8,3.3-2.6,4.9l-2.5,5c-0.9,1.6-1.5,3.4-2.3,5.1c-3,6.8-5.6,13.8-7.9,20.9c-2.3,7.1-4.3,14.3-6,21.6
		c-1.6,7.3-3,14.6-4.1,22s-1.9,14.8-2.4,22.2C30.5,606.2,30.2,613.7,30.4,621.1z"/>
</g>
<linearGradient id="SVGID_2_" gradientUnits="userSpaceOnUse" x1="142.3" y1="-1464.1" x2="208.2" y2="-1464.1" gradientTransform="matrix(1 0 0 1 0 1890)">
	<stop  offset="0" style="stop-color:#FFFFFF"/>
	<stop  offset="0.1413" style="stop-color:#FFFFFF;stop-opacity:0.9435"/>
	<stop  offset="1" style="stop-color:#FFFFFF;stop-opacity:0.6"/>
</linearGradient>
<path class="st6" d="M142.3,479c0,0,0-17.1,1.2-30.2s5.7-22.6,16.2-38.7c10.5-16.2,14.5-30.9,14.5-37.3c0,0,9.6,0.7,15.7,8.8
	c6.2,8.1,13,15.9,18.3,16.2c0,0-3.5,0.7-5.7,4.1c-2.2,3.3-14,26.9-18.5,30.7c-4.5,3.7-7.7,9.2-8,12.6c0,0-12,9.4-18.2,18.9
	C151.5,473.5,142.3,479,142.3,479z"/>
<linearGradient id="SVGID_3_" gradientUnits="userSpaceOnUse" x1="182.4234" y1="-1363.65" x2="198.4562" y2="-1363.65" gradientTransform="matrix(1 0 0 1 0 1890)">
	<stop  offset="0" style="stop-color:#FFFFFF"/>
	<stop  offset="0.1413" style="stop-color:#FFFFFF;stop-opacity:0.9435"/>
	<stop  offset="1" style="stop-color:#FFFFFF;stop-opacity:0.6"/>
</linearGradient>
<path class="st7" d="M182.4,493.1c0,0-1.2,46.8,13.8,66.5c0,0,5.8-39.5-1.2-49.6C188,499.9,182.4,493.1,182.4,493.1z"/>
<text transform="matrix(1 0 0 1 212.5 204.6341)" class="st0 st1 st8">Chronic </text>
<text transform="matrix(1 0 0 1 212.5 222.2181)" class="st0 st1 st8">headaches </text>
<g class="st9">
	<text transform="matrix(1 0 0 1 295.3881 298.252)" class="st0 st10 st11">Difficulty turning</text>
</g>
<g class="st9">
	<text transform="matrix(1 0 0 1 295.3881 314.2637)" class="st0 st10 st11">the head</text>
</g>
<g class="st9">
	<g>
		<text transform="matrix(1 0 0 1 46.8774 437.2039)" class="st0 st10 st11">Tight</text>
		<text transform="matrix(1 0 0 1 33.9648 453.2156)" class="st0 st10 st11">muscles</text>
	</g>
</g>
<g class="st9">
	<text transform="matrix(1 0 0 1 212.3467 530.9421)" class="st0 st10 st11">Weak</text>
	<text transform="matrix(1 0 0 1 212.3467 545.9529)" class="st0 st10 st11">muscles</text>
</g>
<g class="st9">
	<g>
		<text transform="matrix(1 0 0 1 334.3091 586.1629)" class="st0 st10 st11">Blue light</text>
	</g>
</g>
<g>
	<g>
		
			<linearGradient id="SVGID_4_" gradientUnits="userSpaceOnUse" x1="271.2489" y1="-1539.3213" x2="341.053" y2="-1560.5629" gradientTransform="matrix(1 0 0 1 0 1890)">
			<stop  offset="1.800003e-03" style="stop-color:#CEB98E"/>
			<stop  offset="0.161" style="stop-color:#DACAAA;stop-opacity:0.8405"/>
			<stop  offset="0.4075" style="stop-color:#EAE1CF;stop-opacity:0.5935"/>
			<stop  offset="0.6374" style="stop-color:#F6F1E9;stop-opacity:0.3633"/>
			<stop  offset="0.8419" style="stop-color:#FDFBF9;stop-opacity:0.1584"/>
			<stop  offset="1" style="stop-color:#FFFFFF;stop-opacity:0"/>
		</linearGradient>
		<path class="st12" d="M269.1,330.4c7.6,2.9,15.2,5.6,22.8,8.3c7.7,2.6,15.3,5.1,23.1,7.2c3.9,1,7.8,2,11.7,2.7
			c2,0.3,3.9,0.7,5.9,0.8c2,0.1,3.9,0.2,5.8-0.1c0.9-0.2,1.8-0.5,2.4-0.9s0.9-1.2,0.9-2c-0.1-0.9-0.4-1.8-0.8-2.6
			c-0.5-0.9-1-1.7-1.6-2.5c-1.2-1.6-2.6-3.1-4-4.5s-2.8-3-4.2-4.5l4.7,3.9c1.6,1.3,3,2.8,4.4,4.3c0.7,0.8,1.3,1.6,1.8,2.6
			c0.5,0.9,1,1.9,1.2,3.1c0.1,0.6,0,1.2-0.2,1.8c-0.2,0.6-0.7,1.2-1.1,1.6c-1,0.8-2,1.2-3.1,1.4c-2.2,0.5-4.3,0.6-6.4,0.5
			s-4.1-0.2-6.2-0.5c-4.1-0.5-8.1-1.2-12.2-2c-8.1-1.6-15.9-3.6-23.9-5.8c-7.9-2.2-15.7-4.5-23.5-6.9L269.1,330.4z"/>
		<g>
			
				<linearGradient id="SVGID_5_" gradientUnits="userSpaceOnUse" x1="266.3145" y1="-1555.5369" x2="336.1186" y2="-1576.7786" gradientTransform="matrix(1 0 0 1 0 1890)">
				<stop  offset="1.800003e-03" style="stop-color:#CEB98E"/>
				<stop  offset="0.161" style="stop-color:#DACAAA;stop-opacity:0.8405"/>
				<stop  offset="0.4075" style="stop-color:#EAE1CF;stop-opacity:0.5935"/>
				<stop  offset="0.6374" style="stop-color:#F6F1E9;stop-opacity:0.3633"/>
				<stop  offset="0.8419" style="stop-color:#FDFBF9;stop-opacity:0.1584"/>
				<stop  offset="1" style="stop-color:#FFFFFF;stop-opacity:0"/>
			</linearGradient>
			<polygon class="st13" points="267.7,340.3 259.1,330.4 272,328 			"/>
		</g>
	</g>
</g>
<g>
	<text transform="matrix(1 0 0 1 321.8594 412.3972)" class="st0 st1 st8">Blurred</text>
	<text transform="matrix(1 0 0 1 321.8594 432.5086)" class="st0 st1 st8">vision</text>
</g>
<g>
	<rect x="53.3" y="93.71" class="st4" width="328.93" height="34.55"/>
	<text transform="matrix(1 0 0 1 59.8082 105.711)" class="st0 st14 st8">Excessive use of mobile phones can increase </text>
	<text transform="matrix(1 0 0 1 84.8082 124.911)" class="st0 st14 st8">the risk of developing health problems</text>
</g>
<g>
	
		<linearGradient id="SVGID_6_" gradientUnits="userSpaceOnUse" x1="2217.1377" y1="3914.4614" x2="2296.8958" y2="3914.4614" gradientTransform="matrix(0.5976 -0.8017 -0.8017 -0.5976 1870.3247 4780.1553)">
		<stop  offset="0" style="stop-color:#FFFFFF;stop-opacity:0"/>
		<stop  offset="0.9982" style="stop-color:#CEB98E"/>
	</linearGradient>
	<path class="st15" d="M85.96,585.82c12.45,29.05,9.57,63.74-10.68,90.97"/>
	<g>
		<polygon class="st16" points="80.47,588.93 82.68,577.05 91.8,584.64 		"/>
	</g>
</g>
<g>
	<g>
		<text transform="matrix(1 0 0 1 38.1392 703.1839)" class="st0 st1 st8">The spine's </text>
		<text transform="matrix(1 0 0 1 38.1392 722.3839)" class="st0 st1 st8">curvature</text>
	</g>
</g>
<g>
	<linearGradient id="SVGID_7_" gradientUnits="userSpaceOnUse" x1="65.4817" y1="833.9921" x2="65.4817" y2="754.2969">
		<stop  offset="0" style="stop-color:#FFFFFF;stop-opacity:0"/>
		<stop  offset="0.1413" style="stop-color:#FFFFFF;stop-opacity:0.1413"/>
		<stop  offset="1" style="stop-color:#FFFFFF"/>
	</linearGradient>
	<path class="st17" d="M85.85,833.99L85.85,833.99c0,0,0.76-10.78-1.61-17.24c-2.37-6.46-4.98-6.93-8.77-10.37
		c-3.79-3.44-7.76-6.64-7.7-9.3c0.06-2.67,0.89-5.21,0.95-7.17c0.06-1.96,1.22-2.56,3.41-2.56c2.2,0,4.76,1.08,6.28,0.27
		c1.52-0.81,0.37-3.02,0.81-3.7c0.44-0.68,1.54-0.88,1.39-1.24c-0.15-0.37-0.68-1.02-1.52-0.97c0,0,1.65-1.02,1.65-1.45
		c0,0-0.53-1.26-1.15-1.94c0,0,2.82-1.26,2.6-2.21c-0.22-0.95-0.9-1.59-1.79-2.6c-0.9-1.01-2.45-2.36-2.54-3.28
		c-0.09-0.91,0.31-1.74,0.33-2.49c0.02-0.75,0.15-1.52-0.42-2.8s-0.57-1.28-0.57-1.28s-1.32-3-2.16-4.17
		c-0.84-1.17-3.34-5.18-12.13-5.14c0,0-7.08-1.01-11.64,5.06c-4.56,6.07-2.84,12.5-1.29,15.05c1.54,2.55,5.6,5.53,4.74,12.14
		c-0.86,6.61-1.87,8.84-5.9,17.81c-7.04,15.67-2.3,28.03-1.52,29.57"/>
	<linearGradient id="SVGID_8_" gradientUnits="userSpaceOnUse" x1="65.4817" y1="834.2421" x2="65.4817" y2="754.0469">
		<stop  offset="0" style="stop-color:#FFFFFF;stop-opacity:0"/>
		<stop  offset="1" style="stop-color:#FFFFFF"/>
	</linearGradient>
	<path class="st18" d="M85.85,833.99L85.85,833.99c0,0,0.76-10.78-1.61-17.24c-2.37-6.46-4.98-6.93-8.77-10.37
		c-3.79-3.44-7.76-6.64-7.7-9.3c0.06-2.67,0.89-5.21,0.95-7.17c0.06-1.96,1.22-2.56,3.41-2.56c2.2,0,4.76,1.08,6.28,0.27
		c1.52-0.81,0.37-3.02,0.81-3.7c0.44-0.68,1.54-0.88,1.39-1.24c-0.15-0.37-0.68-1.02-1.52-0.97c0,0,1.65-1.02,1.65-1.45
		c0,0-0.53-1.26-1.15-1.94c0,0,2.82-1.26,2.6-2.21c-0.22-0.95-0.9-1.59-1.79-2.6c-0.9-1.01-2.45-2.36-2.54-3.28
		c-0.09-0.91,0.31-1.74,0.33-2.49c0.02-0.75,0.15-1.52-0.42-2.8s-0.57-1.28-0.57-1.28s-1.32-3-2.16-4.17
		c-0.84-1.17-3.34-5.18-12.13-5.14c0,0-7.08-1.01-11.64,5.06c-4.56,6.07-2.84,12.5-1.29,15.05c1.54,2.55,5.6,5.53,4.74,12.14
		c-0.86,6.61-1.87,8.84-5.9,17.81c-7.04,15.67-2.3,28.03-1.52,29.57"/>
	<g>
		<path class="st19" d="M60.23,781.21c0.06,3.72-0.43,7.43-1.06,11.1c-0.67,3.66-1.53,7.3-2.61,10.87l-1.65,5.28
			c-0.52,1.73-0.95,3.48-1.3,5.24c-0.7,3.51-0.88,7.06-0.52,10.58c0.33,3.54,1.22,7.06,2.19,10.58c0.48,1.77,0.99,3.53,1.51,5.3
			c0.52,1.77,1.05,3.52,1.5,5.38c0.92,3.66,1.44,7.44,1.32,11.23c-0.11,1.89-0.34,3.78-0.84,5.6c-0.51,1.81-1.21,3.6-2.37,5.06
			c0.46-0.8,0.76-1.68,1.01-2.56c0.26-0.87,0.43-1.77,0.55-2.67c0.24-1.8,0.28-3.62,0.18-5.42c-0.23-3.61-1.03-7.16-2.11-10.61
			c-2.24-6.93-5.05-13.93-5.92-21.59c-0.35-3.83-0.12-7.74,0.73-11.46c0.84-3.71,2.21-7.3,3.51-10.67c1.25-3.44,2.4-6.93,3.4-10.46
			C58.76,788.44,59.63,784.86,60.23,781.21z"/>
	</g>
</g>
<g>
	<linearGradient id="SVGID_9_" gradientUnits="userSpaceOnUse" x1="138.3929" y1="833.9921" x2="138.3929" y2="756.481">
		<stop  offset="0" style="stop-color:#FFFFFF;stop-opacity:0"/>
		<stop  offset="0.1413" style="stop-color:#FFFFFF;stop-opacity:0.1413"/>
		<stop  offset="1" style="stop-color:#FFFFFF"/>
	</linearGradient>
	<path class="st20" d="M151.73,833.99h0.1c0,0,1.9-10.99-2.93-19.55c-4.82-8.56-11.46-8.62-12.13-16.81
		c-0.22-2.66,3.66-3.82,4.8-5.41c1.14-1.59,2.44-1.44,4.26-0.21c1.82,1.23,3.34,3.56,5.05,3.74c1.71,0.18,1.99-2.3,2.74-2.61
		c0.74-0.32,1.77,0.13,1.85-0.25c0.08-0.39,0.01-1.23-0.72-1.65c0,0,1.94,0.07,2.17-0.28c0,0,0.27-1.34,0.13-2.25
		c0,0,3.04,0.53,3.39-0.38c0.35-0.91,0.15-1.82-0.03-3.16c-0.18-1.34-0.71-3.33-0.27-4.14c0.44-0.81,1.23-1.27,1.67-1.88
		c0.44-0.61,0.97-1.18,1.22-2.56c0.25-1.38,0.25-1.38,0.25-1.38s0.59-3.22,0.55-4.67c-0.04-1.44,0.14-6.16-7.17-11.05
		c0,0-5.3-4.8-12.48-2.32c-7.18,2.48-9.35,8.77-9.5,11.75c-0.15,2.98,1.55,7.72-2.87,12.71c0,0-11.55,10.35-14.89,17.93
		c-3.35,7.58-4.63,13.19-3.64,18.6c0.98,5.41,2.29,12.28,2.29,15.81"/>
	<linearGradient id="SVGID_10_" gradientUnits="userSpaceOnUse" x1="138.3929" y1="834.2421" x2="138.3929" y2="756.231">
		<stop  offset="0" style="stop-color:#FFFFFF;stop-opacity:0"/>
		<stop  offset="1" style="stop-color:#FFFFFF"/>
	</linearGradient>
	<path class="st21" d="M151.73,833.99h0.1c0,0,1.9-10.99-2.93-19.55c-4.82-8.56-11.46-8.62-12.13-16.81
		c-0.22-2.66,3.66-3.82,4.8-5.41c1.14-1.59,2.44-1.44,4.26-0.21c1.82,1.23,3.34,3.56,5.05,3.74c1.71,0.18,1.99-2.3,2.74-2.61
		c0.74-0.32,1.77,0.13,1.85-0.25c0.08-0.39,0.01-1.23-0.72-1.65c0,0,1.94,0.07,2.17-0.28c0,0,0.27-1.34,0.13-2.25
		c0,0,3.04,0.53,3.39-0.38c0.35-0.91,0.15-1.82-0.03-3.16c-0.18-1.34-0.71-3.33-0.27-4.14c0.44-0.81,1.23-1.27,1.67-1.88
		c0.44-0.61,0.97-1.18,1.22-2.56c0.25-1.38,0.25-1.38,0.25-1.38s0.59-3.22,0.55-4.67c-0.04-1.44,0.14-6.16-7.17-11.05
		c0,0-5.3-4.8-12.48-2.32c-7.18,2.48-9.35,8.77-9.5,11.75c-0.15,2.98,1.55,7.72-2.87,12.71c0,0-11.55,10.35-14.89,17.93
		c-3.35,7.58-4.63,13.19-3.64,18.6c0.98,5.41,2.29,12.28,2.29,15.81"/>
	<g>
		<path class="st19" d="M139.78,779.9c0.01,2.03-0.67,4.06-1.77,5.83c-1.12,1.76-2.69,3.24-4.47,4.37l-2.61,1.5l-1.15,0.84
			l-1.08,0.94c-1.39,1.33-2.61,2.84-3.65,4.46c-1.07,1.61-1.84,3.39-2.59,5.16c-0.63,1.82-1.2,3.67-1.48,5.58
			c-0.67,3.8-0.68,7.72-0.12,11.58c0.5,3.88,1.46,7.74,2.64,11.53c1.12,3.82,2.62,7.59,3.54,11.64c0.2,1.02,0.46,2.02,0.58,3.06
			l0.22,1.54c0.06,0.52,0.06,1.04,0.1,1.56c0.09,1.04,0.05,2.07,0.01,3.11c0,1.04-0.15,2.06-0.27,3.08
			c-0.57,4.08-1.75,7.99-3.25,11.75c0.86-3.95,1.64-7.91,1.78-11.87c0.19-3.96-0.34-7.86-1.43-11.63
			c-1.13-3.76-2.66-7.49-3.98-11.36c-1.3-3.88-2.32-7.88-2.9-12c-0.54-4.13-0.52-8.38,0.31-12.5c0.39-2.07,1.07-4.07,1.83-6.03
			c0.86-1.92,1.82-3.81,3.09-5.5c1.25-1.7,2.64-3.29,4.29-4.63l1.28-0.94c0.45-0.29,0.91-0.56,1.36-0.83l1.44-0.69l1.32-0.6
			c1.73-0.86,3.28-2.08,4.52-3.58C138.55,783.73,139.48,781.9,139.78,779.9z"/>
	</g>
</g>
<g class="st9">
	<text transform="matrix(1 0 0 1 35.5477 895.0899)"><tspan x="0" y="0" class="st0 st10 st22">Normal</tspan><tspan x="0" y="16.8" class="st0 st10 st22">curvature</tspan></text>
</g>
<g class="st9">
	<text transform="matrix(1 0 0 1 119.7963 895.0899)"><tspan x="0" y="0" class="st0 st10 st22">Extreme</tspan><tspan x="0" y="16.8" class="st0 st10 st22">curvature</tspan></text>
</g>
<line class="st23" x1="134.7" y1="790.23" x2="174.8" y2="750.13"/>
<g>
	<text transform="matrix(1 0 0 1 166.7562 745.983)" class="st24 st1 st22">45°</text>
</g>
<line class="st23" x1="309.57" y1="277.67" x2="349.67" y2="237.57"/>
<g>
	<text transform="matrix(1 0 0 1 341.6265 233.4235)" class="st24 st1 st22">45°</text>
</g>
<g>
	<text transform="matrix(1 0 0 1 292.0722 849.5543)" class="st0 st1 st8">Loss of </text>
	<text transform="matrix(1 0 0 1 292.0722 868.7543)" class="st0 st1 st8">lung volume</text>
	<text transform="matrix(1 0 0 1 292.0722 887.9543)" class="st0 st1 st8">capacity</text>
</g>
<linearGradient id="SVGID_11_" gradientUnits="userSpaceOnUse" x1="324.3906" y1="798.69" x2="324.3906" y2="784.1642">
	<stop  offset="0" style="stop-color:#FFFFFF;stop-opacity:0"/>
	<stop  offset="0.1413" style="stop-color:#FFFFFF;stop-opacity:0.1413"/>
	<stop  offset="1" style="stop-color:#FFFFFF"/>
</linearGradient>
<path class="st25" d="M328.58,791.57l-0.23-0.42c-0.6-1.02-1.36-1.74-1.58-2.37c0,0-1.62-0.87-2.17-1.41c0,0-3.26-1.29-4.58-3.21
	c0,0-0.56,5.59-0.34,7.81c0.22,2.22,0.15,6.71,0.15,6.71s4.83,0,6.43,0c0.33-1.36,2.9-2.53,2.9-4.71
	C329.15,793.02,328.91,792.24,328.58,791.57z"/>
<linearGradient id="SVGID_12_" gradientUnits="userSpaceOnUse" x1="304.8204" y1="807.2177" x2="304.8204" y2="762.2275">
	<stop  offset="0" style="stop-color:#FFFFFF;stop-opacity:0"/>
	<stop  offset="0.1413" style="stop-color:#FFFFFF;stop-opacity:0.1413"/>
	<stop  offset="1" style="stop-color:#FFFFFF"/>
</linearGradient>
<path class="st26" d="M294.53,789.41c0,0,0.27-3.46,0.27-4.44c0-0.97-0.05-1.95,0.6-2.6c0.65-0.65,0.16-3.25,1.14-4.22
	c0.97-0.97-0.16-0.76,0.49-2.22c0.65-1.46,1.68-1.68,1.95-2.98c0.27-1.3,0.49-2.76,4.66-6.39s5.52-4.33,6.61-4.33
	c1.08,0,2.6,0.11,3.14,2.87c0.54,2.76,1.04,2.6,1.04,4.71s-0.44,5.74-0.44,5.74s1.73,2.06,1.73,3.41v8.93c0,0,0.87,4.49-1.79,7.15
	c-2.65,2.65-4.93,5.58-8.12,5.58c0,0-4.76,6.61-8.66,6.61s-2.92-3.79-2.92-3.79S293.12,792.65,294.53,789.41z"/>
<g class="st27">
	<linearGradient id="SVGID_13_" gradientUnits="userSpaceOnUse" x1="330.2438" y1="805.9516" x2="330.2438" y2="761.5292">
		<stop  offset="0" style="stop-color:#FFFFFF;stop-opacity:0"/>
		<stop  offset="0.1413" style="stop-color:#FFFFFF;stop-opacity:0.1413"/>
		<stop  offset="1" style="stop-color:#FFFFFF"/>
	</linearGradient>
	<path class="st28" d="M319.25,774.26c-0.15-0.67-1.2-5.33-0.64-7.65c0.6-2.49,1.52-6.77,6.88-4.39c5.36,2.38,3.93,2.9,5.58,4.55
		c1.65,1.65,2.17,2.44,4.68,5.79c2.52,3.36,3.44,4.98,3.65,8.88s1.62,0.92,1.62,5.04c0,4.11,0.81,5.9,0.81,7.9s-0.7,4.17-0.43,4.87
		c0.27,0.7-0.57,3.65,0.16,4.39c0.73,0.73,0.92,2.98-2.06,2.11c0,0-6.27-1.66-8.61-5.3c-1.72,0.43-3.78,0.67-4.6-0.39
		c-0.32-0.41-0.39-0.78-0.3-1.14c0.33-1.36,2.9-2.53,2.9-4.71c0-0.96-0.24-1.74-0.57-2.41c-0.07-0.15-0.15-0.29-0.23-0.42
		c-0.6-1.02-1.36-1.74-1.58-2.37c0,0-1.62-0.87-2.17-1.41c0,0-3.26-1.29-4.58-3.21c-0.16-0.24-0.3-0.49-0.4-0.74
		c-0.87-2.33-0.94-4.6-0.5-7.25c0.24-1.45,0.34-1.88,0.37-1.97V774.26z"/>
</g>
<linearGradient id="SVGID_14_" gradientUnits="userSpaceOnUse" x1="317.5392" y1="777.2979" x2="317.5392" y2="750.7152">
	<stop  offset="0" style="stop-color:#FFFFFF;stop-opacity:0"/>
	<stop  offset="0.1413" style="stop-color:#FFFFFF;stop-opacity:0.1413"/>
	<stop  offset="1" style="stop-color:#FFFFFF"/>
</linearGradient>
<path class="st29" d="M317.97,750.72c0,0,0.79,5.03,0.34,8.34c-0.45,3.3-0.51,7.11,0.14,12.19l3.63,2.7l-2.83,3.36l-2.74-2.44
	l-2.44,2.44l-1.08-3.03c0,0,2.17-1.3,2.17-4.28c0-2.98-0.33-6.6-0.33-10.94c0-2.95-0.21-5.85-0.21-8.34"/>
<linearGradient id="SVGID_15_" gradientUnits="userSpaceOnUse" x1="324.3906" y1="798.69" x2="324.3906" y2="784.1642">
	<stop  offset="0" style="stop-color:#FFFFFF;stop-opacity:0"/>
	<stop  offset="0.1413" style="stop-color:#FFFFFF;stop-opacity:0.1413"/>
	<stop  offset="1" style="stop-color:#FFFFFF"/>
</linearGradient>
<path class="st30" d="M328.58,791.57l-0.23-0.42c-0.6-1.02-1.36-1.74-1.58-2.37c0,0-1.62-0.87-2.17-1.41c0,0-3.26-1.29-4.58-3.21
	c0,0-0.56,5.59-0.34,7.81c0.22,2.22,0.15,6.71,0.15,6.71s4.83,0,6.43,0c0.33-1.36,2.9-2.53,2.9-4.71
	C329.15,793.02,328.91,792.24,328.58,791.57z"/>
<linearGradient id="SVGID_16_" gradientUnits="userSpaceOnUse" x1="304.8204" y1="807.4677" x2="304.8204" y2="761.9775">
	<stop  offset="0" style="stop-color:#FFFFFF;stop-opacity:0"/>
	<stop  offset="1" style="stop-color:#FFFFFF"/>
</linearGradient>
<path class="st31" d="M294.53,789.41c0,0,0.27-3.46,0.27-4.44c0-0.97-0.05-1.95,0.6-2.6c0.65-0.65,0.16-3.25,1.14-4.22
	c0.97-0.97-0.16-0.76,0.49-2.22c0.65-1.46,1.68-1.68,1.95-2.98c0.27-1.3,0.49-2.76,4.66-6.39s5.52-4.33,6.61-4.33
	c1.08,0,2.6,0.11,3.14,2.87c0.54,2.76,1.04,2.6,1.04,4.71s-0.44,5.74-0.44,5.74s1.73,2.06,1.73,3.41v8.93c0,0,0.87,4.49-1.79,7.15
	c-2.65,2.65-4.93,5.58-8.12,5.58c0,0-4.76,6.61-8.66,6.61s-2.92-3.79-2.92-3.79S293.12,792.65,294.53,789.41z"/>
<g class="st32">
	<linearGradient id="SVGID_17_" gradientUnits="userSpaceOnUse" x1="330.2438" y1="806.2016" x2="330.2438" y2="761.2792">
		<stop  offset="0" style="stop-color:#FFFFFF;stop-opacity:0"/>
		<stop  offset="1" style="stop-color:#FFFFFF"/>
	</linearGradient>
	<path class="st33" d="M319.25,774.26c-0.15-0.67-1.2-5.33-0.64-7.65c0.6-2.49,1.52-6.77,6.88-4.39c5.36,2.38,3.93,2.9,5.58,4.55
		c1.65,1.65,2.17,2.44,4.68,5.79c2.52,3.36,3.44,4.98,3.65,8.88s1.62,0.92,1.62,5.04c0,4.11,0.81,5.9,0.81,7.9s-0.7,4.17-0.43,4.87
		c0.27,0.7-0.57,3.65,0.16,4.39c0.73,0.73,0.92,2.98-2.06,2.11c0,0-6.27-1.66-8.61-5.3c-1.72,0.43-3.78,0.67-4.6-0.39
		c-0.32-0.41-0.39-0.78-0.3-1.14c0.33-1.36,2.9-2.53,2.9-4.71c0-0.96-0.24-1.74-0.57-2.41c-0.07-0.15-0.15-0.29-0.23-0.42
		c-0.6-1.02-1.36-1.74-1.58-2.37c0,0-1.62-0.87-2.17-1.41c0,0-3.26-1.29-4.58-3.21c-0.16-0.24-0.3-0.49-0.4-0.74
		c-0.87-2.33-0.94-4.6-0.5-7.25c0.24-1.45,0.34-1.88,0.37-1.97V774.26z"/>
</g>
<linearGradient id="SVGID_18_" gradientUnits="userSpaceOnUse" x1="317.5392" y1="777.2979" x2="317.5392" y2="750.7152">
	<stop  offset="0" style="stop-color:#FFFFFF;stop-opacity:0"/>
	<stop  offset="0.1413" style="stop-color:#FFFFFF;stop-opacity:0.1413"/>
	<stop  offset="1" style="stop-color:#FFFFFF"/>
</linearGradient>
<path class="st34" d="M317.97,750.72c0,0,0.79,5.03,0.34,8.34c-0.45,3.3-0.51,7.11,0.14,12.19l3.63,2.7l-2.83,3.36l-2.74-2.44
	l-2.44,2.44l-1.08-3.03c0,0,2.17-1.3,2.17-4.28c0-2.98-0.33-6.6-0.33-10.94c0-2.95-0.21-5.85-0.21-8.34"/>
<rect x="292.72" y="746.48" class="st35" width="50.28" height="25.79"/>
<line class="st23" x1="291.53" y1="772.79" x2="345.83" y2="772.79"/>
<g>
	<text transform="matrix(1 0 0 1 304.8211 761.4299)" class="st24 st1 st22">30%</text>
</g>
<g>
	<g>
		<text transform="matrix(1 0 0 1 117.1063 545.4397)" class="st0 st1 st8">Nerve </text>
		<text transform="matrix(1 0 0 1 117.1063 564.6396)" class="st0 st1 st8">damage</text>
	</g>
</g>
<linearGradient id="SVGID_19_" gradientUnits="userSpaceOnUse" x1="76.296" y1="1637.8702" x2="101.2175" y2="1637.8702" gradientTransform="matrix(1 0 0 -1 0 2174)">
	<stop  offset="0" style="stop-color:#FFFFFF"/>
	<stop  offset="1" style="stop-color:#FFFFFF;stop-opacity:0"/>
</linearGradient>
<path class="st36" d="M101.21,543.32c0,0-16.28,0.02-24.88-9.08c0,0,9.95,4.44,12.35,2.44c0,0,0.09-3.74-0.91-7.74
	c2.92,5.48,5.34,8.88,9.14,11.28L101.21,543.32z"/>
<line class="st37" x1="96.21" y1="541.72" x2="109.81" y2="541.72"/>
<text transform="matrix(1 0 0 1 65.4815 380.5472)"><tspan x="0" y="0" class="st0 st1 st8">Stress on</tspan><tspan x="0" y="19.2" class="st0 st1 st8">C-spine</tspan></text>
<g id="light" class="animate-light">
	
		<linearGradient id="SVGID_20_" gradientUnits="userSpaceOnUse" x1="277.8537" y1="-1472.5376" x2="415.4073" y2="-1304.455" gradientTransform="matrix(1 0 0 1 0 1890)">
		<stop  offset="0" style="stop-color:#FFFFFF;stop-opacity:0"/>
		<stop  offset="0.1497" style="stop-color:#FBFDFF;stop-opacity:0.0898"/>
		<stop  offset="0.2828" style="stop-color:#F1F8FF;stop-opacity:0.1697"/>
		<stop  offset="0.4096" style="stop-color:#DEEFFF;stop-opacity:0.2458"/>
		<stop  offset="0.5326" style="stop-color:#C5E2FF;stop-opacity:0.3196"/>
		<stop  offset="0.6529" style="stop-color:#A4D1FF;stop-opacity:0.3917"/>
		<stop  offset="0.771" style="stop-color:#7BBDFF;stop-opacity:0.4626"/>
		<stop  offset="0.8856" style="stop-color:#4CA6FF;stop-opacity:0.5314"/>
		<stop  offset="0.9981" style="stop-color:#168AFF;stop-opacity:0.5988"/>
		<stop  offset="1" style="stop-color:#158AFF;stop-opacity:0.6"/>
	</linearGradient>
	<path class="st38" d="M317.7,382.1c0.7-1.3-0.7-3.9,0-5.9c4.5-11.1,6.8-22.4,7.7-33.9l76,245.5l-27.3,7.4l-5.9,0.9l-42,13.7
		L240,473.5l0,0c2.4-2,5.4-2.9,7.6-5.6c2.6-3.3,10.5,1.3,13.1-2c2-2.6,3.9-7.9,7.9-7.9c-0.7-2,1.3-2.6,2-3.3
		c1.3-0.7,2.6-0.7,3.3-1.3c1.3-4.6-0.7-12.5,3.9-13.1c6.6,0,16.4,3.9,18.4-3.9c2.6-11.1-1.3-22.3,2.6-32.1c0.7-2,6.6-6.6,6.6-11.1
		L317.7,382.1z"/>
	<g class="st9">
		
			<linearGradient id="SVGID_21_" gradientUnits="userSpaceOnUse" x1="257.2029" y1="-1427.666" x2="259.0424" y2="-1422.6262" gradientTransform="matrix(1 0 0 1 0 1890)">
			<stop  offset="0" style="stop-color:#FFFFFF;stop-opacity:0"/>
			<stop  offset="0.1043" style="stop-color:#FAFCFF;stop-opacity:0.0626"/>
			<stop  offset="0.2346" style="stop-color:#EAF5FF;stop-opacity:0.1408"/>
			<stop  offset="0.3789" style="stop-color:#D1E8FF;stop-opacity:0.2273"/>
			<stop  offset="0.5333" style="stop-color:#ADD6FF;stop-opacity:0.32"/>
			<stop  offset="0.6957" style="stop-color:#7FBFFF;stop-opacity:0.4174"/>
			<stop  offset="0.8622" style="stop-color:#48A4FF;stop-opacity:0.5173"/>
			<stop  offset="1" style="stop-color:#158AFF;stop-opacity:0.6"/>
		</linearGradient>
		<path class="st39" d="M251.7,466.4c0,0,6.2,1.8,8.7-0.1c2.4-1.9,2.5-7.5,2.5-7.5S260.2,465.9,251.7,466.4z"/>
		
			<linearGradient id="SVGID_22_" gradientUnits="userSpaceOnUse" x1="226.1563" y1="-1424.8572" x2="231.3045" y2="-1410.7537" gradientTransform="matrix(1 0 0 1 0 1890)">
			<stop  offset="0" style="stop-color:#FFFFFF;stop-opacity:0"/>
			<stop  offset="0.1892" style="stop-color:#FCFEFF;stop-opacity:0.1135"/>
			<stop  offset="0.3264" style="stop-color:#F3F9FF;stop-opacity:0.1958"/>
			<stop  offset="0.4472" style="stop-color:#E3F1FF;stop-opacity:0.2683"/>
			<stop  offset="0.5585" style="stop-color:#CDE6FF;stop-opacity:0.3351"/>
			<stop  offset="0.6634" style="stop-color:#B0D7FF;stop-opacity:0.3981"/>
			<stop  offset="0.7635" style="stop-color:#8CC6FF;stop-opacity:0.4581"/>
			<stop  offset="0.8598" style="stop-color:#62B0FF;stop-opacity:0.5159"/>
			<stop  offset="0.9507" style="stop-color:#3299FF;stop-opacity:0.5704"/>
			<stop  offset="1" style="stop-color:#158AFF;stop-opacity:0.6"/>
		</linearGradient>
		<path class="st40" d="M209.3,467.2c0,0,9.5,8,18.1,8.9s8.7,1.7,18.1-6.2C245.4,469.9,230.9,479,209.3,467.2z"/>
		
			<linearGradient id="SVGID_23_" gradientUnits="userSpaceOnUse" x1="268.9309" y1="-1442.616" x2="272.6117" y2="-1432.5321" gradientTransform="matrix(1 0 0 1 0 1890)">
			<stop  offset="0" style="stop-color:#FFFFFF;stop-opacity:0"/>
			<stop  offset="0.1892" style="stop-color:#FCFEFF;stop-opacity:0.1135"/>
			<stop  offset="0.3264" style="stop-color:#F3F9FF;stop-opacity:0.1958"/>
			<stop  offset="0.4472" style="stop-color:#E3F1FF;stop-opacity:0.2683"/>
			<stop  offset="0.5585" style="stop-color:#CDE6FF;stop-opacity:0.3351"/>
			<stop  offset="0.6634" style="stop-color:#B0D7FF;stop-opacity:0.3981"/>
			<stop  offset="0.7635" style="stop-color:#8CC6FF;stop-opacity:0.4581"/>
			<stop  offset="0.8598" style="stop-color:#62B0FF;stop-opacity:0.5159"/>
			<stop  offset="0.9507" style="stop-color:#3299FF;stop-opacity:0.5704"/>
			<stop  offset="1" style="stop-color:#158AFF;stop-opacity:0.6"/>
		</linearGradient>
		<path class="st41" d="M264.7,458.8c0,0,7.3,0.1,8.1-6c0.7-6,2.6-10.7,2.6-10.7s-3.6,4.1-4.4,10S264.7,458.8,264.7,458.8z"/>
		
			<linearGradient id="SVGID_24_" gradientUnits="userSpaceOnUse" x1="287.4151" y1="-1470.9615" x2="296.0979" y2="-1447.175" gradientTransform="matrix(1 0 0 1 0 1890)">
			<stop  offset="0" style="stop-color:#FFFFFF;stop-opacity:0"/>
			<stop  offset="0.1892" style="stop-color:#FCFEFF;stop-opacity:0.1135"/>
			<stop  offset="0.3264" style="stop-color:#F3F9FF;stop-opacity:0.1958"/>
			<stop  offset="0.4472" style="stop-color:#E3F1FF;stop-opacity:0.2683"/>
			<stop  offset="0.5585" style="stop-color:#CDE6FF;stop-opacity:0.3351"/>
			<stop  offset="0.6634" style="stop-color:#B0D7FF;stop-opacity:0.3981"/>
			<stop  offset="0.7635" style="stop-color:#8CC6FF;stop-opacity:0.4581"/>
			<stop  offset="0.8598" style="stop-color:#62B0FF;stop-opacity:0.5159"/>
			<stop  offset="0.9507" style="stop-color:#3299FF;stop-opacity:0.5704"/>
			<stop  offset="1" style="stop-color:#158AFF;stop-opacity:0.6"/>
		</linearGradient>
		<path class="st42" d="M281.5,441.1c0,0,6.3,2.6,11,1c4.7-1.5,4.7-7.5,4.5-17.2c-0.2-9.8,0.5-16.5,0.5-16.5s-2.9,9.1-3.1,18.2
			C294.3,435.8,295,440.2,281.5,441.1z"/>
		
			<linearGradient id="SVGID_25_" gradientUnits="userSpaceOnUse" x1="300.8" y1="-1494.2288" x2="303.9493" y2="-1485.6011" gradientTransform="matrix(1 0 0 1 0 1890)">
			<stop  offset="0" style="stop-color:#FFFFFF;stop-opacity:0"/>
			<stop  offset="0.1892" style="stop-color:#FCFEFF;stop-opacity:0.1135"/>
			<stop  offset="0.3264" style="stop-color:#F3F9FF;stop-opacity:0.1958"/>
			<stop  offset="0.4472" style="stop-color:#E3F1FF;stop-opacity:0.2683"/>
			<stop  offset="0.5585" style="stop-color:#CDE6FF;stop-opacity:0.3351"/>
			<stop  offset="0.6634" style="stop-color:#B0D7FF;stop-opacity:0.3981"/>
			<stop  offset="0.7635" style="stop-color:#8CC6FF;stop-opacity:0.4581"/>
			<stop  offset="0.8598" style="stop-color:#62B0FF;stop-opacity:0.5159"/>
			<stop  offset="0.9507" style="stop-color:#3299FF;stop-opacity:0.5704"/>
			<stop  offset="1" style="stop-color:#158AFF;stop-opacity:0.6"/>
		</linearGradient>
		<path class="st43" d="M298.1,405.8c0,0,8.3-4,7.5-14.3C305.7,391.5,304,399.5,298.1,405.8z"/>
		
			<linearGradient id="SVGID_26_" gradientUnits="userSpaceOnUse" x1="476.9311" y1="-1497.507" x2="478.2772" y2="-1493.8195" gradientTransform="matrix(0.9932 -0.1168 0.1168 0.9932 -47.4715 1993.9998)">
			<stop  offset="0" style="stop-color:#FFFFFF;stop-opacity:0"/>
			<stop  offset="0.1892" style="stop-color:#FCFEFF;stop-opacity:0.1135"/>
			<stop  offset="0.3264" style="stop-color:#F3F9FF;stop-opacity:0.1958"/>
			<stop  offset="0.4472" style="stop-color:#E3F1FF;stop-opacity:0.2683"/>
			<stop  offset="0.5585" style="stop-color:#CDE6FF;stop-opacity:0.3351"/>
			<stop  offset="0.6634" style="stop-color:#B0D7FF;stop-opacity:0.3981"/>
			<stop  offset="0.7635" style="stop-color:#8CC6FF;stop-opacity:0.4581"/>
			<stop  offset="0.8598" style="stop-color:#62B0FF;stop-opacity:0.5159"/>
			<stop  offset="0.9507" style="stop-color:#3299FF;stop-opacity:0.5704"/>
			<stop  offset="1" style="stop-color:#158AFF;stop-opacity:0.6"/>
		</linearGradient>
		<path class="st44" d="M264,443.4c0,0-0.7,8.8-24.8,16.3"/>
		
			<linearGradient id="SVGID_27_" gradientUnits="userSpaceOnUse" x1="1194.1276" y1="-1544.6827" x2="1195.8624" y2="-1539.9304" gradientTransform="matrix(0.894 -0.4481 0.4481 0.894 -97.0647 2341.5369)">
			<stop  offset="0" style="stop-color:#FFFFFF;stop-opacity:0"/>
			<stop  offset="0.1892" style="stop-color:#FCFEFF;stop-opacity:0.1135"/>
			<stop  offset="0.3264" style="stop-color:#F3F9FF;stop-opacity:0.1958"/>
			<stop  offset="0.4472" style="stop-color:#E3F1FF;stop-opacity:0.2683"/>
			<stop  offset="0.5585" style="stop-color:#CDE6FF;stop-opacity:0.3351"/>
			<stop  offset="0.6634" style="stop-color:#B0D7FF;stop-opacity:0.3981"/>
			<stop  offset="0.7635" style="stop-color:#8CC6FF;stop-opacity:0.4581"/>
			<stop  offset="0.8598" style="stop-color:#62B0FF;stop-opacity:0.5159"/>
			<stop  offset="0.9507" style="stop-color:#3299FF;stop-opacity:0.5704"/>
			<stop  offset="1" style="stop-color:#158AFF;stop-opacity:0.6"/>
		</linearGradient>
		<path class="st45" d="M290.4,410.8c0,0,3,10.9-22.8,30.7"/>
	</g>
</g>
</svg>
