<?xml version="1.0" encoding="utf-8"?>
<!-- Generator: Adobe Illustrator 22.0.1, SVG Export Plug-In . SVG Version: 6.00 Build 0)  -->
<svg version="1.1" id="Capa_1" xmlns="http://www.w3.org/2000/svg" xmlns:xlink="http://www.w3.org/1999/xlink" x="0px" y="0px"
	 viewBox="0 0 100 100" style="enable-background:new 0 0 100 100;" xml:space="preserve">
<path d="M33.6,33.8c1.9-5.6,8.6-6.7,12.1-2.3c2.7-3,5.8-3.6,9.7-1.4c0-2.2,0-4.2,0-6.2c0-2.2,0-4.4,0.2-6.5c0.3-2.7,2.6-4.7,5.6-5.2
	c2.4-0.4,5.4,1,6.4,3.3c0.5,1.1,0.8,2.3,0.9,3.5c0.2,7.6,0.3,15.2,0.4,22.9c0,0.3,0,0.6,0.1,0.9c2.6,0.3,4.8,1.3,6.5,3.3
	c1.1,1.4,1.9,3,1.9,4.7c0,4.8,0.5,9.7-0.4,14.4c-1.3,7.4-4.8,13.4-10.9,17.9c-5.6,4.1-12,5.3-18.8,4.8c-4.2-0.4-8.3-1.4-12-3.7
	c-4.2-2.6-7.1-6.3-9.1-10.8c-2-4.8-2.7-9.9-2.9-15c-0.2-5.6-0.5-11.2-0.7-16.9c-0.1-1.7-0.3-3.5,0.5-5.1c1.8-3.8,6.2-5.1,9.8-2.9
	C33.1,33.5,33.3,33.7,33.6,33.8z M45.7,52.2c-1.2,2.2-3,3.4-5.4,3.4c-2.4,0-4.1-1.2-5.4-3.3c-1.1,1.6-2.4,2.7-4.3,2.9
	c-1.8,0.3-3.4-0.3-5.1-1.6c0.1,2.5,0.2,4.8,0.4,7.1c0.3,4.5,1.2,8.9,3.2,13c2,4.1,5,7.3,9.2,9.2c5.6,2.6,11.6,3.1,17.6,1.9
	C65.6,83,72.3,75.1,74.3,66c1.1-5,0.7-10.1,0.6-15.1c-0.1-3.3-2.9-5.7-6.2-5.7c-2.4,0-4.8,0-7.2,0c-1.5,0-3.1,0.1-4.6,0.2
	c-1.3,0.2-2,1-2.1,2.4c-0.1,2.6,1.4,4.6,4.1,4.9c1.8,0.2,3.7,0.2,5.6,0.2c0.8,0,1.2,0.3,1.1,1.2c0,1.1,0,2.1,0,3.2
	c0,0.8-0.3,1.1-1.1,1.1c-1,0-2.1,0.1-3.1,0.2c-5.1,0.7-9.5,3-12.7,7.1c-0.2,0.2-0.5,0.4-1,0.7c0.2-1.5,0.8-2.5,1.5-3.3
	c3.5-4,8-5.8,13.2-6.3c1.5-0.1,1.4-0.1,1.5-1.3c0.1-1.4-0.9-1-1.5-1c-2.3,0-4.6,0.1-6.7-1.2C52.1,57.2,47.5,55.6,45.7,52.2z
	 M66.4,43.6c0-0.4,0-0.8,0-1.2c-0.1-7.7-0.3-15.4-0.4-23.1c0-2.6-1.4-4.4-3.5-4.7c-2.5-0.4-4.7,1.5-4.7,4.2
	C57.7,25.9,57.6,33,57.4,40c0,1.2,0,2.4,0,3.5C60.4,43.6,63.4,43.6,66.4,43.6z M44.4,35.5c-0.1-2.4-1.8-4.1-4.1-4.2
	c-2.5,0-4.4,1.8-4.4,4.3c0,4.6,0,9.2,0.2,13.9c0,0.9,0.3,1.9,0.8,2.7c1.1,1.7,3.1,2.2,4.9,1.6c1.7-0.6,2.8-2.2,2.8-4.1
	C44.6,47.3,44.4,36.7,44.4,35.5z M46.9,42.6c0,0,0,4.8,0,7.2c0,1.7,1.1,3.2,2.7,3.8c1.7,0.6,3.2,0.3,4.6-0.9
	c0.4-0.3,0.4-0.6,0.1-1.1c-0.4-0.6-0.7-1.3-0.9-2c-0.4-2.1-0.4-4,1.7-5.4c0.2-0.1,0.3-0.6,0.3-0.9c0-2.6,0-5.2,0-7.8
	c0-2.6-1.8-4.3-4.3-4.3c-2.5,0-4.2,1.8-4.2,4.4C46.9,38,46.9,40.3,46.9,42.6z M34.1,49.6c-0.2-3.8-0.4-7.1-0.5-10.4
	c-0.1-2.6-2-4.4-4.5-4.3c-2.4,0.1-4.2,2-4.1,4.5c0.1,3.5,0.3,6.9,0.5,10.4c0.2,2.4,2.2,4.2,4.5,4C32.7,53.4,34.1,51.9,34.1,49.6z" fill="white"/>
</svg>
