<?xml version="1.0" encoding="utf-8"?>
<!-- Generator: Adobe Illustrator 22.0.1, SVG Export Plug-In . SVG Version: 6.00 Build 0)  -->
<svg version="1.1" id="Capa_1" xmlns="http://www.w3.org/2000/svg" xmlns:xlink="http://www.w3.org/1999/xlink" x="0px" y="0px"
	 viewBox="0 0 100 100" style="enable-background:new 0 0 100 100;" xml:space="preserve">
<path d="M67.8,42.7c2.2,0,4.1,0.6,5.7,1.9c1.8,1.4,3.2,3.3,3.3,5.6c0.2,5,0.6,10.1-0.3,15.1c-0.9,4.8-2.8,9.1-5.8,13
	c-4.1,5.2-9.5,8.4-15.9,9.3c-7,1-13.9,0.2-20.1-3.7c-4.1-2.6-6.8-6.2-8.7-10.6c-1.7-3.9-2.5-8.1-2.7-12.3c-0.2-3.1-0.1-6.3-0.3-9.4
	c-0.2-3.6-0.4-7.2-0.7-10.9c-0.2-2.3,0.1-4.4,1.8-6.1c2.4-2.6,5.9-2.8,9.2-0.6c0.7-2.1,1.9-3.6,4-4.5c2-0.8,4-0.6,6.1,0.4
	c0-0.5,0.1-0.8,0.1-1.1c0-4.2,0-8.5,0-12.7c0-3,1.6-5.3,4.3-6.3c2.6-1,5.4-0.3,7.3,1.9c1.1,1.2,1.5,2.7,1.5,4.4
	c-0.1,3.7-0.1,7.3-0.2,11c0,0.4,0,0.8,0.1,1.2c0.3-2.8,0.6-5.5,0.9-8.3c0.2-2.7,1.8-4.8,4.4-5.7c2.5-0.8,5.2,0,7,2
	c1.7,2,1.7,4.3,1.4,6.7c-0.6,5.2-1.1,10.3-1.7,15.5C68.2,39.7,68,41.1,67.8,42.7z M25.3,53.9c0,6.6,0.4,13,3.1,19
	c1.9,4.2,4.8,7.6,8.9,9.7c3,1.6,6.2,2.3,9.6,2.6c4.6,0.4,9.1,0,13.4-1.9c4.5-2,7.8-5.2,10.4-9.4c1.7-2.8,2.8-5.8,3.4-9
	c0.8-4.6,0.5-9.2,0.4-13.8c-0.1-3.5-2.8-5.8-6.3-5.8c-3.2,0-6.5,0-9.7,0c-0.6,0-1.2,0.1-1.7,0.1c-1.6,0.3-2.3,1.1-2.3,2.8
	c0,2.5,1.5,4.3,4.2,4.6c1.7,0.2,3.5,0.2,5.3,0.2c1.2,0,1.3,0.1,1.3,1.3c0,0.7,0,1.5,0,2.2c0,1.8,0,1.9-1.9,2
	c-6,0.2-11.1,2.5-14.9,7.2c-0.2,0.3-0.5,0.4-0.8,0.6c-0.1-0.1-0.1-0.1-0.2-0.2c0.1-0.3,0.2-0.6,0.3-0.9c1.1-2.6,3.1-4.2,5.4-5.6
	c3-1.8,6.2-2.7,9.7-2.9c0.3,0,0.7-0.1,0.8-0.3c0.5-1.1-0.1-1.9-1.3-1.9c-0.7,0-1.5,0.1-2.2,0c-1.3-0.2-2.6-0.3-3.8-0.8
	c-3.2-1.3-4.6-5.8-2.7-8.4c0.4-0.6,0.6-1,0.6-1.8c0-7.5,0-15,0-22.5c0-2,0.1-4-0.1-6c-0.2-2.2-2.2-3.6-4.5-3.4
	c-1.9,0.1-3.6,1.9-3.6,3.9c-0.1,6.3-0.1,12.7-0.1,19c0,5.1,0.1,10.1,0.1,15.2c0,4.1-4.5,7-8.2,5.2c-1.2-0.6-2.1-1.6-3.1-2.4
	C31.8,55.8,29.7,56.1,25.3,53.9z M65.2,43.6c0.2-1.2,0.3-2.3,0.4-3.4c0.7-6.5,1.4-13,2.1-19.5c0.3-2.7-2.2-5-4.8-4.4
	c-2.1,0.4-3.1,1.7-3.4,4.2c-0.7,5.6-1.5,11.3-2.2,16.9c-0.3,2.1-0.6,4.2-0.8,6.3C59.4,43.6,62.3,43.6,65.2,43.6z M44.2,42.6
	c0,0-0.1,0-0.1,0c0-1.2,0-2.3,0-3.5c0-1.2-0.1-2.3-0.1-3.5c-0.1-2.6-1.7-4.3-4.2-4.3c-2.5,0-4.3,1.7-4.3,4.3c0,4.7,0.1,9.4,0.2,14.1
	c0.1,2.5,2,4.2,4.5,4.2c2.3-0.1,4.1-2,4.1-4.5C44.2,47.2,44.2,44.9,44.2,42.6z M33.5,46.7C33.5,46.7,33.5,46.7,33.5,46.7
	c-0.1-2.6-0.3-5.2-0.4-7.9c-0.1-1.7-1.3-3.3-2.8-3.8c-3-1-5.8,1.1-5.7,4.2c0.1,3.4,0.4,6.8,0.5,10.2c0.1,2.4,1.9,4.3,4.3,4.3
	c2.4,0,4.3-2,4.2-4.4C33.7,48.4,33.6,47.6,33.5,46.7z" fill="white"/>
</svg>
