<?xml version="1.0" encoding="utf-8"?>
<!-- Generator: Adobe Illustrator 22.0.1, SVG Export Plug-In . SVG Version: 6.00 Build 0)  -->
<svg version="1.1" id="Capa_1" xmlns="http://www.w3.org/2000/svg" xmlns:xlink="http://www.w3.org/1999/xlink" x="0px" y="0px"
	 viewBox="0 0 100 100" style="enable-background:new 0 0 100 100;" xml:space="preserve">
<path d="M56.4,31.9c0.3-3.9,0.7-7.8,1-11.7c0.2-2.7,1.7-4.6,4.2-5.5c2.4-0.9,4.5-0.4,6.4,1.3c2.2,2,2.4,4.4,2.1,7.1
	c-0.6,5-1.1,10.1-1.7,15.2c-0.2,1.5-0.3,3.1-0.5,4.7c0.3,0.1,0.5,0.1,0.8,0.1c4.5,0.1,8.2,3.9,8.3,8.6c0,3.7,0.2,7.3-0.2,11
	c-0.9,9.5-5.2,17-13.6,21.9c-4.6,2.7-9.6,3.5-14.9,3.2c-4-0.2-7.8-1-11.4-2.8c-4.5-2.3-7.8-5.8-10-10.4c-2.1-4.4-2.9-9.1-3.4-13.9
	c-0.6-6-1.4-12-2.2-18c-0.4-2.9-0.7-5.8-1.3-8.7c-0.3-1.8-0.1-3.4,0.9-4.9c2.2-3.2,6.1-3.7,9-1.7c0.2,0.2,0.4,0.3,0.8,0.6
	c-0.2-1.9-0.3-3.6-0.5-5.4c-0.2-2.1-0.2-4.1,1.2-5.9c1.7-2,3.9-2.9,6.4-2.3c2.7,0.6,4.5,2.3,5,5.1c0.4,2.7,0.5,5.4,0.8,8.2
	c0.1,0.9,0.2,1.8,0.4,2.7c-0.1-2.5-0.2-4.9-0.3-7.4c-0.1-2.2-0.2-4.4-0.3-6.6c0-3.5,2.9-6.5,6.4-6.6c3.5-0.1,6.5,2.8,6.5,6.4
	c0,4.6-0.2,9.3-0.3,13.9C56.3,30.7,56.3,31.3,56.4,31.9C56.3,31.9,56.3,31.9,56.4,31.9z M63.6,54.8c-1.3,0-2.5,0-3.6,0
	c-1.7-0.1-3.3-0.4-4.7-1.4c-2.3-1.6-3.2-5.5-1.7-7.6c0.6-0.7,0.7-1.4,0.7-2.3c0-6.4,0-12.8,0-19.3c0-2.5,0-5.1,0-7.6
	c0-2.1-1.2-3.8-3-4.2c-2.7-0.7-5.1,1.2-5.1,4.2C46.1,25.7,46,34.8,46,43.9c0,0.7-0.1,1.2-0.9,1.2c-0.8,0-1.3-0.2-1.4-1.1
	c-0.9-7.9-1.9-15.8-2.9-23.6c-0.3-2.3-2.3-3.8-4.6-3.6c-2.2,0.2-3.8,2.3-3.5,4.5c0.2,2.1,0.4,4.2,0.6,6.4c0.4,4.5,0.8,9,1.3,13.6
	c0.2,2.5,0.5,5,0.7,7.5c0,0.6,0,1-0.7,1.1c-0.6,0.1-1.1-0.1-1.2-0.9c-0.2-1.2-0.5-2.4-0.7-3.6c-0.8-4.6-1.6-9.1-2.5-13.7
	c-0.3-1.7-1.5-2.7-3.2-3c-1.5-0.2-2.8,0.3-3.7,1.5c-0.7,1.1-0.8,2.2-0.7,3.5c0.6,3.8,1.2,7.6,1.7,11.5c0.6,4.6,1.2,9.3,1.6,13.9
	c0.4,4.6,0.9,9.1,2.8,13.4c2.1,4.8,5.3,8.5,10.1,10.6c4.2,1.9,8.6,2.4,13.1,2.2c4-0.2,7.8-1.2,11.1-3.4c5.7-3.7,9.3-9.1,10.8-15.8
	c1.1-4.8,0.6-9.7,0.6-14.5c0-3.4-2.9-6.2-6.5-6.1c-3.1,0.1-6.2,0-9.3,0c-0.8,0-1.6,0.1-2.4,0.3c-1,0.2-1.6,0.9-1.7,1.9
	c-0.1,1.4,0.1,2.8,1.2,3.9c1,1,2.2,1.4,3.5,1.5c1.6,0.1,3.2,0.1,4.8,0.1c0.8,0,1.2,0.3,1.2,1.2c0,0.9,0,1.8,0,2.8
	c0,1.3-0.1,1.5-1.5,1.5c-3.1,0.1-6,0.7-8.7,2c-2.5,1.2-4.5,3-6.3,5.1c-0.2,0.3-0.6,0.5-0.8,0.7c-0.1-0.1-0.3-0.2-0.4-0.3
	c0.7-1.1,1.2-2.3,2-3.2c3.8-4,8.7-5.7,14.1-5.9C63.6,56.2,63.6,55.5,63.6,54.8z M65.4,43.9c0.3-2.4,0.5-4.6,0.7-6.8
	c0.6-5.3,1.2-10.5,1.7-15.8c0.2-2.3-1.3-4.2-3.4-4.5c-2.3-0.3-4.2,1.1-4.6,3.4c-0.1,0.8-0.2,1.6-0.3,2.4c-0.7,5.6-1.5,11.3-2.2,16.9
	c-0.2,1.5-0.4,3-0.6,4.5C59.6,43.9,62.4,43.9,65.4,43.9z" fill="white"/>
</svg>
