<?xml version="1.0" encoding="utf-8"?>
<!-- Generator: Adobe Illustrator 22.0.1, SVG Export Plug-In . SVG Version: 6.00 Build 0)  -->
<svg version="1.1" id="Capa_1" xmlns="http://www.w3.org/2000/svg" xmlns:xlink="http://www.w3.org/1999/xlink" x="0px" y="0px"
	 viewBox="0 0 100 100" style="enable-background:new 0 0 100 100;" xml:space="preserve">
<path d="M28,31.1c-0.2-2.1-0.3-3.9-0.6-5.7c-0.5-3.5,1.1-6.3,4.2-7.5c3.8-1.4,8.1,1.3,8.5,5.3c0.3,3,0.6,6,1,9
	c-0.1-2.8-0.2-5.6-0.3-8.4c0-1.9-0.2-3.9,0.1-5.8c0.5-2.9,3.2-5,6.1-5c2.9-0.1,5.6,2,6.4,4.9c0.2,0.8,0.2,1.8,0.2,2.6
	c-0.1,4.3-0.3,8.7-0.5,13c0,0.4,0,0.7,0.1,1.1c0.3-3.6,0.7-7.2,1-10.8c0.3-4,3.4-6.6,7.3-6.2c3.2,0.4,6,3.3,5.5,7.5
	C66.3,32,65.6,39,64.8,46c-0.2,2.3-0.4,4.5-0.7,6.8c0.1,0,0.2,0.1,0.3,0.1c0.5-0.9,1-1.8,1.5-2.6c1.2-1.9,2.2-3.9,3.6-5.7
	c1.4-1.9,3.3-3.3,5.7-3.7c4.1-0.7,7.8,3,6.8,7.1c-0.6,2.5-1.7,4.8-2.6,7.2c-2.3,5.8-4.7,11.6-7,17.4c-3.1,7.9-8.1,13.8-16.3,16.7
	c-3.2,1.1-6.6,1.5-10,1.3c-4.8-0.2-9.4-1.2-13.6-3.7c-4.2-2.5-7-6.2-8.9-10.6c-2.1-4.9-2.6-10-3-15.2c-0.3-3.9-0.9-7.8-1.4-11.7
	c-0.6-4.3-1.4-8.7-1.9-13c-0.3-2.5,0.8-4.6,3-5.9c2.4-1.4,4.7-1.2,7,0.3C27.4,30.7,27.6,30.8,28,31.1z M61.8,59.3
	c0-0.3,0.1-0.4,0.1-0.6c0.1-3.8,0.2-7.5,0.4-11.3c0.3-4.4,0.9-8.9,1.4-13.3c0.4-3.3,0.7-6.5,1-9.8c0.2-2.3-1.4-4.2-3.5-4.4
	c-2.3-0.2-4.2,1.3-4.5,3.6c-0.1,0.7-0.1,1.4-0.2,2.1c-0.6,4.6-1.2,9.2-1.8,13.8c-0.3,2.5-0.6,4.9-1,7.4c-0.1,0.6-0.2,1.1-1,1.2
	c-1.1,0.1-1.4-0.2-1.4-1.3c0-7.6,0-15.1,0-22.7c0-1.6,0-3.2,0-4.7c-0.1-2.5-2.4-4.2-4.8-3.8c-2,0.4-3.3,2.1-3.3,4.4
	c0,6.4,0,12.8-0.1,19.2c0,2.6,0,5.2,0,7.9c0,0.7-0.2,1.1-1,1.1c-0.7,0-1.2-0.1-1.2-0.9c-0.1-1.3-0.4-2.5-0.5-3.8
	c-0.8-6.7-1.6-13.3-2.5-20c-0.1-0.7-0.5-1.5-1-2.1c-1.2-1.4-3-1.7-4.6-1c-1.5,0.6-2.5,2.2-2.3,4c0.4,4.4,0.8,8.9,1.2,13.3
	c0.5,4.7,0.9,9.4,1.4,14.1c0.1,0.6-0.1,1-0.7,1.1c-0.6,0.1-1.1,0-1.3-0.8c-0.1-0.7-0.3-1.4-0.4-2.1c-0.9-5.1-1.8-10.1-2.8-15.2
	c-0.4-2-2.5-3.3-4.4-2.9c-2.1,0.4-3.4,2.3-3.1,4.4c0.6,4.3,1.3,8.6,1.9,12.9c0.7,5.4,1.2,10.9,1.8,16.4c0.4,3.4,1.1,6.7,2.5,9.9
	c2.2,5,5.7,8.8,10.8,10.8c4.7,1.9,9.5,2.3,14.5,1.6c3.8-0.5,7.2-1.9,10.2-4.1c4.5-3.4,7.3-8,9.2-13.3c1.6-4.5,3.4-8.9,5.2-13.3
	c1.2-2.9,2.5-5.8,3.6-8.7c0.7-1.9,0.3-3.6-1.1-4.6c-1.4-1.1-2.9-0.7-4.4,0c-1.6,0.8-2.7,2.1-3.5,3.6c-2.3,4.1-4.5,8.2-6.7,12.3
	c-0.5,0.9-1,1.2-2,1.3C56,61.3,51,63.3,47.3,67.9c-0.3,0.3-0.6,0.6-1.1,1c0-1.5,0.7-2.5,1.4-3.3C51.4,61.3,56.3,59.6,61.8,59.3z" fill="white"/>
</svg>
