<?xml version="1.0" encoding="utf-8"?>
<!-- Generator: Adobe Illustrator 22.0.1, SVG Export Plug-In . SVG Version: 6.00 Build 0)  -->
<svg version="1.1" id="Capa_1" xmlns="http://www.w3.org/2000/svg" xmlns:xlink="http://www.w3.org/1999/xlink" x="0px" y="0px"
	 viewBox="0 0 100 100" style="enable-background:new 0 0 100 100;" xml:space="preserve">
<path d="M43.7,29.3c0-1.3,0-2.7,0-4c-0.1-3.2-0.3-6.3-0.3-9.5c0-3.4,2.7-6.2,6.2-6.5c3.1-0.2,6.3,2.3,6.7,5.5c0.2,1.6,0,3.3,0,4.9
	c-0.1,3.3-0.2,6.5-0.3,9.8c0,0.4,0,0.9,0.1,1.3c0.3-3.3,0.6-6.6,0.9-9.9c0.2-2.1,0.6-4,2.3-5.4c2-1.8,4.9-2.1,7.3-0.9
	c2.4,1.2,3.8,3.9,3.5,6.5c-0.8,7.1-1.6,14.1-2.3,21.2c0,0.1,0,0.2,0,0.3c1.4,0.4,2.7,0.6,4,1.1c2.9,1.3,4.8,3.6,4.9,6.7
	c0.3,4.9,0.5,9.8-0.3,14.7c-1.4,7.8-5.1,14.1-11.7,18.5c-5,3.4-10.6,4.5-16.5,4.2c-4-0.2-7.9-1-11.6-2.8c-4.6-2.3-7.9-5.8-10.1-10.4
	c-2.3-4.8-3.2-10-3.5-15.2c-0.3-6.4-0.5-12.8-0.8-19.2c-0.1-1.4,0.1-2.8,0.8-4.1c1.5-2.7,4.3-4,7.3-3.4c0.2,0,0.3,0.1,0.6,0.1
	c0-0.4,0-0.7,0-1c-0.3-3.4-0.5-6.8-0.9-10.1c-0.3-2,0.1-3.7,1.2-5.2c1.5-2,4.3-3,6.8-2.4c2.6,0.7,4.6,2.9,4.8,5.5c0.3,3,0.5,6,0.8,9
	C43.6,28.8,43.6,29.1,43.7,29.3C43.7,29.3,43.7,29.3,43.7,29.3z M63.5,54.6c-1.3,0-2.4,0-3.6,0c-1.7-0.1-3.4-0.4-4.9-1.4
	c-2.1-1.5-3.2-5.5-1.7-7.4c0.7-0.9,0.8-1.7,0.7-2.7c0-0.1,0-0.2,0-0.3c0-8.9,0-17.8-0.1-26.7c0-0.9-0.3-1.9-0.8-2.6
	c-1-1.5-2.9-2.1-4.6-1.5c-1.6,0.5-2.8,2.1-2.8,4c-0.1,9.3-0.1,18.5-0.2,27.8c0,0.8-0.2,1.1-1,1.2c-0.7,0-1.2-0.2-1.3-1
	c0-0.7-0.1-1.4-0.2-2.1c-0.9-7.1-1.7-14.2-2.7-21.3c-0.1-1-0.6-2-1.2-2.8c-1.1-1.4-3.2-1.7-4.8-0.9c-1.5,0.7-2.4,2.5-2.2,4.2
	c0.3,2.5,0.4,5.1,0.8,7.6c0.4,3.1,0.1,6.2,1.6,9.1c0.1,0.2,0.1,0.4,0.1,0.6c0.2,3.7,0.5,7.3,0.6,11c0.1,4.3-3.8,7.1-7.9,5.7
	c-0.7-0.2-1.3-0.6-1.9-1c-0.1,0.1-0.1,0.1-0.1,0.2c0,0.5,0,1.1,0,1.6c0,5.6,0.6,11.2,2.8,16.5c2,4.7,5.1,8.4,9.8,10.6
	c5.5,2.6,11.3,3.1,17.3,2c5.3-1,9.6-3.7,13.1-7.8c3.3-3.9,5.3-8.5,5.8-13.6c0.3-3.9,0.1-7.8,0.3-11.7c0.2-3.4-2.7-6.7-6.6-6.6
	c-3.1,0.1-6.1,0-9.2,0c-0.8,0-1.7,0.1-2.5,0.3c-1.2,0.3-1.8,1-1.8,2.3c-0.1,2.9,1.6,4.8,4.6,5c1.6,0.1,3.3,0.1,4.9,0.1
	c0.9,0,1.3,0.3,1.3,1.2c0,0.9,0,1.8,0,2.7c0,1.4-0.1,1.5-1.5,1.6c-6.1,0.2-11.3,2.4-15.2,7.3c-0.2,0.2-0.5,0.4-0.7,0.6
	c-0.1,0-0.1-0.1-0.2-0.1c0.1-0.3,0.1-0.6,0.3-0.9c1.4-3.2,4.1-5,7.2-6.5c2.5-1.2,5.1-1.8,7.9-1.9c0.6,0,0.9-0.2,0.8-0.8
	C63.5,55.6,63.5,55.2,63.5,54.6z M56.4,43.7c2.8,0,5.4,0,8,0c0.6,0,0.8-0.2,0.9-0.8c0.2-2,0.4-4.1,0.6-6.1
	c0.6-5.4,1.2-10.7,1.8-16.1c0.2-1.6-0.8-3.3-2.2-3.9c-1.5-0.7-3.3-0.4-4.6,0.6c-1.4,1.2-1.4,2.9-1.6,4.5c-0.8,5.7-1.5,11.4-2.2,17.1
	C56.9,40.5,56.7,42.1,56.4,43.7z M24.7,39.6c0.2,3.9,0.4,7.1,0.6,10.3c0.2,2.3,2.1,4.1,4.4,4c2.2-0.1,4.2-2,4.1-4.3
	c-0.1-3.6-0.3-7.3-0.6-10.9c-0.1-1.6-1.1-2.7-2.6-3.3c-1.5-0.6-3-0.4-4.3,0.6C24.9,37.1,24.5,38.6,24.7,39.6z" fill="white"/>
</svg>
