<?xml version="1.0"?>
<svg xmlns="http://www.w3.org/2000/svg" viewBox="0 0 50 50">
    <path d="M 18.529297 3 A 1.0001 1.0001 0 0 0 17.605469 3.5527344 L 16.726562 5.3125 L 15.707031 4.2929688 A 1.0001 1.0001 0 0 0 14.011719 4.8476562 L 12.056641 17.558594 C 11.703378 17.892019 11 18.646701 11 20 L 11 20.824219 C 9.770342 22.008248 9 23.666345 9 25.5 C 9 27.563235 9.9758457 29.403268 11.484375 30.595703 C 11.27584 31.463828 10.993089 32.372738 10.708984 33.21875 C 10.359049 34.260797 10.011719 35.096283 10.011719 36 C 10.011719 36.967485 10.600044 37.717956 11.296875 38.292969 C 11.993706 38.867982 12.873414 39.331554 13.847656 39.724609 C 15.151909 40.250807 16.615195 40.627591 18.013672 40.830078 A 1.0001 1.0001 0 0 0 18.001953 41.0625 C 18.001953 41.0625 18.034093 41.75352 18.414062 42.46875 C 18.792448 43.181005 19.7018 43.989353 20.986328 43.996094 C 20.999378 44.027534 21.010399 44.061406 21.011719 44.066406 L 21 45.994141 A 1.0001 1.0001 0 1 0 23 46.005859 L 23.011719 44.005859 A 1.0001 1.0001 0 0 0 23.007812 43.927734 C 23.007812 43.927734 22.986982 43.485908 22.736328 43.023438 C 22.485661 42.560969 21.824366 42 21 42 C 20.418056 42 20.330972 41.81602 20.179688 41.53125 C 20.053409 41.29355 20.020208 41.077662 20.009766 41 C 20.010386 41 20.011098 41 20.011719 41 C 23.128641 41 25.192638 40.746438 26.505859 40.480469 C 27.037974 40.372699 27.434136 40.257209 27.751953 40.154297 L 28.304688 40.707031 A 1.0001 1.0001 0 1 0 29.71875 39.292969 L 28.765625 38.341797 A 1.0004591 1.0004591 0 0 0 28.695312 38.269531 L 27.71875 37.292969 A 1.0001 1.0001 0 0 0 27 36.990234 A 1.0001 1.0001 0 0 0 26.148438 38.509766 C 26.129299 38.513706 26.129019 38.515553 26.109375 38.519531 C 24.953847 38.753562 23.019797 39 20.011719 39 C 18.47451 39 16.287718 38.551779 14.595703 37.869141 C 13.749696 37.527821 13.023795 37.124206 12.570312 36.75 C 12.116831 36.375794 12.011719 36.095015 12.011719 36 C 12.011719 35.840717 12.256404 34.894921 12.605469 33.855469 C 12.83513 33.171577 13.090181 32.403522 13.306641 31.609375 C 13.748189 31.768948 14.21008 31.883024 14.689453 31.943359 C 15.107537 32.553366 15.703788 33 16.5 33 L 18 33 A 1.0001 1.0001 0 1 0 18 31 L 16.5 31 C 16.220455 31 16 30.779545 16 30.5 C 16 30.220455 16.220455 30 16.5 30 L 20.5 30 A 1.0001 1.0001 0 0 0 20.789062 29.960938 C 21.975349 31.212788 23.647675 32 25.5 32 C 29.078006 32 32 29.078006 32 25.5 C 32 21.921994 29.078006 19 25.5 19 C 23.49132 19 21.690341 19.922382 20.496094 21.363281 C 19.301882 19.923867 17.507969 19 15.5 19 C 14.683596 19 13.904742 19.158267 13.183594 19.435547 C 13.37857 19.070014 13.658203 18.751953 13.658203 18.751953 A 1.0001 1.0001 0 0 0 13.988281 18.152344 L 15.6875 7.1015625 L 16.292969 7.7070312 A 1.0001 1.0001 0 0 0 17.894531 7.4472656 L 18.580078 6.0761719 L 19.142578 7.0136719 A 1.0001 1.0001 0 0 0 20.78125 7.125 L 21.882812 5.7480469 L 22.642578 7.0136719 A 1.0001 1.0001 0 0 0 24.28125 7.125 L 25.382812 5.7480469 L 26.142578 7.0136719 A 1.0001 1.0001 0 0 0 27.707031 7.2070312 L 28.5625 6.3515625 L 29.050781 7.8164062 A 1.0001 1.0001 0 0 0 30.625 8.28125 L 31.794922 7.3457031 L 32.013672 8.6640625 A 1.0001 1.0001 0 0 0 33.513672 9.3574219 L 34.755859 8.6132812 L 35.013672 10.164062 A 1.0001 1.0001 0 0 0 36.599609 10.800781 L 37.330078 10.251953 L 37.519531 11.195312 A 1.0001 1.0001 0 0 0 38.871094 11.927734 L 39.435547 11.703125 C 35.710362 23.340853 34.473723 30.035619 34.152344 32 C 34.082531 32.003744 33.916016 32.003906 33.916016 32.003906 A 1.0001 1.0001 0 1 0 34.083984 33.996094 C 34.083984 33.996094 34.691887 33.962953 35.220703 34.117188 C 35.485111 34.194308 35.695366 34.311661 35.810547 34.431641 C 35.925728 34.551621 36 34.659722 36 35 C 36 35.939815 35.800487 36.159851 35.626953 36.287109 C 35.453419 36.414368 35.058333 36.5 34.5 36.5 C 34.296496 36.5 33.523438 36.148438 33.523438 36.148438 A 1.0001 1.0001 0 1 0 32.476562 37.851562 C 32.476562 37.851562 32.656113 37.974355 32.923828 38.109375 C 32.662245 39.038482 32.136218 41.273574 32.058594 44.412109 C 31.972224 44.457029 31.924425 44.492659 31.744141 44.554688 C 31.157204 44.756627 30.013889 45 28 45 A 1.0001 1.0001 0 1 0 28 47 C 30.173111 47 31.528218 46.743373 32.394531 46.445312 C 32.827688 46.296282 33.138947 46.136133 33.359375 45.990234 C 33.579803 45.844336 33.775391 45.630859 33.775391 45.630859 A 1.0001 1.0001 0 0 0 34 45 C 34 40.949793 34.77532 38.781161 34.886719 38.488281 C 35.496733 38.464321 36.18213 38.361228 36.810547 37.900391 C 37.574513 37.340149 38 36.310185 38 35 C 38 34.215278 37.699272 33.510879 37.251953 33.044922 C 36.904729 32.683229 36.505283 32.479693 36.115234 32.330078 C 36.388387 30.514631 37.60932 23.440437 41.949219 10.314453 A 1.0001 1.0001 0 0 0 40.628906 9.0722656 L 39.244141 9.625 L 38.980469 8.3046875 A 1.0001 1.0001 0 0 0 37.400391 7.6992188 L 36.714844 8.2128906 L 36.486328 6.8359375 A 1.0001 1.0001 0 0 0 34.986328 6.1425781 L 33.744141 6.8867188 L 33.486328 5.3359375 A 1.0001 1.0001 0 0 0 31.875 4.71875 L 30.496094 5.8222656 L 29.949219 4.1835938 A 1.0001 1.0001 0 0 0 28.292969 3.7929688 L 27.199219 4.8867188 L 26.357422 3.4863281 A 1.0001 1.0001 0 0 0 24.71875 3.375 L 23.617188 4.7519531 L 22.857422 3.4863281 A 1.0001 1.0001 0 0 0 21.21875 3.375 L 20.117188 4.7519531 L 19.357422 3.4863281 A 1.0001 1.0001 0 0 0 18.529297 3 z M 15.5 21 C 17.181432 21 18.628486 21.920352 19.402344 23.275391 C 19.146821 23.971095 19 24.717956 19 25.5 C 19 26.384944 19.17875 27.229598 19.501953 28 L 16.5 28 C 15.386607 28 14.443862 28.751058 14.125 29.765625 C 13.818103 29.667581 13.527676 29.540711 13.253906 29.382812 A 1.0001 1.0001 0 0 0 12.958984 29.21875 C 11.774322 28.410833 11 27.052021 11 25.5 C 11 23.002268 13.002268 21 15.5 21 z M 25.5 21 C 27.997126 21 30 23.002874 30 25.5 C 30 27.997126 27.997126 30 25.5 30 C 23.002874 30 21 27.997126 21 25.5 C 21 23.002874 23.002874 21 25.5 21 z M 16 25 A 1 1 0 0 0 15 26 A 1 1 0 0 0 16 27 A 1 1 0 0 0 17 26 A 1 1 0 0 0 16 25 z M 26 26 A 1 1 0 0 0 25 27 A 1 1 0 0 0 26 28 A 1 1 0 0 0 27 27 A 1 1 0 0 0 26 26 z"/>
</svg>
