<?xml version="1.0"?>
<svg xmlns="http://www.w3.org/2000/svg" viewBox="0 0 50 50">
    <path d="M 25 3 C 20.388681 3 17.313826 5.7801666 15.509766 8.4394531 C 13.847778 10.889317 13.219673 13.120355 13.119141 13.490234 C 12.809919 13.768063 12 14.566669 12 16 L 12 16.609375 C 10.223497 17.523741 9 19.373802 9 21.5 C 9 23.04715 9.6503857 24.445985 10.685547 25.447266 C 10.260371 26.026677 10 26.732818 10 27.5 L 10 28.5 L 10.205078 28.5 C 10.275952 28.730108 10.375892 28.945788 10.488281 29.154297 C 10.399947 29.255121 10.321778 29.333123 10.222656 29.466797 C 9.8723481 29.939214 9.441638 30.650583 9.0644531 31.644531 C 9.0772071 31.610921 8.9471594 31.853516 8.7558594 32.126953 C 8.5645593 32.400391 8.3142733 32.744029 8.0625 33.130859 C 7.5589534 33.904519 7 34.848962 7 36 A 1.0001 1.0001 0 0 0 7.0976562 36.431641 C 7.0976562 36.431641 7.6100971 37.444185 8.8339844 38.314453 C 9.3954667 38.713706 10.125585 39.097697 11.027344 39.400391 C 11.045722 39.537461 11.054625 39.667674 11.085938 39.8125 C 11.289167 40.752506 11.973306 41.851574 13.177734 42.576172 C 13.363388 42.938019 13.785239 43.844171 14.777344 44.599609 C 15.11757 44.858677 15.527102 45.09167 16 45.294922 L 16 46 A 1.0001 1.0001 0 1 0 18 46 L 18 45.849609 C 18.597794 45.943107 19.256229 46 20 46 C 23.785714 46 25.96708 44.254536 26.988281 42.503906 C 27.957643 40.842142 27.986696 39.275995 27.988281 39.111328 C 27.990981 39.090678 28.15505 37.832335 27.671875 36.248047 C 27.184757 34.650829 26.014087 32.657385 23.517578 31.144531 C 19.925114 28.966804 14.710936 29 14.710938 29 L 14.703125 29 L 13.5 29 C 12.670455 29 12 28.329545 12 27.5 C 12 26.670455 12.670455 26 13.5 26 L 18.035156 26 C 19.193633 27.799833 21.209962 29 23.5 29 C 27.078006 29 30 26.078006 30 22.5 C 30 18.921994 27.078006 16 23.5 16 C 21.63926 16 19.960633 16.794832 18.773438 18.056641 C 17.762747 16.805973 16.224426 16 14.5 16 C 14.33134 16 14.164902 16.010345 14 16.025391 L 14 16 C 14 15.467593 14.658203 14.751953 14.658203 14.751953 A 1.0001 1.0001 0 0 0 14.96875 14.248047 C 14.96875 14.248047 15.578076 11.90126 17.166016 9.5605469 C 18.753084 7.2211179 21.177087 5.0024353 24.994141 5 C 24.994141 5 28.341869 5.031828 31.632812 6.3339844 C 33.278287 6.9850626 34.879706 7.9453735 36.050781 9.3222656 C 37.221857 10.699158 38 12.483406 38 15 C 38 16.606896 37.993003 18.238174 37.517578 20.144531 A 1.0001 1.0001 0 0 0 36.970703 20 A 1.0001 1.0001 0 0 0 36.142578 20.486328 L 33.142578 25.486328 A 1.0001 1.0001 0 1 0 34.857422 26.513672 L 36 24.609375 L 36 27 A 1.0001 1.0001 0 0 0 37.857422 27.513672 L 39 25.609375 L 39 28 A 1.0001 1.0001 0 1 0 41 28 L 41 22 A 1.0001 1.0001 0 0 0 39.275391 21.3125 C 39.996815 18.851646 40 16.774556 40 15 C 40 12.056094 39.028143 9.7348422 37.574219 8.0253906 C 36.120294 6.315939 34.221715 5.2084061 32.367188 4.4746094 C 28.658133 3.0070159 25.005859 3 25.005859 3 A 1.0001 1.0001 0 0 0 25 3 z M 14.5 18 C 15.837798 18 16.987863 18.744709 17.578125 19.835938 C 17.209336 20.650321 17 21.551058 17 22.5 C 17 23.01695 17.068438 23.517272 17.183594 24 L 13.5 24 C 13.082006 24 12.685423 24.087725 12.3125 24.224609 C 11.514438 23.58421 11 22.60988 11 21.5 C 11 19.555577 12.555577 18 14.5 18 z M 23.5 18 C 25.997126 18 28 20.002874 28 22.5 C 28 24.997126 25.997126 27 23.5 27 C 21.002874 27 19 24.997126 19 22.5 C 19 20.002874 21.002874 18 23.5 18 z M 14 21 A 1 1 0 0 0 13 22 A 1 1 0 0 0 14 23 A 1 1 0 0 0 15 22 A 1 1 0 0 0 14 21 z M 25 22 A 1 1 0 0 0 24 23 A 1 1 0 0 0 25 24 A 1 1 0 0 0 26 23 A 1 1 0 0 0 25 22 z M 35.896484 29 C 34.905708 29 34.148008 29.345543 33.681641 29.726562 C 33.215273 30.107582 32.984375 30.591797 32.984375 30.591797 A 1.0001779 1.0001779 0 1 0 34.810547 31.408203 C 34.810547 31.408203 34.801647 31.392413 34.947266 31.273438 C 35.092898 31.154457 35.335261 31 35.896484 31 C 36.468447 31 36.605084 31.109669 36.734375 31.279297 C 36.863666 31.448925 37 31.856348 37 32.53125 C 37 32.487405 36.858955 32.98907 36.464844 33.349609 C 36.070732 33.710149 35.506372 34 34.748047 34 A 1.0001 1.0001 0 0 0 33.748047 35.042969 C 33.748047 35.042969 34.030377 42.545233 35.035156 46.261719 A 1.0001 1.0001 0 1 0 36.964844 45.738281 C 36.207046 42.935332 35.872827 37.057108 35.804688 35.794922 C 36.598478 35.600883 37.311724 35.284124 37.814453 34.824219 C 38.535592 34.164509 39 33.430095 39 32.53125 C 39 31.624152 38.86038 30.767278 38.326172 30.066406 C 37.791963 29.365534 36.876522 29 35.896484 29 z M 11.890625 30.587891 C 12.368445 30.84957 12.914674 31 13.5 31 L 14.685547 31 C 14.685547 31 19.680886 31.157196 22.482422 32.855469 C 24.561913 34.115615 25.390884 35.622499 25.759766 36.832031 C 26.128648 38.041563 26.009766 38.865234 26.009766 38.865234 L 26 38.931641 L 26 39 C 26 39 25.9905 40.246724 25.261719 41.496094 C 24.53292 42.745464 23.214286 44 20 44 C 17.778474 44 16.637885 43.504407 15.988281 43.009766 C 15.338677 42.515124 15.155057 42.034347 14.880859 41.525391 L 14.714844 41.216797 L 14.390625 41.080078 C 13.700704 40.787 13.368009 40.357836 13.183594 39.882812 C 13.745192 39.9544 14.34491 40 15 40 C 17.84093 40 19.665698 39.745401 20.816406 39.472656 C 21.391761 39.336284 21.798851 39.196211 22.078125 39.078125 C 22.357399 38.960039 22.570312 38.820312 22.570312 38.820312 A 1.0001 1.0001 0 1 0 21.429688 37.179688 C 21.429688 37.179688 21.462988 37.164955 21.298828 37.234375 C 21.134664 37.303785 20.834864 37.413716 20.355469 37.527344 C 19.396677 37.754596 17.72107 38 15 38 C 12.398791 38 10.879753 37.315279 9.9941406 36.685547 C 9.2666981 36.168285 9.1705984 35.901576 9.0976562 35.767578 C 9.1650843 35.34839 9.364648 34.796715 9.7382812 34.222656 C 9.953258 33.892361 10.185894 33.571655 10.394531 33.273438 C 10.603169 32.975217 10.789793 32.739581 10.935547 32.355469 C 11.246362 31.536417 11.584387 30.989536 11.830078 30.658203 C 11.873158 30.600107 11.856356 30.631 11.890625 30.587891 z"/>
</svg>
