<?xml version="1.0"?>
<svg xmlns="http://www.w3.org/2000/svg" viewBox="0 0 50 50">
    <path d="M 23 3 C 22.084672 3 21.620909 3.4833264 21.058594 3.9765625 C 20.496278 4.4697986 19.926486 5.0845704 19.390625 5.7050781 C 18.854764 6.3255859 18.35773 6.9509253 17.970703 7.4414062 C 17.784442 7.677456 17.626894 7.8762411 17.503906 8.03125 C 17.336857 8.0166184 17.134738 7.9949016 16.851562 7.9511719 C 16.166432 7.8453697 15.229337 7.6691933 14.238281 7.4921875 C 13.247225 7.3151817 12.201237 7.1384328 11.257812 7.03125 C 10.314388 6.9240672 9.5204208 6.8508953 8.7734375 7.0253906 A 1.0001 1.0001 0 0 0 8.03125 7.75 C 7.4767547 9.8981147 7.6844073 12.65981 7.9824219 15.791016 C 7.9111759 15.857316 7.8245293 15.93778 7.6621094 16.052734 C 7.2500699 16.344359 6.6220543 16.712743 5.9804688 17.089844 C 5.338883 17.466944 4.6838021 17.852475 4.1425781 18.257812 C 3.8719661 18.460482 3.6263602 18.663352 3.4101562 18.925781 C 3.1939523 19.18821 2.9429649 19.565722 3.0078125 20.117188 A 1.0001 1.0001 0 0 0 3.0488281 20.310547 C 3.6416806 22.125861 4.9901767 23.685804 6.1699219 24.857422 C 7.061411 25.74277 7.7295221 26.275079 8.078125 26.544922 C 8.031539 26.857648 8 27.174722 8 27.5 C 8 29.682045 9.0907019 31.614821 10.75 32.794922 C 10.16546 33.334371 9.6300872 33.785613 9.203125 34.148438 C 8.9232791 34.386243 8.676787 34.599806 8.4550781 34.867188 C 8.2333692 35.134568 8 35.510317 8 36 C 8 37.360878 8.9883941 38.493131 10.513672 39.416016 C 11.85122 40.225312 13.690467 40.833302 16 40.970703 A 1.0001 1.0001 0 0 0 16.001953 41.0625 C 16.001953 41.0625 16.034093 41.75352 16.414062 42.46875 C 16.79224 43.180614 17.700966 43.988473 18.984375 43.996094 C 18.997845 44.028184 19.010399 44.063339 19.011719 44.068359 L 19 45.994141 A 1.0001 1.0001 0 1 0 21 46.005859 L 21.011719 44.005859 A 1.0001 1.0001 0 0 0 21.007812 43.925781 C 21.007812 43.925781 20.987022 43.485546 20.736328 43.023438 C 20.485625 42.561326 19.824245 42 19 42 C 18.418056 42 18.330972 41.81602 18.179688 41.53125 C 18.047091 41.281658 18.013644 41.046826 18.005859 40.984375 C 21.283621 40.942983 23.568855 40.72209 25.025391 40.486328 C 26.094888 40.313215 26.657647 40.155039 27.001953 40.044922 A 1.0001 1.0001 0 0 0 29 40 C 29 37.400765 26.482422 36.125 26.482422 36.125 A 1.0001 1.0001 0 0 0 26.005859 35.994141 A 1.0001 1.0001 0 0 0 25.517578 37.875 C 25.517578 37.875 25.736347 38.032786 25.990234 38.251953 C 25.694534 38.326006 25.337775 38.411576 24.707031 38.513672 C 23.226749 38.753277 20.778393 39 17 39 C 14.534578 39 12.711301 38.408444 11.548828 37.705078 C 10.469996 37.05232 10.102356 36.309905 10.048828 36.091797 C 10.131988 36.000157 10.271957 35.864001 10.498047 35.671875 C 10.999167 35.246034 11.781062 34.627196 12.677734 33.734375 C 13.005189 33.830631 13.343126 33.89977 13.689453 33.943359 C 14.107537 34.553366 14.703788 35 15.5 35 L 17 35 A 1.0001 1.0001 0 1 0 17 33 L 15.5 33 C 15.220455 33 15 32.779545 15 32.5 C 15 32.220455 15.220455 32 15.5 32 L 19.5 32 A 1.0001 1.0001 0 0 0 19.789062 31.960938 C 20.975349 33.212788 22.647675 34 24.5 34 C 27.670725 34 30.321289 31.703766 30.884766 28.691406 C 30.916192 28.700156 30.930703 28.697971 30.960938 28.707031 C 31.343173 28.821576 31.650391 28.9375 31.650391 28.9375 A 1.0005662 1.0005662 0 1 0 32.349609 27.0625 C 32.349609 27.0625 31.98717 26.928424 31.535156 26.792969 C 31.346082 26.736309 31.142067 26.680143 30.933594 26.628906 C 30.846755 25.988344 30.668694 25.376668 30.408203 24.808594 C 30.563768 24.648341 30.748387 24.471417 30.923828 24.324219 C 31.276786 24.02808 31.574219 23.818359 31.574219 23.818359 A 1.0001 1.0001 0 0 0 31.056641 21.992188 A 1.0001 1.0001 0 0 0 30.957031 21.992188 A 1.0001 1.0001 0 0 0 30.425781 22.181641 C 30.425781 22.181641 30.062214 22.435655 29.638672 22.791016 C 29.523756 22.887432 29.400345 23.006706 29.279297 23.115234 C 28.851276 22.649253 28.358612 22.245902 27.8125 21.919922 C 28.279508 21.146574 28.712891 20.701172 28.712891 20.701172 A 1.0001 1.0001 0 0 0 27.972656 18.990234 A 1.0001 1.0001 0 0 0 27.287109 19.298828 C 27.287109 19.298828 26.606203 20.018578 25.951172 21.169922 C 25.4836 21.062288 24.999275 21 24.5 21 C 24.361907 21 24.227797 21.01485 24.091797 21.023438 C 24.034328 20.790678 23.976495 20.491988 23.964844 20.203125 C 23.941064 19.613694 23.994141 19.105469 23.994141 19.105469 A 1.0001 1.0001 0 0 0 22.992188 17.986328 A 1.0001 1.0001 0 0 0 22.005859 18.894531 C 22.005859 18.894531 21.936317 19.527634 21.966797 20.283203 C 21.981769 20.65446 21.99434 21.063329 22.083984 21.478516 C 21.073353 21.887481 20.182022 22.535685 19.496094 23.363281 C 19.358599 23.197555 19.211399 23.040107 19.058594 22.888672 C 19.241087 22.187514 19.679687 21.734375 19.679688 21.734375 A 1.0001 1.0001 0 0 0 19.019531 19.990234 A 1.0001 1.0001 0 0 0 18.320312 20.265625 C 18.320312 20.265625 17.756663 20.783388 17.357422 21.673828 C 16.582122 21.2891 15.719963 21.061168 14.808594 21.017578 C 14.718312 20.521896 14.649498 19.895682 14.876953 19.482422 A 1.0001 1.0001 0 0 0 13.994141 17.988281 A 1.0001 1.0001 0 0 0 13.123047 18.517578 C 12.583233 19.498345 12.609325 20.501972 12.746094 21.248047 C 12.144494 21.417752 11.578615 21.67252 11.060547 21.998047 C 11.032981 21.99509 10.945526 21.980867 10.736328 21.851562 C 10.488901 21.698631 10.172438 21.431551 9.9570312 20.712891 A 1.0001 1.0001 0 0 0 8.9902344 19.986328 A 1.0001 1.0001 0 0 0 8.0429688 21.287109 C 8.3496554 22.310308 8.919266 22.984756 9.4707031 23.392578 C 9.1902593 23.735044 8.9470839 24.106922 8.7402344 24.501953 C 8.4035471 24.215025 8.0123063 23.868704 7.5800781 23.439453 C 6.6046145 22.470709 5.6260084 21.196542 5.140625 20.033203 C 5.207571 19.972713 5.2366939 19.934673 5.3398438 19.857422 C 5.7384629 19.558884 6.3588514 19.1859 6.9941406 18.8125 C 7.6294298 18.4391 8.279852 18.065298 8.8164062 17.685547 C 9.0846834 17.495672 9.3247914 17.308757 9.5429688 17.070312 C 9.7611459 16.831868 10.053298 16.497315 9.9960938 15.904297 C 9.7203595 13.041244 9.6412253 10.67189 9.9082031 8.9902344 C 10.250675 8.9854744 10.495284 8.9566861 11.03125 9.0175781 C 11.892513 9.1154261 12.909025 9.2863183 13.886719 9.4609375 C 14.864413 9.6355567 15.802318 9.8127553 16.546875 9.9277344 C 16.919153 9.9852234 17.238893 10.028521 17.525391 10.044922 C 17.66864 10.053122 17.801263 10.058036 17.962891 10.041016 C 18.124518 10.023986 18.347207 10.066856 18.707031 9.7070312 C 18.857065 9.5569974 18.917466 9.466592 19.050781 9.2988281 C 19.184096 9.1310642 19.348826 8.9207751 19.539062 8.6796875 C 19.919536 8.1975122 20.401158 7.5962891 20.904297 7.0136719 C 21.407436 6.4310546 21.937269 5.8661388 22.376953 5.4804688 C 22.698005 5.1988529 23.014622 5.0751201 23.064453 5.0273438 C 23.123145 5.0520256 23.216768 5.1002193 23.376953 5.2324219 C 23.637203 5.4472076 23.981844 5.8189503 24.367188 6.2832031 C 25.137874 7.2117088 26.084682 8.4987449 27.292969 9.7070312 A 1.0001 1.0001 0 0 0 28.492188 9.8710938 C 28.492188 9.8710938 30.224737 8.8923156 32.056641 8.0429688 C 32.972592 7.618295 33.916572 7.2295674 34.625 7.0195312 C 34.941611 6.9256623 35.18286 6.8838591 35.347656 6.8671875 C 35.367776 6.9089565 35.350454 6.8708376 35.371094 6.9335938 C 35.441234 7.1471826 35.515745 7.4643401 35.580078 7.8320312 C 35.708745 8.5674142 35.80216 9.5120769 35.865234 10.431641 C 35.991381 12.270767 36 14.003906 36 14.003906 A 1.0001 1.0001 0 0 0 36.757812 14.970703 C 36.757812 14.970703 38.478283 15.401916 40.177734 15.978516 C 41.02746 16.266815 41.874374 16.595902 42.447266 16.892578 C 42.683474 17.0149 42.827827 17.116546 42.9375 17.199219 C 42.90228 17.310094 42.826771 17.683456 42.601562 18.255859 C 42.333945 18.936053 41.965342 19.757486 41.595703 20.542969 C 40.856425 22.113935 40.113281 23.537109 40.113281 23.537109 A 1.0001 1.0001 0 0 0 40.439453 24.828125 C 40.439453 24.828125 41.672979 25.665094 42.882812 26.677734 C 43.48773 27.184055 44.083986 27.735937 44.488281 28.207031 C 44.782399 28.549745 44.913309 28.868327 44.966797 28.958984 C 44.913912 29.036403 44.784297 29.281306 44.503906 29.546875 C 44.106657 29.923129 43.521109 30.351374 42.929688 30.736328 C 41.746842 31.506236 40.552734 32.105469 40.552734 32.105469 A 1.0001 1.0001 0 0 0 40.052734 33.318359 C 40.052734 33.318359 40.404517 34.370198 40.699219 35.492188 C 40.84657 36.053182 40.977605 36.632628 41.041016 37.068359 C 41.059596 37.196023 41.059796 37.267282 41.066406 37.361328 C 40.982946 37.387688 40.928921 37.40936 40.816406 37.4375 C 40.388726 37.544451 39.79816 37.649208 39.214844 37.734375 C 38.048211 37.904708 36.912109 38.003906 36.912109 38.003906 A 1.0001 1.0001 0 0 0 36.029297 38.757812 L 35.330078 41.552734 C 34.524046 41.197474 33.471677 40.759712 32.71875 40.269531 C 32.75358 40.134697 32.798079 39.950917 32.822266 39.863281 C 33.111044 39.834981 33.169787 39.888501 33.560547 39.751953 C 34.422736 39.450677 35.486401 38.701644 35.949219 37.316406 C 36.38022 36.02764 36.189566 34.812988 35.515625 34.042969 C 34.841684 33.27295 33.881285 33 33 33 C 31.172475 33 30.171875 34.439453 30.171875 34.439453 A 1.0001 1.0001 0 1 0 31.828125 35.560547 C 31.828125 35.560547 32.179525 35 33 35 C 33.442715 35 33.83866 35.161644 34.011719 35.359375 C 34.184778 35.557106 34.331782 35.84336 34.050781 36.683594 C 33.793599 37.453356 33.358201 37.703308 32.900391 37.863281 C 32.44258 38.023255 32.068359 38.001953 32.068359 38.001953 A 1.0001 1.0001 0 0 0 31.042969 38.708984 C 31.042971 38.708984 30 42.108402 30 46 A 1.0001 1.0001 0 1 0 32 46 C 32 44.599004 32.136211 43.363241 32.298828 42.339844 C 33.788922 43.187591 35.623047 43.925781 35.623047 43.925781 A 1.0001 1.0001 0 0 0 36.970703 43.242188 L 37.802734 39.912109 C 38.22435 39.870849 38.631427 39.840279 39.503906 39.712891 C 40.123465 39.622431 40.757571 39.513283 41.302734 39.376953 C 41.575316 39.308783 41.823015 39.236966 42.0625 39.136719 C 42.301985 39.036472 42.563078 38.978127 42.84375 38.535156 C 43.088935 38.148284 43.079686 37.869417 43.083984 37.599609 C 43.088284 37.329802 43.060811 37.062947 43.019531 36.779297 C 42.936971 36.211997 42.790838 35.586005 42.632812 34.984375 C 42.425289 34.194288 42.31543 33.891121 42.181641 33.472656 C 42.628278 33.238499 43.091777 33.019205 44.021484 32.414062 C 44.671813 31.990768 45.332468 31.515605 45.878906 30.998047 C 46.425344 30.480489 46.960994 29.949559 47 29.042969 C 47.04082 28.098589 46.532689 27.518171 46.005859 26.904297 C 45.47903 26.290422 44.821552 25.689633 44.167969 25.142578 C 43.213254 24.343474 42.707049 24.013664 42.263672 23.703125 C 42.511207 23.221481 42.832056 22.610543 43.404297 21.394531 C 43.784658 20.586264 44.166055 19.735822 44.460938 18.986328 C 44.755817 18.236836 45 17.7125 45 17 C 45 16.377083 44.650313 16.016046 44.357422 15.759766 C 44.06453 15.503486 43.735039 15.30674 43.365234 15.115234 C 42.625626 14.732223 41.72254 14.389435 40.822266 14.083984 C 39.389048 13.597714 38.492014 13.379037 37.972656 13.244141 C 37.966456 12.721291 37.966156 11.823762 37.861328 10.294922 C 37.795527 9.3356096 37.700458 8.3417892 37.550781 7.4863281 C 37.475943 7.0585976 37.388515 6.6669385 37.271484 6.3105469 C 37.154454 5.9541553 37.040994 5.6269312 36.707031 5.2929688 C 36.251447 4.8373849 35.737487 4.8285555 35.322266 4.8515625 C 34.907044 4.8745695 34.497848 4.9707524 34.056641 5.1015625 C 33.174225 5.3631827 32.17972 5.7820641 31.216797 6.2285156 C 29.674015 6.9438137 28.762004 7.4666008 28.246094 7.7519531 C 27.39571 6.8251793 26.600535 5.8423171 25.90625 5.0058594 C 25.490719 4.5052372 25.094235 4.0557611 24.650391 3.6894531 C 24.206546 3.3231451 23.673401 3 23 3 z M 30 46 A 1 1 0 0 0 29 45 A 1 1 0 0 0 28 46 A 1 1 0 0 0 29 47 A 1 1 0 0 0 30 46 z M 14.5 23 C 16.181432 23 17.628486 23.920352 18.402344 25.275391 C 18.146821 25.971095 18 26.717956 18 27.5 C 18 28.384944 18.17875 29.229598 18.501953 30 L 15.5 30 C 14.386607 30 13.443862 30.751058 13.125 31.765625 C 11.310911 31.186078 10 29.514287 10 27.5 C 10 25.155027 11.771903 23.269565 14.054688 23.044922 A 1.0001 1.0001 0 0 0 14.189453 23.03125 C 14.29406 23.024083 14.393474 23 14.5 23 z M 24.5 23 C 26.96629 23 28.941607 24.95615 28.990234 27.410156 A 1.0001 1.0001 0 0 0 28.990234 27.591797 C 28.940579 30.044875 26.965627 32 24.5 32 C 22.002874 32 20 29.997126 20 27.5 C 20 25.002874 22.002874 23 24.5 23 z M 13 27 A 1 1 0 0 0 12 28 A 1 1 0 0 0 13 29 A 1 1 0 0 0 14 28 A 1 1 0 0 0 13 27 z M 25 27 A 1 1 0 0 0 24 28 A 1 1 0 0 0 25 29 A 1 1 0 0 0 26 28 A 1 1 0 0 0 25 27 z M 23 45 A 1 1 0 0 0 22 46 A 1 1 0 0 0 23 47 A 1 1 0 0 0 24 46 A 1 1 0 0 0 23 45 z M 26 45 A 1 1 0 0 0 25 46 A 1 1 0 0 0 26 47 A 1 1 0 0 0 27 46 A 1 1 0 0 0 26 45 z"/>
</svg>
