<?xml version="1.0"?>
<svg xmlns="http://www.w3.org/2000/svg" viewBox="0 0 50 50">
    <path d="M 19 3 C 18.415205 3 18.023307 3.3279914 17.763672 3.6191406 C 17.504037 3.9102898 17.31647 4.2342212 17.136719 4.59375 C 16.777217 5.3128077 16.47196 6.1826973 16.195312 7.0566406 C 15.918665 7.9305839 15.675881 8.8047686 15.482422 9.46875 C 15.420722 9.6805144 15.375908 9.8196118 15.326172 9.9785156 C 15.280212 9.9697356 15.267272 9.9715055 15.216797 9.9609375 C 14.729597 9.8589503 14.040311 9.6823558 13.294922 9.5039062 C 11.804143 9.1470077 10.190709 8.694316 8.7734375 9.0253906 A 1.0001 1.0001 0 0 0 8.03125 9.75 C 7.4893855 11.850267 7.6822053 14.548701 7.96875 17.591797 C 7.952736 17.597197 7.9585032 17.596163 7.9414062 17.601562 C 7.5632148 17.719787 6.9375486 17.844568 6.2949219 17.970703 C 5.6522951 18.096838 4.99177 18.224271 4.4101562 18.427734 C 4.1193494 18.529466 3.8441171 18.640055 3.5605469 18.865234 C 3.2769766 19.090414 2.9450008 19.583538 3.0078125 20.117188 A 1.0001 1.0001 0 0 0 3.0488281 20.310547 C 3.6622052 22.189321 5.2502118 23.945843 6.6699219 25.357422 C 7.7627596 26.444001 8.5917133 27.135848 9.0019531 27.470703 C 9.0019084 27.480597 9 27.490096 9 27.5 C 9 28.765233 9.371515 29.944384 10.001953 30.945312 A 1.0001 1.0001 0 0 0 10 31 C 10 32.933908 10.26302 34.289557 10.546875 35.185547 C 10.63699 35.469996 10.732689 35.701657 10.826172 35.90625 C 10.140935 36.62087 9.9232485 37.620276 10.025391 38.578125 C 10.103557 39.311147 10.351894 40.0509 10.740234 40.771484 L 9.7480469 41.716797 A 1.0001 1.0001 0 0 0 9.7304688 41.734375 C 8.7613698 42.703474 8.7613697 44.300432 9.7304688 45.269531 A 1.0001 1.0001 0 0 0 10.4375 45.5625 L 10.417969 45.554688 C 10.42419 45.557567 10.431339 45.557486 10.4375 45.560547 L 10.4375 45.5625 A 1.0001 1.0001 0 0 0 10.443359 45.5625 C 11.378444 46.024153 12.491946 46.04321 13.265625 45.269531 A 1.0001 1.0001 0 0 0 13.283203 45.251953 L 14.228516 44.259766 C 14.9491 44.648106 15.688853 44.896443 16.421875 44.974609 C 16.78703 45.013548 17.154166 44.98744 17.513672 44.925781 C 17.94325 45.361539 18.757497 46 20 46 C 21.172348 46 21.935553 45.182748 22.351562 44.548828 C 22.767572 43.914908 22.955078 43.298828 22.955078 43.298828 A 1.0001 1.0001 0 0 0 21.992188 41.986328 A 1.0001 1.0001 0 0 0 21.044922 42.701172 C 21.044922 42.701172 20.919928 43.085092 20.679688 43.451172 C 20.439447 43.817252 20.202652 44 20 44 C 19.723525 44 19.525653 43.94345 19.359375 43.873047 C 20.036708 43.001342 20.123899 41.82372 19.849609 40.726562 C 19.546945 39.515906 18.827303 38.296053 17.765625 37.234375 C 16.703947 36.172697 15.484093 35.453055 14.273438 35.150391 C 13.729261 35.014347 13.166149 34.973036 12.628906 35.041016 C 12.577074 34.919197 12.528382 34.817626 12.453125 34.580078 C 12.337043 34.213667 12.219024 33.70071 12.130859 33.044922 C 13.115439 33.646356 14.266683 34 15.5 34 L 17 34 L 18 34 A 1.0001 1.0001 0 1 0 18 32 L 17 32 L 16.5 32 C 16.220455 32 16 31.779545 16 31.5 C 16 31.220455 16.220455 31 16.5 31 L 20.035156 31 C 21.193633 32.799833 23.209962 34 25.5 34 C 29.078006 34 32 31.078006 32 27.5 C 32 26.540234 31.78496 25.630221 31.408203 24.808594 C 31.563768 24.648341 31.748387 24.471417 31.923828 24.324219 C 32.276786 24.02808 32.574219 23.818359 32.574219 23.818359 A 1.0001 1.0001 0 0 0 32.056641 21.992188 A 1.0001 1.0001 0 0 0 31.957031 21.992188 A 1.0001 1.0001 0 0 0 31.425781 22.181641 C 31.425781 22.181641 31.062214 22.435655 30.638672 22.791016 C 30.523756 22.887432 30.400345 23.006706 30.279297 23.115234 C 29.851276 22.649253 29.358612 22.245902 28.8125 21.919922 C 29.279508 21.146574 29.712891 20.701172 29.712891 20.701172 A 1.0001 1.0001 0 0 0 28.972656 18.990234 A 1.0001 1.0001 0 0 0 28.287109 19.298828 C 28.287109 19.298828 27.606203 20.018578 26.951172 21.169922 C 26.4836 21.062288 25.999275 21 25.5 21 C 25.361907 21 25.227797 21.01485 25.091797 21.023438 C 25.034328 20.790678 24.976495 20.491988 24.964844 20.203125 C 24.941064 19.613694 24.994141 19.105469 24.994141 19.105469 A 1.0001 1.0001 0 0 0 23.992188 17.986328 A 1.0001 1.0001 0 0 0 23.005859 18.894531 C 23.005859 18.894531 22.936317 19.527634 22.966797 20.283203 C 22.981769 20.65446 22.99434 21.063329 23.083984 21.478516 C 22.073353 21.887481 21.182022 22.535685 20.496094 23.363281 C 19.363946 21.998675 17.690126 21.10757 15.808594 21.017578 C 15.718312 20.521896 15.649498 19.895682 15.876953 19.482422 A 1.0001 1.0001 0 0 0 14.994141 17.988281 A 1.0001 1.0001 0 0 0 14.123047 18.517578 C 13.583233 19.498345 13.609325 20.501972 13.746094 21.248047 C 13.144494 21.417752 12.578615 21.67252 12.060547 21.998047 C 12.032981 21.99509 11.945526 21.980867 11.736328 21.851562 C 11.488901 21.698631 11.172438 21.431551 10.957031 20.712891 A 1.0001 1.0001 0 0 0 9.9902344 19.986328 A 1.0001 1.0001 0 0 0 9.0429688 21.287109 C 9.3496554 22.310308 9.919266 22.984756 10.470703 23.392578 C 10.03054 23.930086 9.6811198 24.541614 9.4296875 25.201172 C 9.0251123 24.842053 8.573634 24.430182 8.0800781 23.939453 C 6.9341525 22.800091 5.8467687 21.400982 5.2871094 20.263672 C 5.6533739 20.153799 6.1302003 20.041447 6.6796875 19.933594 C 7.3139357 19.809104 7.9667072 19.690027 8.5371094 19.511719 C 8.8223105 19.422569 9.0885231 19.328094 9.3710938 19.134766 C 9.6536643 18.941437 10.05166 18.480329 9.9960938 17.904297 C 9.7239296 15.078313 9.6491988 12.74581 9.9023438 11.064453 C 10.60952 11.075373 11.65471 11.167831 12.830078 11.449219 C 13.553439 11.622394 14.239153 11.801128 14.806641 11.919922 C 15.090385 11.979322 15.340781 12.023813 15.59375 12.042969 C 15.720235 12.052569 15.845403 12.059269 16.011719 12.037109 C 16.178034 12.014989 16.425775 11.988289 16.707031 11.707031 C 16.939144 11.474919 16.946115 11.376803 16.996094 11.263672 C 17.046074 11.15054 17.086374 11.040163 17.128906 10.916016 C 17.213966 10.66772 17.302745 10.369181 17.402344 10.027344 C 17.601541 9.3436684 17.839087 8.4912911 18.101562 7.6621094 C 18.364041 6.8329277 18.658377 6.0231299 18.925781 5.4882812 C 19.029362 5.2811049 19.110375 5.1698744 19.181641 5.0722656 C 19.294421 5.1039406 19.478198 5.1407396 19.851562 5.3417969 C 20.326003 5.5972836 20.916505 5.9840587 21.541016 6.4472656 C 22.790036 7.3736794 24.188015 8.6020779 25.292969 9.7070312 A 1.0001 1.0001 0 0 0 26.576172 9.8164062 C 26.576172 9.8164062 28.313018 8.5912882 30.148438 7.4960938 C 31.066146 6.9484965 32.014095 6.4350221 32.724609 6.140625 C 33.010639 6.0221102 33.207344 5.9719873 33.371094 5.9335938 C 33.441234 6.1471826 33.515745 6.4643399 33.580078 6.8320312 C 33.708745 7.5674141 33.80216 8.5120777 33.865234 9.4316406 C 33.991383 11.270772 34 13.003906 34 13.003906 A 1.0001 1.0001 0 0 0 34.916016 13.996094 C 34.916016 13.996094 37.144331 14.182614 39.349609 14.519531 C 40.452249 14.68799 41.552623 14.898893 42.314453 15.121094 C 42.589125 15.201204 42.739672 15.271638 42.894531 15.339844 C 42.888731 15.357344 42.893219 15.347244 42.886719 15.365234 C 42.793479 15.624548 42.648492 15.969852 42.46875 16.357422 C 42.109265 17.132561 41.615449 18.080718 41.121094 18.992188 C 40.132382 20.815123 39.140625 22.490234 39.140625 22.490234 A 1.0001 1.0001 0 0 0 39.470703 23.847656 C 39.470703 23.847656 40.927577 24.760371 42.369141 25.931641 C 43.089922 26.517276 43.80119 27.169187 44.296875 27.757812 C 44.792548 28.34644 45 28.881944 45 29 C 45 29.04398 44.91766 29.250672 44.398438 29.556641 C 43.879218 29.862609 43.068902 30.155511 42.242188 30.376953 C 40.588754 30.819837 38.892578 31.005859 38.892578 31.005859 A 1.0001 1.0001 0 0 0 38.111328 32.458984 C 38.111328 32.458984 38.858104 33.911034 39.466797 35.466797 C 39.771143 36.244678 40.037299 37.050589 40.154297 37.650391 C 40.212797 37.950292 40.229403 38.19794 40.220703 38.326172 C 40.219924 38.337661 40.219838 38.331056 40.21875 38.339844 C 40.103687 38.42194 39.748575 38.636423 39.253906 38.828125 C 38.69545 39.044547 38.0041 39.253743 37.341797 39.431641 C 36.017192 39.787436 34.8125 40.017578 34.8125 40.017578 A 1.0001 1.0001 0 0 0 34 41 L 34 43 L 31 43 L 31 40.669922 C 31.335367 40.793525 31.577068 41 32 41 C 32.609468 41 33.347537 40.95338 34.005859 40.449219 C 34.664182 39.945057 35 39.053667 35 38 C 35 36.196882 34.365123 35.042334 33.574219 34.486328 C 32.783315 33.930322 31.90625 34.003906 31.90625 34.003906 A 1.000496 1.000496 0 0 0 32.09375 35.996094 C 32.09375 35.996094 32.216685 35.976054 32.425781 36.123047 C 32.634877 36.270041 33 36.615118 33 38 C 33 38.696333 32.867193 38.804943 32.791016 38.863281 C 32.714838 38.92162 32.452532 39 32 39 C 31.565746 39 30.728516 38.316406 30.728516 38.316406 A 1.0001 1.0001 0 0 0 29 39 L 29 43.759766 C 28.934074 43.855838 28.807207 44.010144 28.560547 44.185547 C 28.056992 44.543629 27.035119 45 25 45 A 1.0001 1.0001 0 1 0 25 47 C 27.339881 47 28.818005 46.456372 29.720703 45.814453 C 30.10923 45.538167 30.368306 45.253963 30.558594 45 L 35 45 A 1.0001 1.0001 0 0 0 36 44 L 36 41.794922 C 36.463044 41.699992 36.879786 41.626928 37.861328 41.363281 C 38.566275 41.173929 39.310457 40.9515 39.976562 40.693359 C 40.642669 40.435219 41.219589 40.194473 41.707031 39.707031 C 42.089466 39.324597 42.189676 38.862666 42.216797 38.462891 C 42.243917 38.063115 42.196407 37.673708 42.117188 37.267578 C 41.958748 36.455318 41.658482 35.57765 41.330078 34.738281 C 40.920804 33.692214 40.719199 33.338642 40.431641 32.746094 C 41.118459 32.648644 41.581114 32.625734 42.757812 32.310547 C 43.681097 32.063239 44.620784 31.746766 45.414062 31.279297 C 46.207344 30.811828 47 30.081019 47 29 C 47 27.993056 46.45744 27.216061 45.828125 26.46875 C 45.19881 25.721439 44.410078 25.013974 43.630859 24.380859 C 42.464787 23.433426 41.819203 23.044112 41.310547 22.712891 C 41.62132 22.182425 42.093664 21.393103 42.878906 19.945312 C 43.384551 19.013032 43.890735 18.039314 44.28125 17.197266 C 44.476508 16.776242 44.644018 16.390101 44.769531 16.041016 C 44.895045 15.691931 45 15.422917 45 15 C 45 14.621875 44.821008 14.303761 44.646484 14.107422 C 44.47196 13.911082 44.291228 13.790214 44.107422 13.685547 C 43.739809 13.476212 43.335882 13.334212 42.873047 13.199219 C 41.947377 12.929232 40.797751 12.71826 39.650391 12.542969 C 37.799261 12.260157 36.607906 12.165461 35.966797 12.107422 C 35.958997 11.529229 35.961297 10.752875 35.861328 9.2949219 C 35.795527 8.3356098 35.700458 7.3417892 35.550781 6.4863281 C 35.475943 6.0585976 35.388515 5.6669385 35.271484 5.3105469 C 35.154454 4.9541553 35.040994 4.6269312 34.707031 4.2929688 C 34.221042 3.8069796 33.651463 3.8402815 33.228516 3.9042969 C 32.805568 3.9683122 32.399149 4.1105891 31.958984 4.2929688 C 31.078655 4.6577279 30.086166 5.2038159 29.125 5.7773438 C 27.546375 6.7193094 26.565418 7.4203234 26.085938 7.7539062 C 25.029944 6.7437963 23.873806 5.6883759 22.732422 4.8417969 C 22.056057 4.3401288 21.405435 3.9056851 20.800781 3.5800781 C 20.196128 3.2544711 19.673401 3 19 3 z M 15.5 23 C 17.181432 23 18.628486 23.920352 19.402344 25.275391 C 19.146821 25.971095 19 26.717956 19 27.5 C 19 28.01695 19.068438 28.517272 19.183594 29 L 16.5 29 C 15.129545 29 14 30.129545 14 31.5 L 14 31.726562 C 12.250756 31.110912 11 29.468168 11 27.5 C 11 25.155027 12.771903 23.269565 15.054688 23.044922 A 1.0001 1.0001 0 0 0 15.189453 23.03125 C 15.29406 23.024083 15.393474 23 15.5 23 z M 25.5 23 C 27.997126 23 30 25.002874 30 27.5 C 30 29.997126 27.997126 32 25.5 32 C 23.002874 32 21 29.997126 21 27.5 C 21 25.002874 23.002874 23 25.5 23 z M 14 26 A 1 1 0 0 0 13 27 A 1 1 0 0 0 14 28 A 1 1 0 0 0 15 27 A 1 1 0 0 0 14 26 z M 26 26 A 1 1 0 0 0 25 27 A 1 1 0 0 0 26 28 A 1 1 0 0 0 27 27 A 1 1 0 0 0 26 26 z M 13.259766 37.001953 C 13.418165 37.012946 13.593273 37.041385 13.787109 37.089844 C 14.562453 37.28368 15.519241 37.816114 16.351562 38.648438 C 17.183885 39.480759 17.71632 40.437547 17.910156 41.212891 C 18.103992 41.988235 17.972066 42.473249 17.722656 42.722656 C 17.520659 42.924653 17.1917 43.045717 16.634766 42.986328 C 16.352704 42.95625 16.026398 42.872708 15.681641 42.734375 L 15.724609 42.689453 A 1.0002018 1.0002018 0 1 0 14.275391 41.310547 L 13.375 42.255859 A 1.0001 1.0001 0 0 0 13.289062 42.345703 A 1.0001 1.0001 0 0 0 13.287109 42.347656 L 11.851562 43.855469 C 11.654662 44.05237 11.341432 44.05237 11.144531 43.855469 C 10.94763 43.658568 10.94763 43.345337 11.144531 43.148438 L 12.646484 41.716797 A 1.0001 1.0001 0 0 0 12.746094 41.623047 L 13.689453 40.724609 A 1.0001 1.0001 0 0 0 13.003906 38.990234 A 1.0001 1.0001 0 0 0 12.310547 39.275391 L 12.265625 39.318359 C 12.127292 38.973602 12.04375 38.647296 12.013672 38.365234 C 11.954282 37.8083 12.075352 37.479341 12.277344 37.277344 C 12.464399 37.090288 12.784566 36.968974 13.259766 37.001953 z"/>
</svg>
