<?xml version="1.0"?>
<svg xmlns="http://www.w3.org/2000/svg" viewBox="0 0 50 50">
    <path d="M 8.984375 2.9863281 A 1.0001 1.0001 0 0 0 8 4 C 8 6.1771011 8.974369 7.3674171 9.6914062 8.0683594 C 9.0002851 8.8741757 8 10.309707 8 13 C 8 14.885031 8.5697637 16.291166 9.1582031 17.208984 C 9.2673922 17.379292 9.378203 17.519575 9.4882812 17.660156 C 9.1888023 17.91377 8.9096333 18.192508 8.65625 18.492188 C 8.0538704 17.890974 7.9003906 17.564453 7.9003906 17.564453 A 1.0001 1.0001 0 0 0 7.0273438 16.988281 A 1.0001 1.0001 0 0 0 6.0996094 18.435547 C 6.0996094 18.435547 6.5413293 19.235259 7.5820312 20.214844 C 7.3526798 20.740207 7.1919906 21.300619 7.0976562 21.882812 C 6.5996479 21.785298 6.0261657 21.612405 5.7070312 21.292969 A 1.0001 1.0001 0 0 0 4.9902344 20.990234 A 1.0001 1.0001 0 0 0 4.2929688 22.707031 C 5.1816649 23.596565 6.277304 23.862939 7.0644531 23.951172 C 7.2644856 25.419202 7.9302742 26.737653 8.8964844 27.771484 C 8.8008805 28.123191 8.64477 28.420831 8.4257812 28.705078 C 8.0645876 29.173908 7.5242761 29.601845 6.9160156 30.039062 C 6.3077552 30.47628 5.6373154 30.915061 5.0585938 31.521484 C 4.479872 32.127908 4 32.982014 4 34 C 4 34.335879 4.07463 34.528669 4.1777344 34.785156 C 4.2808392 35.041644 4.4276495 35.322251 4.6289062 35.625 C 5.03142 36.230498 5.6546709 36.92094 6.5683594 37.572266 C 8.1161802 38.675634 10.49953 39.643225 14.001953 39.916016 A 1.0001 1.0001 0 0 0 14 40.03125 C 14 40.03125 14.03499 40.862434 14.605469 41.607422 C 15.174122 42.350031 16.299857 42.993933 17.986328 42.998047 C 17.998878 43.028827 18.010429 43.061526 18.011719 43.066406 L 18 45.996094 A 1.0001 1.0001 0 1 0 20 46.003906 L 20.011719 43.003906 A 1.0001 1.0001 0 0 0 20.007812 42.927734 C 20.007812 42.927734 19.986982 42.485907 19.736328 42.023438 C 19.485661 41.560975 18.824366 41 18 41 C 16.758489 41 16.388635 40.64759 16.193359 40.392578 C 16.024058 40.171486 16.008472 40.037669 16.005859 40 C 20.848975 39.999775 23.642766 39.74924 25.269531 39.486328 C 25.966759 39.373645 26.418927 39.260272 26.761719 39.15625 C 26.903316 39.413646 27 39.698443 27 40 A 1.0001 1.0001 0 1 0 29 40 C 29 37.400765 26.482422 36.125 26.482422 36.125 A 1.0001 1.0001 0 0 0 26.005859 35.994141 A 1.0001 1.0001 0 0 0 25.119141 37.480469 C 25.053953 37.491832 25.020115 37.502214 24.949219 37.513672 C 23.482964 37.75064 20.777868 38 16 38 C 11.69233 38 9.1668887 36.968708 7.7285156 35.943359 C 7.0093291 35.430685 6.558502 34.91408 6.2949219 34.517578 C 6.1631318 34.319327 6.0778288 34.150075 6.0332031 34.039062 C 6.014789 33.993255 6.0099275 33.960177 6.0058594 33.9375 C 6.0199846 33.526362 6.1633023 33.259252 6.5039062 32.902344 C 6.8626845 32.526392 7.4422448 32.125346 8.0839844 31.664062 C 8.5864947 31.302858 9.1299683 30.895799 9.6191406 30.378906 C 10.231978 31.34425 11.277733 32 12.5 32 L 15 32 A 1.0001 1.0001 0 1 0 15 30 L 12.5 30 C 11.670455 30 11 29.329545 11 28.5 C 11 28.353827 11.02757 28.215527 11.066406 28.082031 L 11.439453 27.439453 C 11.71076 27.168146 12.085228 27 12.5 27 L 18.267578 27 C 19.535505 28.809529 21.632144 30 24 30 C 27.175023 30 29.863901 27.864077 30.714844 24.957031 C 31.561016 24.868541 32.239834 24.639774 32.726562 24.392578 C 33.34447 24.07876 33.728516 23.683594 33.728516 23.683594 A 1.0001 1.0001 0 0 0 33.048828 21.990234 A 1.0001 1.0001 0 0 0 32.271484 22.316406 C 32.271484 22.316406 32.186904 22.42124 31.820312 22.607422 C 31.617679 22.710334 31.3412 22.815585 30.994141 22.892578 C 30.984659 22.27584 30.892872 21.678305 30.732422 21.109375 C 31.923025 20.527359 32.708984 19.705078 32.708984 19.705078 A 1.0001 1.0001 0 0 0 31.978516 17.990234 A 1.0001 1.0001 0 0 0 31.291016 18.294922 C 31.291016 18.294922 30.66284 18.872496 29.910156 19.271484 C 29.585205 18.758901 29.196594 18.292379 28.753906 17.880859 C 29.498227 17.153931 29.871094 16.490234 29.871094 16.490234 A 1.0001 1.0001 0 0 0 29.003906 14.988281 A 1.0001 1.0001 0 0 0 28.128906 15.509766 C 28.128906 15.509766 27.762275 16.112787 27.048828 16.710938 C 26.605316 16.494601 26.13772 16.32419 25.648438 16.205078 C 25.876663 15.662237 25.970703 15.242187 25.970703 15.242188 A 1.0001 1.0001 0 0 0 25.033203 13.986328 A 1.0001 1.0001 0 0 0 24.029297 14.757812 C 24.029297 14.757812 23.782637 15.507393 23.462891 16.027344 C 21.720579 16.161656 20.152818 16.934608 18.998047 18.117188 C 17.725966 16.815766 15.956987 16 14 16 C 12.999568 16 12.047875 16.214462 11.185547 16.595703 C 11.081902 16.471865 10.9682 16.326064 10.841797 16.128906 C 10.794352 16.054904 10.748425 15.958651 10.701172 15.875 C 12.375263 15.449707 13.340474 14.231417 13.710938 13.164062 C 13.829166 12.82343 13.747909 12.812287 13.792969 12.511719 C 14.382584 12.748485 15.012291 13 16 13 C 18.06521 13 19.473406 11.974705 20.216797 11.25 C 20.970594 11.665722 21.913323 12 23 12 C 24.561619 12 25.850469 11.536203 26.626953 11.21875 C 27.77611 12.86741 29.6585 13.779773 31.314453 14.291016 C 32.78501 14.745021 33.537108 14.775931 34.083984 14.832031 C 34.193272 16.916884 34.601777 18.595496 35.083984 19.703125 C 35.326877 20.26105 35.576913 20.689903 35.789062 21.017578 C 35.593357 21.323083 35.357459 21.702566 35.113281 22.171875 C 34.575392 23.205697 34 24.555649 34 26 C 34 27.280088 34.425379 28.382841 34.888672 29.222656 C 33.833249 29.627008 33.267578 30.439453 33.267578 30.439453 A 1.0008108 1.0008108 0 1 0 34.925781 31.560547 C 34.925781 31.560547 35.277181 31 36.097656 31 C 36.145395 31 36.204906 31.011516 36.271484 31.037109 A 1.0001 1.0001 0 0 0 36.273438 31.037109 A 1.0001 1.0001 0 0 0 36.392578 31.103516 C 36.570783 31.204372 36.771525 31.381784 36.933594 31.679688 C 37.199093 32.16771 37.321176 32.875068 37.050781 33.683594 C 36.793599 34.453356 36.358201 34.703308 35.900391 34.863281 C 35.44258 35.023255 35.068359 35.001953 35.068359 35.001953 A 1.0001 1.0001 0 0 0 34.011719 35.84375 C 34.011719 35.84375 33 42.108402 33 46 A 1.0001 1.0001 0 1 0 35 46 C 35 44.509578 35.166295 42.650886 35.353516 40.976562 C 39.180629 40.855619 41.311309 38.876365 42.21875 36.921875 C 42.957847 35.329974 42.991194 34.040309 42.982422 33.451172 C 43.695354 32.974968 46 31.300134 46 27.876953 C 46 26.55312 45.356398 25.455081 44.777344 24.65625 C 44.5174 24.297646 44.463703 24.284308 44.253906 24.056641 C 44.983301 23.28642 46 21.941029 46 19.375 C 46 17.026176 45.03874 15.751491 44.326172 15 C 45.03874 14.24871 46 12.974607 46 10.626953 C 46 8.2835952 44.931651 6.8143925 44.285156 6.0449219 C 44.613486 5.5796053 44.953459 4.9063738 44.998047 4.0527344 A 1.0001 1.0001 0 0 0 44.037109 2.9863281 A 1.0001 1.0001 0 0 0 43.001953 3.9472656 C 42.966113 4.6333487 42.345703 5.2441406 42.345703 5.2441406 A 1.0001 1.0001 0 0 0 42.292969 6.7070312 C 42.292969 6.7070312 44 8.5098898 44 10.626953 C 44 13.107666 42.416016 14.1875 42.416016 14.1875 A 1.0001 1.0001 0 0 0 42.416016 15.8125 C 42.416016 15.8125 44 16.891978 44 19.375 C 44 22.172408 42.359375 23.246094 42.359375 23.246094 A 1.0001 1.0001 0 0 0 42.263672 24.800781 C 42.263672 24.800781 42.705757 25.205909 43.158203 25.830078 C 43.610642 26.454248 44 27.262786 44 27.876953 C 44 30.657009 41.496094 32.136719 41.496094 32.136719 A 1.0001 1.0001 0 0 0 41.001953 33.070312 C 41.001953 33.070312 41.095023 34.594612 40.40625 36.078125 C 39.761513 37.466788 38.575826 38.799962 35.609375 38.966797 C 35.715623 38.187529 35.848729 37.142119 35.892578 36.853516 C 36.167523 36.821586 36.206937 36.875516 36.560547 36.751953 C 37.422736 36.450677 38.486401 35.701644 38.949219 34.316406 C 39.390824 32.995932 39.222454 31.704336 38.689453 30.724609 C 38.385581 30.166052 37.950601 29.690287 37.425781 29.378906 C 37.212499 29.129316 36 27.645437 36 26 C 36 25.132351 36.424608 23.981928 36.886719 23.09375 C 37.248743 22.397939 37.542033 21.971601 37.679688 21.777344 A 1.0001 1.0001 0 0 0 37.957031 20.667969 A 1.0001 1.0001 0 0 0 37.955078 20.664062 A 1.0001 1.0001 0 0 0 37.673828 20.240234 C 37.592192 20.146573 37.305186 19.800175 36.916016 18.90625 C 36.467022 17.874913 36 16.267457 36 14 A 1.0001 1.0001 0 0 0 35.068359 13.001953 C 35.068359 13.001953 33.577361 12.897385 31.904297 12.380859 C 30.231233 11.864334 28.524126 10.929805 27.910156 9.5839844 A 1.0001 1.0001 0 0 0 26.583984 9.0898438 C 26.583984 9.0898438 24.444082 10 23 10 C 21.263452 10 19.763672 8.3554688 19.763672 8.3554688 A 1.0001 1.0001 0 0 0 18.974609 7.9882812 A 1.0001 1.0001 0 0 0 18.236328 9.6445312 C 18.236328 9.6445312 18.371258 9.8100383 18.613281 10.048828 C 18.113491 10.485463 17.266572 11 16 11 C 15.058346 11 14.481626 10.792094 14.144531 10.615234 C 13.807436 10.438374 13.775391 10.369141 13.775391 10.369141 A 1.0001 1.0001 0 0 0 12.005859 11.105469 C 12.005859 11.105469 12.06529 11.802 11.820312 12.507812 C 11.588626 13.175339 11.239581 13.761775 10.070312 13.970703 C 10.028215 13.67194 10 13.35196 10 13 C 10 10.020062 11.630859 8.7753906 11.630859 8.7753906 A 1.0001 1.0001 0 0 0 11.566406 7.1757812 C 11.566406 7.1757812 10 6.1170635 10 4 A 1.0001 1.0001 0 0 0 8.984375 2.9863281 z M 14 18 C 15.528169 18 16.889055 18.68302 17.804688 19.755859 C 17.293242 20.726998 17 21.830208 17 23 C 17 23.694626 17.106777 24.365658 17.296875 25 L 12.5 25 C 11.537811 25 10.660647 25.395981 10.025391 26.033203 C 9.3834828 25.193637 9 24.144704 9 23 C 9 21.212225 9.9317767 19.662694 11.332031 18.779297 A 1.0001 1.0001 0 0 0 11.664062 18.599609 C 12.363214 18.22938 13.149528 18 14 18 z M 23.988281 18 A 1.000869 1.000869 0 0 0 24 18 C 26.773268 18 29 20.226732 29 23 C 29 25.773268 26.773268 28 24 28 C 21.226732 28 19 25.773268 19 23 C 19 20.230677 21.220514 18.006322 23.988281 18 z M 12 22 A 1 1 0 0 0 11 23 A 1 1 0 0 0 12 24 A 1 1 0 0 0 13 23 A 1 1 0 0 0 12 22 z M 25 23 A 1 1 0 0 0 24 24 A 1 1 0 0 0 25 25 A 1 1 0 0 0 26 24 A 1 1 0 0 0 25 23 z M 22 45 A 1 1 0 0 0 21 46 A 1 1 0 0 0 22 47 A 1 1 0 0 0 23 46 A 1 1 0 0 0 22 45 z M 25 45 A 1 1 0 0 0 24 46 A 1 1 0 0 0 25 47 A 1 1 0 0 0 26 46 A 1 1 0 0 0 25 45 z M 28 45 A 1 1 0 0 0 27 46 A 1 1 0 0 0 28 47 A 1 1 0 0 0 29 46 A 1 1 0 0 0 28 45 z M 31 45 A 1 1 0 0 0 30 46 A 1 1 0 0 0 31 47 A 1 1 0 0 0 32 46 A 1 1 0 0 0 31 45 z"/>
</svg>
